<svg xmlns="http://www.w3.org/2000/svg" xmlns:xlink="http://www.w3.org/1999/xlink" xml:space="preserve" width="24" height="18" version="1.1" style="shape-rendering:geometricPrecision; text-rendering:geometricPrecision; image-rendering:optimizeQuality; fill-rule:evenodd; clip-rule:evenodd" viewBox="0 0 2574 1930">
 <defs>
  <style type="text/css">
   <![CDATA[
    .fil0 {fill:black}
    .fil2 {fill:#009900}
    .fil1 {fill:#BF0000}
    .fil3 {fill:white}
   ]]>
  </style>
 </defs>
  <g id="Layer_x0020_1">
  <metadata id="CorelCorpID_0Corel-Layer"/>
    <polygon class="fil0" points="0,0 858,0 858,1930 0,1930 "/>
    <polygon class="fil1" points="1716,0 858,0 858,1930 1716,1930 "/>
    <polygon class="fil2" points="1716,0 2574,0 2574,1930 1716,1930 "/>
    <g transform="scale(1.3,1.3) translate(-293,-150)">
    <path class="fil3" d="M1376 1317l0 0c0,0 0,0 0,0zm-180 0l0 0c0,0 0,0 0,0zm265 10l-14 -1c-1,0 -3,0 -5,-1l-19 -4c0,0 0,0 0,0 0,0 -1,0 -1,0l-13 -3c-12,-2 -14,-2 -26,-2 -3,0 -3,0 -6,0 3,-2 44,-17 49,-18l21 -6c12,-2 24,-3 35,2 9,4 11,15 6,23 -5,8 -17,9 -27,9zm-379 -19c0,-17 20,-18 32,-18 4,0 8,1 12,1 9,2 23,6 31,9 3,1 6,2 10,4 2,1 3,1 5,2l10 4c1,1 3,1 5,2 1,1 9,3 10,4l-13 0c-12,0 -37,7 -52,9 -13,2 -38,5 -46,-7 -2,-3 -3,-5 -3,-9zm15 -24l21 -17c1,-1 1,-1 2,-2l13 -14c7,-9 16,-24 29,-24 13,0 19,3 32,6 18,4 37,8 55,10 39,5 62,2 101,-4 13,-2 27,-6 40,-9 11,-3 20,-5 30,1 4,2 9,7 12,11 1,1 1,1 2,2l7 9c1,1 1,1 2,2l15 15c1,1 1,1 2,2l15 12c-2,0 -4,-1 -5,-1 -17,-2 -35,2 -51,8 -2,1 -3,1 -5,2l-19 7c-6,3 -13,5 -19,7l-10 3c-3,1 -7,2 -10,3 -13,4 -31,8 -45,9 -6,0 -12,1 -19,1 -3,0 -4,0 -6,1 -3,0 -4,0 -6,-1 -7,0 -10,0 -19,-1 -9,-1 -14,-2 -23,-3l-16 -4c-20,-5 -36,-11 -54,-19l-14 -6c-10,-4 -27,-9 -38,-9 -5,0 -7,0 -13,0 -2,0 -4,1 -6,1zm459 28l2 2c10,8 30,12 42,12 11,0 17,0 29,-2 -1,5 -19,14 -25,16 -5,2 -10,3 -16,4 -23,4 -36,2 -58,-1 -17,-2 -21,-3 -38,-3 -11,0 -21,2 -30,4l-41 10c-10,2 -18,4 -29,6 -7,1 -10,2 -18,2 -20,0 -24,-24 -4,-32 5,-2 12,-3 19,-2 8,1 9,1 18,3 6,1 11,2 17,4 18,4 49,9 67,-2 2,-1 3,-2 5,-4 8,-8 10,-25 3,-35 -3,-4 -6,-7 -10,-10l-4 -4c3,0 6,-1 10,-1 9,0 15,0 23,2 5,1 9,2 14,3 30,5 47,6 76,-5l8 -4c1,-1 1,-1 3,-1l-4 8c-2,4 -5,8 -8,11 -1,1 -2,2 -4,3 -4,4 -14,9 -20,12 -10,4 -16,5 -26,7zm-600 -41c2,1 3,2 5,3 2,1 4,2 5,3 27,11 46,10 75,5 17,-3 20,-5 38,-5 4,0 7,1 10,1 -1,2 -1,2 -3,3l-6 5c-7,8 -10,12 -10,23 0,9 4,17 11,22 26,18 84,-4 107,-4 10,0 17,1 23,8 6,6 6,17 -1,22 -8,6 -21,4 -30,3 -2,0 -5,-1 -7,-1 -3,0 -5,-1 -7,-1l-14 -3c-5,-1 -9,-2 -14,-3 -15,-4 -42,-12 -58,-12 -22,0 -31,2 -52,5 -25,3 -59,2 -80,-15 -3,-2 -3,-2 -5,-5l9 2c9,1 24,1 32,0 8,-1 27,-7 31,-13 -5,0 -16,-3 -20,-5l-11 -4c-1,-1 -1,-1 -2,-1 -13,-8 -19,-13 -25,-26 -1,-2 -1,-3 -2,-5zm526 -11l-1 0 1 0zm-390 0c1,0 -1,0 1,0 -1,0 1,0 -1,0zm429 -2c0,0 0,0 0,0l0 0c0,0 0,0 0,0zm-469 0l0 0zm-17 -2l1 -1 -1 1zm76 1l-8 0 6 -8c8,-12 21,-10 21,-5 0,6 -10,13 -19,13zm354 -14l0 -2c2,-2 2,-2 6,-2 9,0 13,9 17,13 1,1 2,1 2,3 -5,0 -10,3 -18,-2 -2,-1 -7,-6 -7,-9zm-16 -3c3,0 6,1 8,2 4,2 5,4 7,6l6 8c-6,0 -15,3 -23,-5 -5,-5 -5,-11 2,-11zm-380 15c-3,0 -4,-1 -7,-1l8 -9c2,-3 8,-6 12,-6 2,0 4,1 5,2 0,4 0,4 -2,7 -2,3 -5,5 -9,6 -1,0 -5,1 -6,1zm417 -13c0,-3 8,-8 20,7l4 5c-4,0 -11,3 -18,-3 -1,-1 -1,-1 -2,-2 -2,-1 -4,-5 -4,-8zm-396 13c-3,0 -5,-1 -7,-1l8 -9c5,-5 7,-6 14,-6 2,0 5,1 4,5 -1,3 -2,4 -4,6 -4,4 -8,6 -14,6zm-41 -1c-4,0 -3,0 -5,0l7 -9c10,-11 21,-5 11,4 0,0 -2,1 -2,2 -3,2 -7,4 -11,4zm478 -13c0,-1 0,-2 1,-2 3,-3 10,1 13,4l5 7c2,2 0,2 -3,2 -7,0 -15,-6 -15,-10zm-15 -2c7,0 11,5 14,10l4 5c-5,0 -5,1 -12,-1 -9,-4 -14,-14 -5,-14zm-481 13l-4 0 3 -4c4,-6 9,-12 16,-8 0,8 -9,12 -15,12zm250 -39c0,-6 10,-6 10,0l0 28 -10 0 0 -28zm-151 27c2,0 1,0 2,-1 1,1 1,1 2,1 0,2 -1,3 -3,4 0,-2 0,-1 0,-2l-1 -2zm308 0c1,-1 1,-1 2,-1l2 2c-1,2 -1,1 -1,4 -1,-1 -2,-3 -3,-4zm43 -3c1,2 1,2 2,3l-1 2c-1,-1 -3,-2 -5,-2l4 -2zm-20 0c0,2 0,1 1,2 -1,2 -1,1 -1,3 -2,-1 -1,-1 -4,-2 1,-1 2,-3 4,-3zm-349 0c1,1 1,1 2,1 1,1 1,0 2,1 -3,0 -2,1 -4,2 0,-2 0,-1 -1,-2 1,-1 1,-1 2,-3zm-22 5c0,-1 0,-1 -1,-2 1,-1 1,-1 2,-2l3 2c0,0 0,0 0,0 0,0 0,0 0,0 -3,1 -3,1 -5,2zm413 -7c0,2 1,2 2,3 -1,1 -1,1 -2,3 -2,-1 -2,-1 -6,-2l5 -3zm-436 3c2,-1 1,-1 2,-3 1,1 1,1 2,2l2 1c0,0 0,0 0,0l1 0c-4,1 -4,2 -6,2 0,-2 0,-1 -1,-3zm471 -1c3,-1 6,-4 13,-4 6,0 16,4 19,7 -9,4 -20,4 -29,0 -1,0 -2,-1 -2,-1 -2,-1 -1,-1 -1,-2zm-22 0c2,-1 2,-1 4,-2 0,2 1,2 3,3 -1,1 -1,1 -1,2l-1 -1c-2,-1 -2,-1 -4,-2 0,0 0,0 0,0 0,0 0,0 0,0zm-467 3l-1 -1c1,-1 1,-1 2,-2 1,-1 1,-1 1,-2l3 3c0,0 0,0 0,0 -5,1 -3,2 -5,2zm-34 3c-4,0 -6,0 -10,-1 -2,-1 -3,-1 -5,-2 2,-3 16,-9 26,-6l6 3c-1,4 -14,6 -17,6zm349 -11l0 0zm72 6c-1,-1 -3,-4 -4,-5 3,-2 5,-4 8,-5 -3,7 1,7 -4,10zm-306 -10c4,1 6,3 8,5 -1,2 -2,4 -4,5 -4,-2 0,-3 -4,-10zm201 10l-9 1c0,-3 0,-4 0,-6 0,-2 0,-5 0,-7 1,-5 -1,-10 5,-10 6,0 4,8 4,13l-1 9zm60 -12l0 0zm-211 0l0 0zm-38 5c-2,0 -3,-1 -4,-2 3,-1 7,-2 8,-6 4,1 3,2 3,3 -2,0 -3,1 -4,2 -3,2 -3,1 -3,3zm282 -9c1,5 6,6 9,6l-2 1c-1,1 -1,1 -2,1 -2,-3 -5,-4 -8,-6l3 -3zm-181 -7c5,0 4,4 4,6 0,2 0,2 0,3l0 14c-6,0 -5,-1 -9,-1 0,-3 0,-4 0,-6 0,-2 0,-4 0,-7 -1,-5 0,-9 4,-9zm92 15c1,-7 0,-8 4,-8 4,0 -2,6 -4,8zm-104 -6c0,-2 1,-1 3,-1 2,0 2,5 2,8 -2,-1 -5,-6 -5,-6zm88 16c-3,0 -6,1 -10,1l1 -9c0,-2 0,-3 0,-5 0,-2 0,-3 0,-5 0,-4 -1,-7 2,-8 3,-2 5,-1 7,1 0,6 0,12 -1,17l-1 9zm-291 -17c4,0 8,0 12,2 6,4 11,11 2,11 -7,0 -10,-7 -13,-11l-1 -2zm500 14c-4,0 -4,0 -4,-3 0,-4 4,-7 7,-8 2,-1 4,-2 6,-2 1,0 2,0 3,0 2,0 1,0 3,0 -4,6 -8,14 -15,14zm-45 0c0,-5 1,-7 6,-10 6,-4 12,-3 18,-3l-9 11c-4,4 -9,6 -14,2zm-419 -13c17,-4 29,13 20,15 -7,2 -12,-5 -16,-10l-4 -5zm442 13c0,-2 -1,-3 2,-8 4,-5 11,-9 18,-7 -1,1 -1,1 -2,3 -3,4 -4,9 -11,12 -3,1 -4,1 -7,0zm-245 5c-4,0 -6,-1 -10,-1l-1 -16c0,-5 -3,-12 5,-11 6,1 4,6 5,8l1 20zm-216 -19c5,-1 10,1 14,3 2,1 6,6 6,10 0,1 0,1 0,2 -7,3 -13,-4 -16,-9 -1,-2 -2,-4 -3,-6zm487 0l0 0c0,0 0,0 0,0zm-63 18c-5,0 -3,0 -6,-2 0,-3 1,-6 3,-8 1,-2 3,-3 5,-5 5,-3 9,-3 16,-3 0,2 -8,13 -11,16 -1,1 -4,2 -7,2zm-21 0c-14,0 -1,-18 14,-18 4,0 4,0 6,0 -1,2 -2,2 -4,5 -3,5 -8,12 -16,12zm-343 -17c6,-1 10,-2 18,3 4,3 7,6 7,12 -3,2 -1,2 -6,2 -2,0 -5,-1 -6,-2 -4,-2 -10,-11 -12,-15zm-20 0c10,0 19,1 23,10 1,3 2,8 -2,8 -8,0 -12,-3 -16,-9l-5 -8c0,0 0,-1 0,-1zm-46 0l0 0c0,0 0,0 0,0zm353 5c5,-7 13,-12 21,-16 0,2 2,5 3,7 1,2 3,4 5,4 -1,1 -2,1 -3,3 -6,-3 -17,-1 -23,1 -1,0 -2,1 -3,1zm-211 0c-2,0 -8,-3 -15,-3 -10,-1 -10,4 -14,-2 4,-2 7,-6 8,-10 6,0 17,10 21,16zm125 15c-2,1 -7,1 -10,1 0,-6 0,-12 0,-18 0,-2 0,-2 0,-4 1,-4 -1,-9 6,-9 3,0 4,2 4,4l-1 21c0,1 0,3 0,5zm211 -22l0 0zm-460 0l0 0zm485 1c-4,0 -4,1 -8,1 0,-1 2,-2 3,-2 2,-1 12,-1 14,-1 -5,4 -4,1 -9,1zm-272 -8c9,0 7,8 7,22 0,4 0,5 0,9 -3,1 -7,0 -10,0l-1 -20c0,-2 -1,-2 -1,-4 0,-1 0,-3 1,-3 0,-1 2,-2 3,-2zm-247 7c5,0 14,-1 17,3 -12,-3 -5,-1 -12,-1 -2,0 -1,0 -4,-2 0,0 0,0 0,0zm-58 10l-1 0c-1,-2 -2,-2 -2,-5 0,-4 2,-7 4,-10 1,-1 9,-9 9,-5 0,6 0,9 -2,14 -1,1 -1,2 -3,3 -1,1 -3,2 -4,2zm635 -15c0,-5 0,-3 0,-6 7,4 12,8 12,17 0,2 -1,2 -2,4 -3,0 -3,0 -5,-2 -4,-2 -5,-9 -5,-13zm-163 11c-8,0 -11,-6 -3,-10 7,-4 15,-3 22,0l3 2c-2,1 -4,1 -6,2 -7,3 -10,7 -16,7zm-321 -9c3,-1 17,-9 27,1 2,2 4,8 -6,8 -6,0 -11,-6 -18,-8 -2,-1 -1,0 -3,-1zm425 0c0,0 0,0 0,0l2 -1c6,-3 17,-5 24,-5 1,0 3,3 7,3l0 5c-3,-2 -24,-1 -30,-1 -2,0 -2,0 -3,0zm-540 1l0 -5c5,-1 4,-3 7,-3 6,0 23,3 26,7l-14 0c-4,0 -17,0 -19,1zm516 1l2 -2c-2,-2 -1,-1 -3,-2 6,0 10,-2 11,-3l5 7c-3,0 -5,0 -8,0 -3,0 -5,1 -8,1zm-32 -5c0,-2 2,-3 3,-4 5,-3 12,-1 17,2 2,2 6,5 9,6 -1,4 -16,7 -23,2 -2,-1 -5,-4 -5,-6zm-410 8c-4,0 -8,-1 -11,-2l-3 -1c1,-1 0,-1 2,-2 5,-3 10,-8 17,-8 3,0 10,2 10,5 0,5 -8,9 -14,9zm-18 -3c-3,0 -5,-1 -11,-1 -2,0 -2,0 -4,0 1,-2 3,-4 5,-7 3,1 6,3 11,3 -1,1 0,0 -1,1 -1,0 0,0 -1,0 -2,1 0,0 -2,1 1,1 0,1 1,1l1 1zm402 -6c15,-4 11,-6 16,-7 0,2 1,3 2,4 1,1 2,2 3,2 0,3 0,3 1,5 -5,0 -6,1 -8,1 -1,0 -3,-2 -8,-2 -3,0 -4,-1 -6,-3 0,0 0,0 0,0zm-365 -1c3,0 5,-4 5,-6 3,0 5,6 16,7l-3 2c-2,1 -1,1 -3,2l-6 1c-4,1 -1,1 -6,0 -1,0 -2,0 -4,0 2,-2 1,-2 1,-5zm518 -1c18,0 37,10 59,10l-3 2c-15,10 -28,11 -46,5 -2,-1 -4,-1 -6,-2 1,-3 2,-3 -1,-8 -1,-3 -3,-4 -5,-7zm-654 10l0 5c-10,2 -12,5 -27,5 -7,0 -16,-3 -22,-7 -1,-1 -2,-1 -3,-2l-3 -2c5,0 5,0 8,0 18,-1 39,-10 52,-10 -2,2 -6,7 -6,10zm478 -11c0,-2 0,-2 0,-8 2,1 2,1 4,1 0,3 0,3 1,5 -2,0 -4,1 -6,2zm-296 -7c0,3 0,5 1,7 -2,-1 -4,-1 -7,-2 1,-2 1,-2 2,-5 2,0 2,0 4,0zm396 13l-3 -3c-1,-1 -2,-2 -3,-3 2,-2 3,-2 5,-5 10,0 3,2 12,2 6,0 10,-4 16,-4 0,2 1,3 2,4 -13,0 -20,2 -30,9zm-525 -13c8,0 8,4 19,4 5,0 1,-2 10,-2 2,2 2,3 5,5l-5 7c-2,-2 -10,-6 -13,-7 -6,-2 -9,-2 -17,-2 1,-1 2,-2 2,-4zm413 15c-7,0 -11,-17 -1,-30 1,-1 1,-1 1,-2 2,1 1,0 1,2 3,8 10,15 4,26 -1,2 -2,5 -5,5zm-275 -33c2,1 4,6 5,8 2,6 4,14 1,20 -2,3 -4,6 -8,4 -3,-3 -6,-10 -5,-15 1,-4 2,-5 3,-9 1,-3 3,-5 3,-8zm352 19c0,-2 0,-2 1,-3 0,0 2,-1 2,-1 10,-5 20,5 26,6 0,0 0,0 0,0 0,1 -17,11 -27,2 -1,-1 -2,-2 -2,-3zm-441 7c-5,0 -14,-3 -16,-6l8 -4c5,-3 10,-4 16,-2 2,1 3,2 4,3l0 2c0,4 -8,8 -12,8zm194 -19c0,-2 0,-1 2,-2 0,0 1,-1 1,-1l1 -1c5,-4 10,-7 17,-7 6,0 8,2 12,4 2,-1 2,-2 5,-3 11,-4 22,1 28,9 9,-5 26,-6 30,4 2,5 1,11 -2,16l-5 9c-1,0 -3,-3 -7,0 0,-6 -3,-8 -9,-8 -2,0 -2,1 -4,2 0,-2 0,-3 -2,-4 -1,-1 -3,-1 -4,-2 -5,0 -6,3 -8,4 0,-4 -8,-10 -15,-1 0,0 0,0 0,0 0,0 0,0 0,0 -1,-9 -16,-8 -17,0 -2,-2 -4,-5 -7,-5 -4,0 -8,2 -8,6 -1,-1 -3,-4 -8,-4 -3,0 -6,2 -6,6 -3,-2 -1,-2 -6,-2 -2,0 -4,1 -5,2 -1,1 -2,3 -2,6 -3,-2 -4,-1 -7,0 0,-1 -1,-1 -1,-1l-3 -4c-4,-6 -6,-16 -2,-21 2,-2 3,-3 5,-4 4,-2 8,-1 12,-1 5,0 8,3 11,3zm-115 11l0 0zm359 1l-6 0c1,-1 2,-2 2,-5 2,0 2,1 4,1 0,3 -1,1 0,4zm-423 -4c2,0 3,-1 4,-1 0,2 1,4 2,5l-6 0c1,-1 1,-3 0,-4zm382 9c-4,0 -7,0 -10,-1 -7,-3 -5,-8 1,-11 3,-2 5,-2 9,-3 7,-1 14,4 18,4 0,2 -2,3 -3,4l-1 1c-3,3 -7,6 -13,6zm115 -1c-2,0 -8,-4 -8,-9 0,-2 1,-5 4,-5 3,0 5,2 7,3 0,0 -2,11 -3,11zm-207 24c1,-4 22,-19 25,-21 1,-1 2,-1 3,-2 1,-1 2,-1 3,-2 3,-2 13,-9 16,-10 0,2 0,3 0,9 -6,1 -18,10 -22,15 -1,1 -1,1 -2,2 -5,6 -1,5 -15,8 -2,1 -6,2 -8,2zm-267 -34c7,0 17,-10 29,1 7,5 -2,10 -8,10l-4 0c-8,0 -14,-6 -17,-11zm-101 0c0,0 0,0 0,0l1 -1c8,-7 13,3 7,9 -2,1 -3,2 -5,3 0,-2 -2,-9 -2,-11zm163 -1l13 8c11,7 23,16 33,25 1,1 2,2 2,3 -3,-2 -18,-3 -21,-7 -1,-1 -1,-2 -2,-3 -5,-5 -5,-6 -12,-11 -2,-1 -4,-3 -6,-4l-7 -3c0,-5 -1,-6 -1,-9zm403 4c-3,0 -6,1 -8,1 -11,3 -8,1 -13,1 0,-2 1,-2 3,-3 5,-4 12,-7 19,-4 0,2 0,2 0,4zm-80 8c-6,0 -6,-10 -3,-16 2,-5 6,-9 11,-12 0,8 4,14 -1,23 -1,2 -4,5 -6,5zm-69 -11l0 0zm-403 -1c5,-2 10,-1 15,1 2,1 6,3 6,6 -8,2 -6,1 -14,-1 -11,-3 -5,0 -7,-5zm71 -2c0,-5 1,-8 1,-14 18,12 13,28 8,28 -2,0 -3,-1 -4,-2 -3,-3 -6,-8 -6,-12zm426 0c1,-2 3,-2 3,-5 3,1 0,1 3,1l0 3 -7 0zm-449 -4c2,0 0,0 3,-1 0,1 1,2 1,3 1,1 1,1 2,2 -3,0 -2,0 -7,0l0 -3zm-16 9c-3,0 -5,0 -8,-1 -2,-1 -4,-2 -6,-3l0 -1c5,-1 8,-8 18,-8 7,0 13,5 4,10 -2,1 -5,2 -8,2zm-59 -8c0,-1 5,-6 9,8 3,9 4,22 -1,30 -3,0 -3,0 -5,-1 2,-10 2,-4 2,-17 0,-5 -2,-11 -4,-16 -1,-1 -2,-3 -2,-4zm599 21c0,11 2,14 2,15 0,2 -3,2 -5,2 -4,-8 -3,-24 0,-32 1,-3 4,-10 8,-6 1,1 0,1 0,2 -4,6 -6,12 -6,20zm-65 -22c1,-1 1,-2 3,-3 7,-3 14,0 19,4 2,1 2,2 4,2l0 1c-2,0 -1,0 -3,1 -7,3 -16,4 -22,-2 -2,-2 -1,-2 -2,-4zm-69 3c1,-2 1,-4 1,-7 3,1 1,1 5,1 0,3 0,2 1,4 -4,0 -5,1 -7,2zm-77 -2l0 0zm-171 0l1 1 -1 -1zm-83 -1l0 -2c4,0 2,0 5,-1 1,3 0,4 2,7 -3,-1 -3,-2 -8,-2 1,-2 1,-1 1,-2zm476 24c0,5 1,9 3,13 2,5 2,8 -3,8 -11,-21 0,-47 7,-47 5,0 0,7 -1,8 -1,2 -2,3 -3,6 -2,4 -3,8 -3,13zm-624 -24c0,-2 5,-6 10,9 4,10 4,27 -2,36l-3 0c-3,-3 -1,-5 1,-11 6,-20 -6,-29 -6,-34zm468 10c-6,0 -7,-10 -7,-15 0,-6 4,-16 8,-18 0,2 1,3 1,5 4,9 10,17 2,26 -1,1 -2,2 -4,2zm-305 0c-4,0 -7,-7 -7,-13 0,-4 2,-7 3,-10 1,-3 3,-6 3,-10l1 0c0,1 11,15 6,27 -1,2 -3,6 -6,6zm-68 -30c2,0 6,4 7,5 1,1 1,1 2,2 1,1 2,3 3,5 2,5 2,15 -3,15 -5,1 -11,-9 -10,-16 0,-3 1,-8 1,-12zm-18 15l0 0zm486 -1l0 -2c4,-3 7,-4 13,-2 6,2 8,6 12,6l-3 2c-6,3 -12,3 -17,0 -2,-1 -4,-3 -4,-5zm-520 3l0 -1c3,-1 13,-11 23,-6 8,5 -6,14 -19,8 -1,-1 -2,-1 -3,-1zm686 -4l-8 7c-9,7 -21,11 -33,13 -7,1 -22,2 -29,1 -5,-1 -10,0 -15,0 -5,-1 -10,0 -15,-1 4,-8 2,-10 16,-14 4,-1 8,-2 12,-3 15,-2 29,-1 43,-1 4,0 17,-1 21,-2 2,-1 4,-1 6,-2zm-826 0c2,0 3,1 6,2 10,2 19,1 28,1 8,0 22,0 29,1 12,2 12,1 25,5 1,0 4,2 5,2 2,1 5,7 6,10 -5,1 -25,1 -29,2 -3,0 -18,-1 -22,-1 -5,0 -15,-2 -20,-4 -9,-3 -18,-8 -25,-14 -1,-1 -3,-3 -4,-4zm826 0l0 0zm-224 11c-5,0 -15,-1 -17,-5 -4,-7 14,-12 24,-6 -2,3 -6,5 -7,11zm-386 -11c12,-6 32,1 22,8 -4,3 -10,3 -15,3 -2,-7 -5,-9 -7,-11zm-217 0l0 0zm657 1c-2,0 -4,0 -6,1 1,-2 3,-3 3,-6 2,1 1,1 4,1 -1,2 -1,1 -1,4zm-482 0c-2,0 -3,0 -6,0 0,-3 0,-2 -1,-4 3,0 3,0 4,-1 0,3 2,4 3,6zm0 -8c0,-8 1,-8 1,-15 5,3 11,10 11,16l0 4c0,5 -3,8 -7,5 -3,-2 -5,-7 -5,-10zm462 5c0,-10 4,-14 11,-19 0,8 4,16 -3,23 -1,1 -2,2 -4,2 -3,1 -5,-3 -5,-6zm-407 -9l0 -2c4,0 3,0 5,0 0,4 0,5 1,8 -2,0 -4,-2 -7,-2 0,-1 1,-1 1,-3zm182 6c-1,-1 0,0 -1,-1 0,0 -1,-1 -1,-1 -7,-4 -18,-2 -24,1 -3,1 -5,2 -6,5 -1,1 -1,1 -1,2 -2,0 -2,0 -4,-1 -11,-4 -25,-3 -30,7 -5,9 1,21 6,28 1,2 2,3 3,4l6 8c3,3 2,2 3,5 -3,0 -3,-1 -6,-5 -1,-1 -2,-2 -2,-3l-7 -9c-2,-2 -3,-4 -4,-6 -7,-11 -11,-20 -11,-34 0,-12 7,-20 15,-24 15,-7 20,-2 27,-2 4,-6 13,-10 20,-10 8,0 11,0 19,5l1 -1c10,-7 30,-5 38,7 5,-3 17,-2 24,0 10,4 19,12 19,24 0,15 -3,23 -11,36l-4 6c-2,2 -11,16 -13,16 0,0 -4,1 0,-4 7,-8 17,-22 17,-33 0,-6 -2,-10 -6,-13 -1,-1 -4,-3 -6,-3 -8,-3 -17,-1 -24,2 -5,-10 -20,-13 -31,-9 -2,1 -3,1 -4,2zm87 -6l0 1 0 -1zm-261 -1c0,-7 4,-11 4,-18 2,0 3,2 4,3l3 4c3,6 5,12 1,18 -5,10 -12,-1 -12,-7zm-99 7c-2,0 -4,0 -6,-1 -2,-1 -3,-1 -5,-2 0,-2 1,-1 3,-2 5,-3 5,-5 13,-5 3,0 4,1 6,2 0,2 0,3 -2,5 -2,2 -6,4 -9,4zm536 -7c0,-4 9,-4 12,-2 1,0 2,1 3,2 2,1 4,3 6,4 -2,2 -8,4 -11,4 -4,0 -11,-3 -11,-7zm-102 0c0,-6 5,-16 10,-18 0,6 4,10 4,19 0,5 -5,15 -10,9 -1,-1 -1,-2 -2,-3 -1,-2 -2,-5 -2,-7zm99 4l-8 0c1,-2 3,-3 3,-6 1,1 2,2 5,2 0,2 -1,2 0,4zm-519 -4c3,0 3,-1 5,-2 0,2 2,4 3,6l-8 0c1,-1 1,-3 0,-4zm443 4c-3,0 -5,1 -7,2 1,-6 1,-2 1,-9 2,1 2,1 5,1 -1,2 0,3 0,5zm38 8c0,8 -7,16 -11,14 -4,-2 -4,-13 -1,-16l4 -5c1,-1 1,-1 2,-2 2,-1 3,-3 6,-4 -1,2 1,10 1,14zm60 -15c2,0 3,0 5,-1 2,-1 3,-1 4,-3l26 14c4,2 15,6 19,6l0 0c-4,0 -10,2 -13,4 -1,-8 -11,-10 -15,0 -2,0 0,0 -2,-2 -2,-2 -6,-2 -8,0l-1 1c-2,2 -3,3 -4,6 -2,-1 -4,-3 -7,-3 -1,0 -4,1 -5,2 -1,1 -1,0 -1,1 -4,0 0,-2 -10,-2l2 -1c1,0 1,-1 2,-1 4,-2 12,-3 15,-3 -1,-2 -4,-3 -6,-3 -2,-1 -1,0 -3,-1 8,0 7,-6 19,-6l0 0c-3,0 -12,-3 -15,-5 -2,-1 -1,-1 -1,-2zm-579 7l0 0c11,0 11,6 19,6 -2,2 -3,0 -8,4l-1 1c1,0 4,0 6,1 4,0 11,2 14,5 -5,0 -5,0 -9,2 -6,-4 -7,-4 -13,0 -2,-4 -7,-11 -13,-7 -1,1 -1,1 -2,3 -2,-1 -4,-6 -8,-7 -2,0 -5,1 -6,2 -2,1 -2,3 -2,5 -2,0 -3,-2 -6,-3 -2,-1 -5,-2 -7,-2l0 0c6,0 19,-6 24,-8l20 -12c1,2 2,2 4,3 3,2 4,1 5,2 -3,4 -13,7 -17,7zm151 -8c1,1 1,1 2,2 10,8 21,9 31,15 3,2 6,5 9,8l25 29c1,2 10,10 9,12 -1,4 -8,-6 -15,-11l-21 -17c-5,-4 -12,-8 -18,-11 -7,-4 -4,-2 -7,-6 -1,-2 -5,-8 -7,-9 -1,3 -2,4 -2,7 -1,-1 -1,-4 -3,-8l-3 -8zm288 17c-1,-1 -1,-1 -2,-3 0,-1 -1,-3 -1,-4 -2,2 -5,6 -7,8 -4,5 -1,3 -8,7 -2,1 -3,2 -5,3 -2,1 -3,2 -5,3 -1,1 -2,1 -2,1 -1,0 0,0 -1,1 -10,7 -13,9 -23,17 -2,2 -15,15 -16,15 -4,0 3,-7 4,-8l8 -10c1,-1 1,-1 2,-2l16 -19c1,-2 3,-3 4,-4l5 -4c11,-8 21,-8 32,-16 1,-1 1,-1 3,-2 -2,3 -5,12 -5,17zm75 -17l0 0zm-363 0l0 0zm-70 0l0 0zm-36 -2c0,-8 1,-7 1,-14 2,1 6,4 7,6 6,9 3,22 -3,18 -3,-2 -5,-6 -5,-10zm448 12c-17,0 -7,-13 1,-13 10,0 11,2 16,2 -4,5 -10,11 -18,11zm-408 -11c5,0 6,-2 16,-2 9,0 19,13 1,13 -7,0 -15,-6 -18,-11zm457 10l-1 -1c-5,-6 -2,-17 6,-23 1,-1 1,-1 2,-1 0,8 4,14 -2,21 -1,2 -3,3 -6,3zm-28 -9c0,-1 1,-3 1,-3l9 -7c0,4 1,4 2,6l-4 6c-1,1 0,0 -1,1l0 -6c-2,0 -2,1 -4,2 -1,1 -2,1 -3,2zm-28 -4l0 0zm-405 4c-1,-1 -2,-1 -3,-2 -2,-1 -2,-1 -4,-2l0 7c-2,-1 0,-1 -2,-4 -1,-1 -2,-3 -3,-4 1,-2 2,-2 2,-5 2,1 5,5 9,6 0,1 1,2 1,4zm493 -2l-4 0c-3,-4 -1,-8 3,-10 2,1 8,5 10,6 -1,2 -6,3 -8,3zm-552 -10c4,2 4,4 4,8 -2,2 -1,1 -6,1 -4,0 -6,-2 -8,-3 1,-2 0,-1 2,-2 1,-1 2,-1 3,-2 2,-1 3,-2 5,-3zm536 13c-4,0 -6,-9 0,-17 1,-1 1,-1 1,-2 1,-1 2,-2 3,-3 0,4 2,5 2,11 0,3 -4,10 -7,10zm-71 -5c1,-3 1,-3 1,-7 2,1 2,1 6,1 0,2 1,2 1,3 -4,0 -6,2 -9,2zm-385 -6c3,0 3,-1 6,-1 0,5 1,5 2,8 -3,-1 -5,-3 -9,-3 1,-1 1,-2 1,-3zm-71 1c0,-4 2,-7 2,-11 13,7 8,30 0,17 -1,-2 -2,-4 -2,-6zm86 8c-7,0 -8,-11 -4,-20 1,-1 1,-2 2,-4 1,-2 1,-2 1,-5 1,0 1,0 3,2 9,12 2,26 -2,26zm356 -13c0,-3 1,-6 2,-9 1,-1 1,-2 2,-3 1,-2 2,-2 2,-3l1 0c0,5 6,9 6,19 0,4 -2,10 -6,10 -5,0 -7,-8 -7,-13zm25 3c0,-5 7,-10 18,-5 2,1 5,2 7,2 -2,2 -2,3 -5,5 -2,1 -5,3 -7,3 -4,1 -14,0 -14,-5zm-425 -3c6,0 14,-7 22,-2 8,6 -1,11 -10,9 -4,-1 -7,-3 -9,-5 -1,-1 -2,-2 -2,-3zm-44 -2c0,2 -1,3 -1,5 -1,-1 -2,-2 -3,-2 1,-1 2,-2 4,-3zm538 0c2,0 3,2 4,3 -1,0 -2,1 -3,2 0,-2 -1,-3 -1,-5zm-538 0l0 0zm508 10l0 -6c-2,1 -7,5 -8,6 -3,-5 -3,-11 4,-11 4,0 8,0 12,0 -1,1 -2,1 -5,5 -1,1 -1,2 -2,3l-2 4zm-487 -11c4,0 8,0 11,0 8,0 8,6 5,11 -2,-1 -6,-5 -8,-6l0 5c0,0 0,0 0,0 0,0 0,0 0,0 0,0 0,-1 0,-1 -2,-5 -3,-6 -7,-9zm503 4c-1,-1 -1,0 -1,-4 0,-2 3,-3 4,-6 1,1 2,1 3,1 0,2 0,1 -1,2 -2,2 -4,4 -4,6zm-517 -8c1,0 2,-1 3,-1 0,2 0,1 1,2 3,4 3,1 3,7 -2,-1 -1,-3 -5,-6 -3,-2 -1,-1 -2,-2zm392 0l0 0zm-261 0l0 0zm326 9c-4,0 -6,-7 -6,-11 0,-5 4,-12 7,-14 0,3 1,5 3,7 3,5 4,7 1,14 -1,2 -2,4 -4,4zm-391 -26c9,6 8,26 1,26 -3,0 -7,-8 -6,-12 1,-6 5,-8 5,-14zm-59 14c1,-1 3,-2 6,-4 6,-4 6,-5 9,-1 1,1 2,2 3,3 2,2 3,4 5,7 -2,0 -2,0 -3,0 -5,0 -6,1 -11,0 -4,0 -6,-1 -8,-4zm491 4c-2,0 -1,0 -3,0 1,-4 8,-10 10,-12 2,1 4,3 6,4 2,1 5,3 7,3 -4,6 -14,4 -19,4zm148 -13l-1 1 1 -1zm-769 0l1 0 -1 0zm202 -1l1 1 -1 -1zm-58 0l7 -5c4,7 5,10 12,15 1,1 4,3 5,4 -2,0 -3,1 -5,2 -2,1 -3,1 -5,2 -1,-2 -2,-3 -3,-4l-7 -9c-1,-2 -3,-2 -4,-4zm467 17c-4,0 -7,-3 -10,-3 1,-2 14,-10 16,-19 1,1 2,1 4,2 1,1 3,2 4,2l-5 6c-1,1 -1,1 -2,2 -1,1 -2,3 -3,4 -1,1 -3,4 -3,5zm-394 -22l4 5c5,5 9,9 15,12 15,8 36,9 50,22 5,5 13,15 13,23l-8 -9c-1,-1 -1,-1 -1,-2 -1,-1 -1,-1 -2,-2 -10,-10 -15,-13 -30,-18l-18 -6c3,5 21,12 26,15 4,2 6,3 10,6 1,1 2,1 3,2 1,1 2,2 3,2l12 14c5,7 10,14 15,22l14 17c1,1 1,1 1,3 -3,0 -3,-1 -4,-2l-22 -25c-1,-1 -2,-2 -3,-4l-9 -11c-1,-1 -2,-2 -3,-3l-2 -2c0,0 -1,-1 -1,-1 -2,-3 -5,-4 -8,-6 -11,-7 -14,-3 -35,-18 -3,-3 -6,-5 -8,-8 -5,-6 -6,-9 -8,-15 -1,-2 -3,-8 -3,-11zm541 6c-8,0 -11,-3 -17,-3 6,-8 13,2 24,-3 0,4 -5,6 -7,6zm-754 -6c9,4 17,-4 23,1l1 1c-3,0 -5,1 -8,1 -7,1 -13,4 -16,-4zm588 16c-5,0 1,-10 2,-11 2,-4 8,-10 12,-10 2,0 7,3 7,4 0,6 -12,17 -21,17zm-123 47c0,-8 7,-18 12,-24 2,-2 3,-3 5,-4 8,-6 16,-8 25,-11 7,-2 13,-4 20,-7 4,-2 10,-7 13,-10l5 -6c1,-1 0,-1 1,-1 -3,6 -1,14 -12,27 -4,5 -10,9 -15,12 -14,9 -20,8 -28,13 -10,7 -16,15 -23,24 -1,1 -2,3 -3,4 -1,1 -2,2 -3,4l-20 23c-1,1 0,1 -3,1 0,-3 0,-2 4,-6 5,-5 14,-18 18,-24l6 -9c1,-1 1,-2 2,-3 10,-13 15,-17 28,-24 5,-2 10,-4 14,-7 2,-1 12,-6 12,-9 -3,2 -14,5 -18,6 -8,3 -14,5 -21,9 -1,1 -3,2 -4,3l-17 19zm-252 -63l0 0zm-40 16c-4,0 -6,-1 -9,-3 -1,-1 -2,-1 -3,-2l-8 -9c-2,-4 -2,-5 2,-7 3,-1 3,-2 8,0 5,3 11,11 12,16 0,1 0,3 -2,3zm563 -19c1,-2 0,-3 0,-6l5 0c0,2 0,2 0,3 -2,1 -3,1 -6,2zm-8 -20c0,2 2,6 3,8 3,10 2,9 1,15 -2,-1 -3,-1 -5,-2 -2,-1 -4,-2 -5,-2 0,-4 1,-8 2,-11l3 -6c1,-1 1,-1 2,-1zm-700 22c-1,-5 -3,-5 1,-14 1,-2 1,-3 2,-4 1,-1 1,-3 1,-4 0,0 0,0 0,0l2 3c3,4 4,9 4,15 -2,0 -3,1 -5,2 -2,1 -4,1 -6,2zm-10 -6l0 -2 5 0c0,3 0,4 0,6 -2,0 -4,-1 -6,-2 0,-1 0,-1 0,-1zm144 -2c13,-6 19,3 19,6 0,2 -2,8 -5,10 -3,-6 -5,-8 -10,-12l-4 -4zm420 16c-2,-2 -5,-8 -4,-11 1,-2 2,-4 3,-5 6,-5 12,-1 15,0l-8 7c-1,1 -2,3 -3,4 -1,1 -2,4 -3,5zm-16 3l-1 0c0,-2 -1,-5 -2,-8l-2 2c1,-4 6,-11 12,-14 2,-1 4,-2 7,-2l-4 5c-2,3 -10,8 -10,17zm-369 -7c-1,0 -1,0 -1,0l-2 7c0,1 0,0 -1,1 -2,-7 -3,-10 -8,-14 -2,-1 -2,-3 -4,-5 -1,-1 -1,-1 -2,-3 8,0 17,8 18,14zm62 1l13 21c-5,0 -13,-7 -17,-11 -4,-4 -9,-12 -11,-18 -2,-7 -2,-9 -2,-17l12 10c1,1 3,2 4,3 1,1 3,2 4,3 1,1 3,2 4,3 11,9 18,21 23,35 1,4 3,7 4,11l-12 -13c0,0 -1,-1 -1,-2 -4,-7 -5,-10 -11,-17 -2,-2 -8,-8 -10,-8zm495 -8c-3,0 -6,0 -8,-2 -4,-5 5,-10 9,-10 10,0 9,2 15,2 -3,5 -10,10 -16,10zm-765 -10c6,0 7,-2 15,-2 4,0 10,4 10,8 0,5 -16,8 -26,-6zm511 17c-2,1 -8,6 -10,8 -2,2 -3,3 -4,5 -1,1 -1,2 -2,3 -4,6 -4,11 -9,15l-9 10c0,-7 10,-27 16,-34 12,-15 24,-19 33,-28 1,-1 1,-1 2,-2 0,12 -4,22 -9,29 -4,6 -16,16 -22,16l14 -22zm56 3c0,-10 0,-14 9,-21 2,-1 3,-2 5,-3l37 -18c1,0 2,-1 3,-1 14,-7 22,-10 38,-2l44 24c11,5 19,10 30,15 14,6 38,14 53,5 2,-1 2,-2 4,-3 -2,8 -5,12 -10,18l-5 5c-7,7 -11,11 -19,17 -16,11 -24,11 -43,4l-29 -15 -29 -18c-1,-1 -1,-1 -2,-1 -1,-1 -3,-2 -4,-3 -6,-4 -21,-13 -27,-17 -1,-1 -3,-1 -4,-2 -4,-2 -15,-7 -19,-7 -10,0 -15,1 -23,7 -2,2 -4,4 -5,7 -1,1 -1,3 -2,4 -1,1 -1,1 -1,2l-1 2c0,0 0,0 0,0 0,0 0,0 0,0zm-520 45c-6,0 -11,-2 -16,-5l-6 -4c0,0 0,0 0,0l-21 -19 -6 -7c-2,-4 -6,-9 -6,-14 3,3 4,3 8,5 15,6 36,-2 47,-7l42 -21c1,-1 2,-1 4,-2 8,-5 22,-13 29,-16 20,-10 28,-4 43,4 1,1 2,1 3,1l10 5c2,1 3,2 5,3l13 6c1,0 2,1 3,1 9,4 16,11 16,22 0,2 0,2 0,3 -1,-1 -3,-7 -4,-8 -2,-3 -3,-5 -6,-7 -6,-6 -13,-7 -22,-7 -8,0 -19,7 -27,11 -3,2 -5,3 -8,5 -3,2 -5,3 -8,5 -1,1 -2,2 -4,2l-12 8c-3,2 -5,3 -8,5 -5,3 -10,7 -15,10 -15,9 -36,22 -54,22zm712 -69l0 0zm-31 10c-5,-1 -10,-4 -14,-6 3,-4 8,-4 12,-4 2,0 2,0 5,0 -1,3 -2,6 -2,10zm-677 -10c2,0 2,0 5,0 2,0 3,0 5,0 3,1 5,1 7,4 -5,3 -8,5 -14,6 0,-3 -1,-8 -2,-10zm708 0c0,-2 0,-3 0,-5 3,1 2,1 5,0l0 3c-2,1 -4,1 -6,2zm-48 2l-2 -1c1,-4 1,-1 1,-7 2,0 3,0 5,0 0,1 0,1 1,2l2 1c-2,0 -3,1 -4,1 -2,1 -1,2 -3,3zm-644 -8c3,0 3,0 5,0 0,4 0,5 1,7 -1,0 -1,1 -3,1 -1,-2 -3,-4 -6,-4 1,-2 2,-1 2,-3zm-49 0c2,1 3,0 5,0 0,2 0,4 1,5l-6 -2c0,-1 0,-1 0,-3zm758 26c2,-2 4,-1 12,-9 1,-1 1,-1 2,-2 1,-1 1,-1 2,-2 1,-1 1,-1 2,-2 -8,2 -15,9 -19,12 0,-2 0,0 0,-1 2,-6 2,-1 6,-7 1,-2 2,-3 3,-4 1,-1 1,-1 2,-2 5,-6 11,-7 19,-7 3,0 5,1 7,1 -1,1 -6,3 -9,6l-1 0c0,0 0,0 0,0l-10 8c-4,4 -12,9 -18,10zm-769 0c-8,0 -21,-13 -27,-17l-11 -7c2,0 4,-1 7,-1 20,0 19,9 27,15 0,0 2,1 2,2 4,2 1,0 3,4 -2,-1 -11,-9 -19,-11 1,1 1,1 2,2l5 4c8,8 10,8 12,9zm744 -16c-8,0 -8,-20 0,-26 0,4 4,8 5,14 0,3 0,4 -1,7 -1,2 -3,5 -4,5zm-720 0c-4,0 -8,-9 -4,-18 1,-1 1,-2 1,-3 1,-1 1,-2 1,-4 4,1 6,9 7,13 1,4 -2,13 -6,13zm765 -12l-1 1 1 -1zm-100 0c0,-19 11,-5 11,4 0,2 0,2 0,3 -2,0 -8,-5 -11,-6l0 -1zm-620 7c-3,-7 5,-17 7,-17 4,0 4,7 4,10l-8 5c-1,1 -1,1 -3,1zm-90 -7l1 0 -1 0zm4 -3c5,0 10,-2 14,-2 3,0 7,2 8,4 4,6 -4,7 -7,7 -6,0 -10,-3 -14,-7 -2,-2 -1,-2 -1,-2zm788 10c-13,0 -10,-9 1,-11 5,-1 9,2 15,2l-3 3c-1,1 -1,1 -2,1 -1,1 -1,1 -2,1 -2,2 -6,3 -9,3zm-51 -3c-3,0 -5,0 -8,-1 0,-5 6,-9 10,-9 4,0 7,0 11,0 -1,5 -7,10 -13,10zm-682 -10c8,0 12,-2 17,2 1,1 1,1 2,2 2,2 2,3 2,5 -5,3 -11,2 -16,-1 -3,-2 -3,-4 -5,-7zm647 -2c4,0 2,2 2,7 -2,0 -3,-1 -4,-2 -1,-1 -3,-2 -4,-2 1,-1 5,-2 7,-2zm-601 7c0,-4 -1,-3 0,-7 2,0 4,0 5,0 2,0 3,0 4,2 -2,1 -6,4 -9,5zm-76 -8c0,-4 2,-8 3,-11 1,-1 1,-2 1,-4 2,1 3,3 4,5 2,5 3,10 0,15 -2,3 -1,2 -4,4 -2,-1 -3,-1 -4,-3 -1,-1 -2,-4 -2,-6zm759 2l0 -5c1,1 1,0 3,0 2,0 0,0 1,0 0,2 0,2 0,4 -2,0 -3,1 -5,1zm-14 -4c0,-5 3,-12 6,-14 0,4 11,18 0,24 -2,-1 -3,-1 -4,-4 -1,-2 -2,-4 -2,-7zm-752 -1c1,1 1,0 3,0 2,0 0,0 1,0l0 5c-1,-1 -3,-1 -5,-1 1,-1 0,-2 0,-4zm700 2c0,-1 9,-5 9,-5 1,0 3,6 3,7 0,6 -4,10 -9,4 -1,-1 -3,-5 -3,-6zm-637 9c-4,0 -4,-8 -3,-11 1,-2 1,-1 1,-3 2,0 8,3 10,4 0,4 -4,10 -8,10zm721 -7c-16,0 -10,-10 1,-10 5,0 9,2 14,2 -1,2 -4,4 -6,5 -2,1 -7,3 -9,3zm-813 -8c6,0 15,-4 21,0 8,5 1,8 -3,8 -5,0 -4,0 -8,-1 -4,-1 -8,-3 -10,-7zm854 0l0 0zm-880 0l0 0zm831 -3l0 0zm-782 0l0 0zm740 7l0 3c-4,0 -5,-1 -8,-1 1,-1 2,-1 3,-2 3,-3 5,-5 6,-9 2,3 -1,3 -1,10zm-700 -10l1 0c0,3 4,7 6,9 1,1 2,2 3,2 -3,0 -4,1 -8,1 0,-4 0,-5 -1,-9 -1,-3 -1,-1 -1,-4zm741 2c0,-2 0,-3 0,-6 1,1 2,0 4,0 0,2 0,2 1,4 -2,0 -3,1 -5,1zm-109 -1c0,-2 1,-2 1,-4l1 0c0,1 0,1 1,2 -1,1 -2,2 -3,2zm-565 -4c0,2 1,3 1,4 -1,0 -2,-1 -3,-1l2 -3zm25 1l0 0zm-104 -5c2,1 4,4 6,6 3,5 5,7 3,13 -2,0 -2,-1 -3,-4 -4,-6 -6,-7 -6,-15zm-22 13c-3,0 -5,-5 -5,-9 0,-6 4,-10 5,-15 4,3 8,12 4,20 0,1 -1,2 -2,2 0,0 -2,2 -2,2zm761 -10c0,-4 3,-11 6,-13 0,4 8,12 4,20 -4,8 -9,-1 -9,-7zm-769 6c-2,0 -3,-1 -5,-1 1,-2 0,-3 1,-3 1,-1 2,0 4,-1 -1,3 0,2 0,6zm744 10c-5,-3 2,-14 5,-16 2,-2 2,-3 3,-3 0,4 1,5 -3,11 -2,3 -5,7 -6,9zm53 -13c-3,0 -6,-1 -8,-3 0,0 0,0 0,0 2,-9 14,-5 17,-4 2,0 2,0 3,1 -1,2 -3,3 -5,5 -2,1 -5,3 -7,3zm-826 -7c3,-1 9,-2 12,-2 10,1 12,9 2,9 -5,0 -11,-3 -13,-7zm82 -2l0 0zm672 19c-2,0 -3,0 -4,-1 -2,-2 -1,-4 0,-7 1,-1 1,-2 2,-3 4,-5 11,-10 17,-11 0,9 -9,21 -15,21zm-686 -21c6,1 20,9 20,18 0,5 -7,7 -15,-4 -2,-3 -5,-9 -5,-13zm646 23c1,-1 3,-3 5,-4l8 -5c1,-1 2,-1 3,-1 1,-1 1,-1 3,-2 1,0 1,0 2,-1l1 -1c-5,0 -18,6 -23,10l-7 5c-2,-1 -4,-2 -6,-4 3,-5 18,-11 24,-13 8,-3 20,-4 29,-8 0,6 -10,14 -14,17 -3,2 -7,3 -11,5l-13 3zm-630 -24c8,4 23,6 35,11l13 6c1,1 2,1 3,2 1,1 1,1 2,3l-6 3c-1,-1 -2,-1 -3,-2 -1,-1 -2,-1 -3,-2 -6,-4 -17,-10 -23,-10 1,1 14,8 16,10l5 4c-2,0 -4,-1 -7,-1 -6,-1 -12,-3 -17,-6 -6,-4 -6,-5 -10,-9 -2,-2 -4,-5 -4,-8zm701 13c-3,-7 -1,-17 6,-21 0,3 4,7 -1,15 -1,2 -3,5 -5,6zm-656 -3c-3,-1 -7,-3 -10,-4 0,-6 2,-8 6,-12 2,-2 3,-3 5,-5l4 -5c0,5 1,3 1,13 0,5 -3,10 -6,12zm592 -10c3,0 3,0 5,-1 0,4 2,2 2,4 -3,0 -3,1 -6,1 0,-2 -1,-3 -1,-5zm-605 5c-3,0 -4,-1 -7,-1l0 -1c2,0 2,-1 2,-3 2,0 3,0 5,0 -1,2 -1,2 -1,5zm587 -8l1 -7c0,-2 1,-3 1,-5l9 10c3,4 5,5 5,12 -1,0 -4,1 -5,2 -2,1 -3,1 -5,2 -4,-2 -6,-9 -6,-13zm-655 -5c1,2 7,7 6,14 0,3 -1,4 -1,6 -1,0 -3,-3 -4,-4 -1,-1 -1,-2 -1,-2 -3,-5 -3,-13 0,-15zm-23 15c-5,0 -5,-8 -3,-14l3 -6c2,1 2,2 3,4 4,8 -1,16 -3,16zm48 -9l0 0zm740 -11c0,1 1,2 1,2 1,3 2,4 3,8 1,6 -4,14 -8,6 -1,-1 -1,-4 -1,-6 0,-4 2,-9 5,-10zm27 10l0 0zm-84 6c1,-6 2,-9 7,-9 0,1 -1,5 -2,6l-5 3zm-673 0c-4,-1 -7,-4 -7,-9 5,0 6,3 7,9zm678 -11l0 0zm-682 0l0 0zm718 8c0,-2 -1,-6 -2,-8 -1,-3 -2,-1 0,-6 2,1 3,1 5,2 2,0 4,1 6,1 -1,1 -3,2 -5,5 -3,3 -3,4 -4,6zm-763 -11c2,0 4,-1 6,-1 2,0 3,-1 5,-2 0,1 1,2 2,3 0,3 -3,1 -3,11l-2 -3c-1,-1 -1,-2 -2,-3 -1,-1 -2,-2 -3,-3l-3 -2zm836 -2l0 1 0 -1zm0 0l0 0zm-900 -1l0 0c0,0 0,0 0,0zm858 14c-3,0 -3,-1 -5,-2 0,-5 1,-7 6,-11 5,-3 7,-4 14,-4 0,7 -9,17 -15,17zm-89 1c-15,0 -5,-11 3,-14 6,-2 9,-1 14,-1 2,0 2,0 5,0 -2,5 -5,7 -8,11 -3,2 -8,6 -13,6zm-659 -16c2,0 2,0 5,0 2,0 4,0 5,0 4,0 6,0 9,1 5,2 10,6 10,12 -9,6 -22,-2 -28,-11 -1,-1 -1,-2 -2,-3zm693 27c0,-4 -1,-8 1,-10 1,-1 2,-2 3,-3l8 -10c2,-2 4,-6 6,-6 0,1 1,2 1,3l-5 7c-2,2 -3,4 -5,7 -2,2 -3,4 -5,6l-5 7zm-724 -30c2,1 9,10 11,12l4 5c1,1 1,1 2,2 2,2 3,6 3,9 0,2 0,0 0,1 -1,-1 -2,-2 -3,-3 -1,-1 -2,-2 -2,-3l-15 -20c1,-1 1,-2 1,-3zm-52 2c5,0 8,0 12,3 1,1 2,1 3,2 2,1 4,3 5,5 2,4 0,5 -1,7 -6,0 -8,-1 -13,-6 -3,-3 -5,-6 -5,-11zm112 5c-3,-2 0,-1 -6,-4 1,-1 0,0 1,-1l2 -3c3,0 0,1 4,0l0 8zm623 -8l4 0c0,1 0,1 1,2l2 2c-3,1 -4,3 -7,4 0,-1 1,-4 0,-8zm35 19c2,-7 2,-6 8,-12 1,-2 3,-3 5,-5 1,-1 0,-1 1,-1 0,-1 1,-1 1,-1 1,-1 2,-2 2,-3 1,1 1,1 2,2l1 1c1,1 0,0 1,1 0,1 -3,3 -4,6l-10 11c-2,2 -2,1 -7,4zm-692 0l-5 -2c-2,-1 0,0 -2,-1l-12 -13c-1,-1 -2,-1 -2,-3 2,0 3,-1 4,-3 1,1 2,1 2,2l5 5c2,2 8,9 9,11 1,1 1,3 1,4zm764 -19l0 0zm-722 16c-5,0 -5,-9 -2,-15 3,-6 7,-9 12,-14 1,-1 0,-1 1,-1 0,5 1,2 1,11 0,8 -7,18 -12,18zm-114 -16l0 0zm710 -3c0,-4 0,-7 1,-10l9 9c11,11 6,28 -5,17 -3,-3 -6,-9 -6,-16zm-579 1l0 0zm708 20c0,-2 2,-3 2,-4 4,-7 9,-13 17,-16 4,-1 7,-1 12,-1 -1,3 -7,11 -10,14l-5 5c-4,4 -10,6 -15,6 4,-3 4,-1 12,-10 1,-1 2,-2 2,-2 2,-2 3,-3 4,-5 -11,3 -16,10 -21,13zm-873 -21c13,0 21,3 27,13l4 6c1,1 1,1 2,2 -2,0 -8,-6 -10,-8 -4,-3 -7,-4 -12,-6l11 11 7 5c0,0 0,0 0,0 1,1 0,0 1,1 -4,0 -8,-1 -11,-3 -2,-1 -3,-2 -4,-3l-5 -5c-1,-1 -1,-1 -2,-2 -1,-1 -1,-1 -1,-2 -1,-1 -1,-1 -2,-2l-6 -9zm838 10c-19,0 -10,-19 11,-13 2,1 5,2 8,2 0,2 -2,3 -3,4 -4,4 -10,7 -16,7zm-789 -11c6,0 8,-3 17,-3 7,0 18,7 10,12 -6,4 -14,2 -19,-2 -2,-1 -3,-2 -4,-3 -2,-1 -3,-2 -3,-4zm804 19c0,-2 -2,-4 -3,-8 4,-2 6,-3 9,-6l6 -6c1,-1 1,-1 1,-2 -2,0 -2,0 -8,0l8 -4 10 2 -4 5c-1,1 -1,1 -1,1l-6 6c-1,1 -6,3 -9,8 -1,2 -1,3 -2,4zm-823 -24c1,0 4,-1 5,-1 6,-1 5,-2 11,2l2 1c-5,0 -5,0 -8,0 1,2 2,3 3,4 1,2 2,3 4,4 4,3 5,4 9,6 0,2 -1,4 -2,6 -1,2 1,0 -1,2 -1,-2 -3,-6 -5,-7l-1 -1c-5,-4 -2,0 -11,-9 -1,-1 -1,-2 -3,-3 -1,-1 -2,-2 -3,-3zm786 -5c0,-6 1,-10 4,-15l3 -3c1,6 10,15 6,25 -5,11 -12,1 -12,-8zm-37 17c-14,0 -5,-16 12,-16 3,0 3,0 5,0 2,0 3,0 5,0 -1,2 -3,4 -4,6 -3,3 -7,7 -11,8 -2,1 -6,2 -8,2zm-674 -16c2,0 3,1 5,0 5,0 11,-1 18,2 9,6 10,13 1,13 -10,0 -19,-8 -23,-16zm-21 11c-6,0 -7,-8 -7,-13 0,-5 6,-14 7,-17 5,4 10,19 3,28 0,1 -2,2 -3,2zm-10 -8c-2,-1 -2,-1 -6,-1 1,-2 1,-2 1,-4l4 0c-1,6 0,2 0,6zm759 -6l5 0c0,3 0,2 1,4 -3,0 -3,1 -6,1 0,-2 1,-3 0,-6zm-692 12c-2,0 -3,0 -4,-2 -3,-7 1,-12 5,-17l9 -8c2,7 3,15 -2,22 -2,2 -5,6 -8,6zm632 -16c5,1 2,0 6,0 0,2 0,1 1,3 1,1 0,0 1,1 -1,0 0,-1 -2,0l-5 4c0,-2 0,-2 -1,-4l-1 -4zm-18 -2c0,-5 1,-6 1,-10l1 0c0,2 3,4 4,5 1,1 1,1 2,2 6,6 10,13 5,21 -5,0 -7,-1 -11,-6 -2,-3 -3,-7 -3,-12zm-622 10c-3,-2 -3,-2 -7,-4 1,-2 2,-1 2,-3 4,0 2,1 7,0 -1,1 -2,6 -2,8zm45 -11c2,1 7,9 9,11 2,3 5,10 6,14 2,9 1,18 -1,27 -1,3 -1,6 -4,6 -1,-8 0,-2 0,-9l0 -9c0,-2 -1,-10 -2,-12 -1,-2 -1,-2 -1,-4 -2,1 0,3 -1,9 -4,23 0,19 0,27l-7 3c-1,-1 -1,-5 -2,-7 -4,-18 1,-26 4,-39 2,-8 0,-12 0,-17zm-142 22c-2,0 -3,0 -5,-1 -10,0 0,2 -13,-4 -7,-3 -13,-3 -20,-3 0,-1 0,-1 -1,-2l-3 -7c-1,-3 -2,-8 -1,-12 1,-2 1,-3 3,-3 5,0 16,9 19,12l7 6c3,3 11,9 13,12zm3 -21c6,-1 12,-6 21,-2 7,3 9,12 -5,12 -4,0 -8,-2 -10,-3l-5 -5c-2,-2 -1,-2 -1,-2zm813 10c-8,0 -13,-4 -9,-9 8,-9 21,-2 26,-1 -3,4 -10,10 -17,10zm20 11c2,-3 5,-4 6,-6l12 -11c1,-1 1,-1 2,-2 7,-5 8,-6 15,-10 3,-2 7,-3 8,1 2,6 -1,15 -4,20 -4,-1 -7,-1 -12,0 0,0 -3,0 -4,1l-9 4c-6,4 0,2 -8,2 -3,0 -3,1 -6,1zm-143 -15c0,6 0,10 2,16 3,9 5,18 3,27 -1,4 -2,10 -3,13 -1,-1 -6,-2 -7,-3 3,-13 3,-11 1,-25 -1,-4 -1,-6 -1,-11 -7,4 -2,27 -4,34 -4,0 -4,-2 -5,-9 -2,-9 -2,-11 -1,-19 0,-5 3,-11 5,-15 1,-2 1,-2 2,-4 1,-1 1,-1 1,-2 1,-1 1,-1 1,-2l6 -7c-1,2 -1,5 -1,8zm-551 -8l0 0zm652 -9c0,-7 3,-15 7,-18 0,6 9,13 6,23 -1,3 -4,8 -8,6 -2,-1 -5,-7 -5,-11zm-758 12c-2,0 -3,-2 -4,-3 -6,-11 4,-21 4,-26 2,1 4,4 5,6 3,5 3,12 1,18 -1,2 -4,6 -5,6zm-10 -6c-2,-1 -5,-2 -7,-2l1 -5c3,0 3,0 6,-1 0,2 -1,2 0,4 0,1 0,2 0,4zm785 -8c2,1 3,1 6,1 0,3 0,3 1,5 -2,0 -6,1 -8,2 0,-3 1,-5 0,-8zm-59 15c-3,0 -4,-1 -6,-2 0,-3 0,-5 4,-8 4,-3 9,-5 15,-5l10 0c-1,3 -6,8 -8,10 -1,1 -4,3 -6,4 -2,1 -6,2 -8,2zm-689 -16c3,0 3,0 6,0 6,0 13,0 19,6 10,10 -5,13 -16,4 -4,-3 -6,-7 -8,-11zm795 73l15 -30c1,-2 1,-3 2,-5 5,-11 8,-17 10,-29 1,-5 0,-7 -3,-9 0,0 0,0 0,0 2,0 4,-1 6,-2 3,0 5,0 6,1 7,5 -1,24 -4,31 -1,1 -1,2 -1,3 -3,7 -14,24 -19,30 -3,3 -7,8 -10,11zm-880 0c-2,0 -2,-2 -4,-4 -14,-14 -29,-39 -33,-57 -1,-5 -2,-10 2,-13 0,0 0,0 1,-1 4,-2 8,0 12,1 -1,1 -2,2 -3,3 -3,8 7,32 11,40 1,2 1,3 2,4l13 26zm854 -66l-4 0c-6,0 -12,-6 -3,-10 10,-6 16,1 23,1 -1,2 -4,5 -6,6 -2,1 -6,3 -9,3zm-735 5l-3 0c-2,-4 -2,-4 -2,-9 0,-7 6,-11 10,-14 2,-1 3,-3 4,-4 2,5 2,16 -2,20 -2,2 -2,3 -5,5 -1,1 -1,1 -3,1zm-107 -15c5,0 17,-8 25,1 6,6 -2,9 -6,9 -8,0 -10,-1 -17,-6 -2,-1 -2,-2 -3,-3zm740 -3c0,-4 1,-6 1,-9l1 0c0,1 1,2 2,3 1,1 2,1 3,2 2,2 4,3 5,5 3,5 4,11 1,16 -5,0 -8,-1 -10,-6 -2,-3 -3,-7 -3,-12zm17 2c3,0 4,-1 6,-1 0,3 1,3 1,5 -3,1 -4,2 -6,3 0,-2 -1,-5 -2,-7zm-657 7c-2,-1 -3,-3 -6,-3 1,-2 1,-2 1,-5 1,0 1,1 3,1 1,0 2,0 3,0 -1,1 -2,5 -2,7zm800 -9c-7,0 -20,7 -26,11 -2,1 -3,3 -5,4l-7 6c-1,1 -1,1 -3,2 -8,8 -4,3 -14,3l13 -13c-2,0 -3,1 -5,1 1,-1 1,-1 2,-2 3,-2 8,-6 10,-9 1,-1 1,-1 2,-2 1,-1 1,-1 1,-3l-5 0c1,-1 0,0 1,-1l3 -2c9,-6 2,-7 13,-5 2,1 17,5 19,7l1 0zm-893 15c-2,0 -3,-1 -5,-1 2,3 4,5 6,7 1,1 2,2 3,3 1,1 3,2 4,3 -11,0 -6,5 -14,-3l-5 -5c-6,-6 -14,-11 -22,-15 -6,-3 -12,-4 -14,-5 2,-1 4,-2 6,-2 4,-2 8,-3 13,-5 3,-1 5,-1 7,-2 1,2 6,6 9,8l2 1 -5 0c1,2 2,3 3,4 1,1 2,2 4,4l9 7zm813 -21c0,-4 0,-7 2,-10 1,-2 3,-6 5,-6 0,5 9,15 4,24 -1,2 -3,4 -5,3 -3,-1 -6,-7 -6,-11zm-787 11c-4,0 -6,-6 -6,-11 0,-7 5,-11 6,-17 4,4 5,8 6,14 1,7 -4,14 -6,14zm-10 -10c0,2 0,1 0,3 -2,-1 -3,-1 -6,-1l0 -5c4,0 3,0 6,0 0,2 0,2 0,3zm813 -3c3,1 2,0 6,0 0,3 0,3 1,5 -3,0 -5,0 -7,1 0,-1 1,-4 0,-7zm-69 10c0,-4 5,-8 8,-9 2,-1 5,-2 7,-2 1,0 3,0 4,0 2,0 2,0 4,0 -1,5 -9,13 -17,14 -2,0 -7,0 -7,-3zm-698 -11l8 0c2,0 6,1 7,2 5,2 9,5 9,11 -7,5 -15,-1 -20,-6l-3 -4c0,-1 0,-1 -1,-2zm786 8c-2,0 -6,-1 -8,-2 -1,0 0,0 -1,-1 -1,-1 -1,1 -1,-1 0,-5 7,-6 11,-6 5,0 8,3 13,3 -1,4 -10,8 -15,8zm-53 -7l0 0zm-812 -1c5,0 5,-3 16,-3 9,0 14,11 -1,11 -3,0 -6,-1 -9,-3 -3,-2 -5,-3 -6,-5zm776 -2c2,0 4,0 6,0l2 2c-4,1 -5,4 -7,5 0,-3 0,-5 0,-7zm-672 6c0,1 0,1 0,2 -2,-1 -4,-5 -8,-6l2 -2c1,1 4,0 6,0 0,1 -1,4 -1,6zm672 -6l0 0zm-22 0l0 0zm46 0l0 0zm-46 0l0 0 0 0zm-627 0l0 0zm-47 0l0 0zm673 0l0 0 0 0zm-626 0l0 0 0 0zm-16 12l-2 0c-5,-8 1,-14 6,-19 1,-1 1,-1 2,-2 1,-1 0,-1 2,-2 4,9 -2,23 -8,23zm689 -12l7 -7c0,5 0,9 0,14 2,-1 3,-2 5,-3 0,6 0,4 2,8 -1,2 -2,5 -2,8l-1 -2c0,-1 -1,-2 -1,-3 -4,1 -15,17 -11,30 0,2 1,3 1,4 0,1 -1,1 -1,1 -1,1 -1,1 -1,2l-5 6c-6,6 -5,8 -12,10 1,-2 4,-6 5,-10l-7 0c5,-4 4,-2 9,-8 2,-2 6,-8 7,-12 -3,0 -6,1 -11,1 0,0 0,0 0,0l6 -4c2,-1 3,-3 5,-5 2,-3 6,-10 7,-13 -2,1 -4,2 -7,2l5 -5c4,-4 4,-8 6,-12 -3,0 -3,0 -6,0zm-40 -3c0,-3 1,-5 1,-8 3,2 9,8 10,11 2,4 2,8 0,12 -8,0 -11,-8 -11,-15zm-632 2l0 0 0 0zm-48 1c-3,0 -3,0 -6,0 0,3 3,8 4,10 2,3 4,6 7,8 -4,0 -4,-1 -7,-2 1,5 4,10 7,13 3,4 5,6 9,8 1,0 0,0 1,1 1,1 0,0 1,1 -5,0 -8,-1 -11,-1 0,1 1,2 1,3l3 6c2,3 7,8 9,10 1,0 1,1 2,1l1 1 -8 0c1,2 1,4 2,5 1,2 2,3 3,5 -6,-1 -3,-1 -8,-6 -1,-1 -1,-1 -2,-3 -3,-4 -6,-6 -9,-11 4,-8 1,-20 -4,-27 -1,-2 -4,-6 -6,-6l-2 6c0,-4 -1,-6 -2,-9 2,-3 2,-1 2,-8 2,1 3,3 5,3 0,-5 0,-9 0,-14l1 1c0,1 0,1 1,1l6 5zm776 0c1,-2 1,-4 1,-7 3,1 0,1 6,1 0,1 0,2 1,3 -1,1 -3,1 -4,1 -2,1 -2,1 -4,2zm-839 -6c4,0 4,0 6,-1l0 7c-10,-5 -7,0 -7,-6zm826 -1c0,-5 1,-7 3,-12 1,-1 1,-1 2,-2 1,1 1,3 2,4 1,1 1,3 2,4 4,9 -1,17 -5,14 -2,-1 -4,-6 -4,-9zm-29 16c0,-4 0,-4 1,-6 1,-3 4,-6 6,-8 2,-2 2,-3 4,-3 0,8 -4,10 -9,16 -1,1 0,1 -2,2zm-8 -15l0 0zm-781 1c0,-10 4,-11 5,-16l1 0c1,2 7,8 4,18 -3,11 -10,4 -10,-1zm29 -5c1,1 1,1 2,1 1,1 1,1 2,2 1,1 1,1 2,2 1,1 1,1 2,2 2,3 4,6 3,11 -1,0 -1,-1 -2,-1 -1,-1 -1,-1 -2,-2 -2,-3 -9,-10 -7,-14zm838 0c-1,1 -1,2 -2,2 -2,2 -5,5 -6,7 -2,0 -3,0 -4,-1 5,-1 9,-7 11,-8zm0 0l0 0 0 0zm-901 0c2,0 18,-6 21,2 2,5 -11,8 -19,1 -2,-2 -2,-2 -2,-3zm901 0l0 0 0 0zm-18 7c-17,0 -9,-10 -1,-10 4,0 9,3 13,3 -2,3 -7,7 -12,7zm-890 -7c2,1 3,3 6,5 2,2 4,4 7,4 -1,1 -1,1 -3,1 -1,-1 -1,-1 -2,-2l-7 -8zm908 0l0 0 0 0zm-855 -2l1 1c0,1 -1,3 -1,5l0 -6zm-53 2l0 0zm908 0l0 0zm-54 3c0,0 0,0 -1,-1l0 -3c0,-1 0,0 1,-2 0,2 0,3 0,6zm-50 8c-3,0 -3,0 -6,-2 0,-5 3,-8 7,-10 3,-1 4,-1 7,-1 3,0 6,0 9,0 -1,2 -1,3 -3,4 -3,4 -8,8 -14,8zm-717 -13c5,0 11,-1 15,1 6,2 8,5 8,10 -3,2 -2,2 -6,2 -8,0 -13,-7 -17,-13zm695 -2c0,-6 0,-4 1,-10l10 10c2,3 2,4 2,8 0,3 -1,3 -2,5 -6,0 -11,-7 -11,-13zm-729 2l-1 -1 1 1zm62 10l-1 0c-4,-5 -2,-11 2,-16 2,-2 5,-6 7,-7 1,5 3,11 -1,17 -1,2 -4,5 -7,5zm-91 -13l0 0zm845 -2c0,-5 1,-12 5,-14 4,8 8,12 4,20 -1,1 -2,3 -4,2 -3,0 -5,-5 -5,-8zm14 2l0 -2 2 2 -2 1zm-859 0l-2 -1 2 -2 0 2zm3 -1c0,-8 4,-9 6,-15 5,4 8,19 0,22 -3,1 -6,-4 -6,-8zm101 -5c0,0 6,5 2,8 -1,1 -1,1 -2,2 0,-2 1,-2 0,-5 0,-2 0,-3 0,-5zm780 26c0,0 7,-6 9,-10 1,-2 5,-5 5,-7 -3,1 -6,2 -9,4 -1,1 -1,1 -2,2 -2,1 -3,2 -4,4 -4,5 -4,5 -6,4l9 -12c0,0 0,0 0,0l4 -3c1,-1 3,-2 5,-3 5,-2 13,-4 18,-4 0,0 0,0 0,0l-12 14c-4,4 -9,10 -17,10zm-941 -24c7,0 17,3 23,7 3,2 15,16 12,16 -1,0 -2,-1 -2,-2 -1,-1 -1,-1 -2,-2 -4,-4 -9,-9 -16,-11l3 4c1,1 1,1 2,2l5 6c2,1 3,2 4,4 -10,0 -16,-9 -20,-13 -1,-1 -1,-1 -1,-2l-8 -9zm951 -1l-1 1 1 -1zm-79 28c-2,-1 0,0 -1,-2 0,0 -1,-2 -1,-2 0,-1 0,-1 1,-2 0,-1 1,-1 1,-2 2,-5 1,-6 2,-11 0,-2 1,-2 2,-3 1,-1 2,-2 3,-3 1,-1 2,-2 3,-3 2,-2 1,-3 3,-4 0,13 -7,12 -11,23 -1,2 -2,6 -2,9zm-787 -31c2,1 2,3 6,6 1,1 2,2 3,3 5,5 1,5 4,14 1,3 3,3 2,6 -1,2 0,1 -1,2 0,-6 -3,-12 -6,-16 -3,-4 -7,-6 -7,-15zm725 12c-5,-3 -4,-4 -2,-7 1,-1 1,-2 3,-3 -1,3 0,7 0,10zm131 -18l0 0zm-53 9c0,-5 -1,-14 1,-18l6 0c0,8 -1,13 -8,18zm-59 1c0,-10 10,-18 17,-18 0,8 -1,14 -6,19 0,0 0,0 0,0 -7,7 -10,3 -10,-1zm-754 -18l0 -2 5 0 1 0c3,5 1,11 1,18 -5,-3 -8,-8 -8,-16zm780 38c0,-6 1,-10 3,-15 2,-4 6,-10 9,-13l3 -3c1,0 1,-1 1,-1l7 -6c2,-2 0,-1 2,-2 1,0 3,0 4,0 0,11 -7,16 -13,22 -2,2 -3,2 -5,4 -1,1 -1,1 -2,2 -3,3 -7,7 -10,10l-1 1zm-29 -20c-1,-1 -7,-6 -9,-9 1,-1 2,-2 3,-3 1,-1 3,-2 4,-2 2,-1 7,-3 9,-3 -2,3 -8,4 -8,17zm-689 -17c4,0 14,4 16,8 -1,2 -2,3 -4,5 -2,1 -3,3 -5,4 0,-13 -5,-13 -8,-17zm-52 -3l6 1c1,2 1,1 4,4 1,1 1,1 2,2l6 6c4,4 7,9 10,14 1,3 3,10 3,14 -4,-5 -1,-2 -8,-9 -9,-9 -23,-17 -23,-31zm39 1c6,0 12,5 15,10 3,6 3,14 -3,12 -3,-1 -5,-3 -7,-5 -4,-4 -4,-10 -5,-17zm798 19c-4,0 -7,-1 -5,-7 1,-2 3,-5 5,-7 5,-4 10,-6 17,-6 0,4 -10,19 -17,19zm-892 -19c8,0 15,3 19,9 9,12 -6,18 -17,-2l-2 -4c0,0 -1,-2 -1,-2zm816 22l-4 0c2,-3 3,-2 5,-8 2,-6 2,-7 2,-14l9 -1 -11 20c-1,1 -1,2 -1,3zm9 0l-6 0c3,-6 5,-11 9,-17l4 -5 12 0c0,0 0,0 -1,1 -1,1 -1,1 -1,1 -3,3 -8,7 -11,11 -2,2 -6,7 -6,10zm-744 -23l9 1c0,7 1,13 4,18 1,2 2,3 3,4l-4 0c-1,-6 -10,-18 -12,-23zm-16 0l12 0c1,1 1,1 2,3l8 14c1,2 2,4 3,6l-6 0c0,-2 -3,-5 -4,-7 -6,-9 -14,-14 -16,-16zm803 17l-1 -2c3,-4 3,-10 3,-15 3,0 4,0 8,0 -3,6 -8,11 -9,18zm-835 -18c3,0 5,0 8,0 0,2 0,8 1,10 1,4 3,6 1,8 0,-7 -6,-12 -9,-18zm-38 -5c10,2 24,5 35,5 0,0 3,6 3,6 0,2 -5,8 -6,10l-1 0c0,-11 -13,-16 -22,-17 -2,0 -4,0 -6,-1 -3,-1 -3,-3 -4,-3zm889 22c-1,-1 -2,-2 -3,-4 -1,-1 -1,-1 -1,-2 -3,-4 -3,-5 0,-11 7,0 12,-1 18,-2 3,0 5,-1 8,-2 1,0 3,-1 4,-1 1,0 3,-1 4,-1 -4,6 -8,2 -20,7 -4,2 -5,3 -8,5 -2,2 -4,6 -4,9zm27 -7c1,-5 7,-11 11,-14 4,-2 10,-4 14,-4l6 -1 -12 14c-1,1 -1,1 -2,2 -5,6 -14,13 -22,15 -7,2 -7,0 -3,-4 2,-2 7,-4 13,-9l8 -7c-4,0 -11,5 -15,7zm-942 -19c2,0 1,0 2,0 1,0 2,0 3,0 5,0 11,2 15,4 3,2 5,4 7,6 1,2 4,6 5,8 -3,-2 -11,-7 -15,-7l13 10c4,3 11,5 12,10 -10,0 -18,-6 -24,-13l-17 -20zm958 -2l0 0zm-942 0l0 0zm887 -45c1,-3 2,-4 2,-7 1,-2 1,-5 2,-7l1 2c1,4 2,5 5,9 1,1 0,0 1,1 1,1 1,0 1,1l-12 0zm-837 -14c1,1 1,7 5,14 -3,0 -4,0 -6,0 -2,0 -4,0 -7,0l3 -3c1,-1 1,-2 2,-3 1,-2 3,-6 3,-8zm736 105c0,-1 0,1 -1,-1 0,-1 0,-1 0,-2 -2,-10 4,-22 8,-31l7 -13c5,-9 14,-26 22,-31 8,-5 18,-7 28,-7 6,0 11,0 17,0 3,0 5,0 8,0 10,0 31,-1 42,-3 12,-2 25,-4 32,-12 1,-1 1,-1 2,-2 3,-4 6,-11 6,-17 0,0 0,0 0,0 0,0 0,0 0,0 5,11 0,34 -2,45 -1,7 -3,13 -8,18 -1,1 -3,3 -5,4 -12,10 -27,10 -40,11l-51 1c-11,0 -23,0 -33,2 -12,2 -24,10 -30,22 -3,5 -3,7 -3,15zm36 -100l0 0zm0 0l0 0 0 0zm-702 0l0 0zm11 -1c-1,2 -7,11 -7,22 -1,-1 -2,-1 -2,-2 -2,-2 -6,-4 -9,-5 3,-6 14,-15 19,-16zm-150 -3c0,-5 1,-10 2,-14l1 0c0,4 2,10 4,13 2,4 5,7 9,9 9,6 24,8 35,9 3,0 6,0 8,1 5,1 12,0 17,1l34 1c9,0 21,2 28,7 4,3 7,7 10,12 1,1 1,2 2,3 1,2 2,4 3,6 5,8 8,15 12,23 3,6 9,19 9,26 0,3 0,6 -1,9l-1 1c0,-9 -1,-14 -6,-20 -2,-2 -2,-3 -4,-5 -3,-3 -6,-6 -10,-7 -13,-7 -29,-7 -46,-7l-34 -1c-5,-1 -12,0 -16,-1 -18,-1 -40,-4 -49,-21 -5,-9 -5,-18 -7,-28 -1,-4 -2,-11 -2,-16zm827 3c4,1 12,7 15,11 1,1 3,4 4,5 -4,1 -6,3 -9,4l-3 2c-2,-8 -1,-14 -8,-23zm-678 0l0 0zm718 5c-1,-3 -2,-4 -4,-6 5,-3 1,-1 5,-3 2,1 2,1 5,1 -1,1 -2,2 -3,3 -2,2 -1,3 -3,4zm-764 -7c3,0 3,0 5,-1 1,1 1,1 2,2 1,1 1,1 3,1 -1,2 -3,3 -4,6l-3 -4c-1,-1 -2,-2 -3,-4zm829 11c0,-2 0,-3 1,-4 1,-1 2,-2 3,-3 2,-2 5,-3 8,-4 6,-2 12,-3 20,-3 -1,8 -20,12 -27,13 -1,0 -3,1 -5,1zm-920 -14c7,0 15,1 20,3 3,1 7,3 9,5 2,3 2,3 3,6 -3,0 -15,-3 -19,-4 -4,-1 -10,-4 -12,-8 0,-1 0,-1 -1,-2zm98 17c2,-9 6,-11 14,-14 8,-3 4,-1 12,-5 -2,8 -5,15 -11,20 0,0 -2,1 -2,1 -1,0 -1,0 -2,0 -3,0 -8,-1 -11,-1zm819 -19c4,0 0,1 7,0 2,3 2,1 3,3 -4,0 -5,3 -8,5 0,-3 -1,-5 -2,-8zm-90 0c1,0 3,2 7,4 7,3 18,5 18,16 -3,1 -11,1 -13,2 -10,-7 -11,-17 -13,-21zm-796 8l-1 -1c-2,-2 -4,-3 -6,-4l0 -1c2,0 2,-1 3,-2 2,0 3,1 4,1 2,0 1,0 3,0 -1,2 -2,5 -2,8zm803 -9l0 0zm-717 0l0 0zm717 0l0 0 0 0zm-795 18l-1 0c-2,-3 -2,-2 -2,-9 0,-6 3,-9 6,-12l7 -6c1,-1 2,-1 2,-3l1 0c0,4 3,13 -2,21 -2,3 -5,7 -10,7zm834 -19l0 0zm26 -9c1,0 11,9 13,11 6,8 4,25 -8,13 -2,-2 -3,-4 -4,-6 -3,-7 -1,-14 -1,-18zm-26 9l0 0 0 0zm-797 0l0 0zm798 0l0 0 0 0zm-18 23c2,-3 2,-6 5,-9 9,-8 15,-8 21,-16l3 -4c0,10 -7,28 -14,29 -4,0 -10,0 -15,0zm-791 -29c3,2 2,6 16,13 1,1 3,2 4,3l4 3c4,5 3,6 5,10 -5,0 -10,0 -14,0 -3,0 -3,-1 -5,-3 -6,-6 -10,-19 -10,-27zm-10 1c2,1 3,0 6,0 1,10 6,19 10,27l-8 0 -5 -12c-1,-4 -3,-10 -3,-15zm831 27l-8 0c4,-7 10,-19 10,-27l6 0c0,1 -1,6 -1,7 -1,5 -4,15 -7,20zm-894 -33l2 4c3,6 7,7 10,9 -5,0 -9,1 -10,-2 -2,-4 -2,-6 -2,-11zm952 13c1,-1 6,-3 10,-10l2 -4c0,4 -1,8 -2,11 -2,4 -4,3 -10,3zm-869 -2c-2,-1 -7,-7 -8,-10 1,-1 1,-2 2,-3 1,2 2,5 3,7l3 6zm798 0c0,-2 4,-6 5,-12 1,1 1,1 2,1l1 2c-2,3 -5,7 -8,9zm-25 -11c2,0 4,-2 4,-4 2,1 2,4 5,4 -1,2 -4,3 -4,6l-5 -6zm-753 6l-4 -6c2,-1 3,-2 4,-4 0,0 0,0 0,0l1 1c2,2 2,2 4,3 -2,2 -3,3 -4,6zm5 12c-8,0 -4,-12 3,-17l14 -6c0,6 -2,11 -5,15 -2,3 -5,5 -8,7 -1,0 -4,1 -4,1zm730 -22l7 3c3,1 4,2 7,3 10,6 10,23 -3,14 -2,-2 -3,-2 -5,-5 -2,-4 -5,-9 -5,-15zm99 19c-9,0 -4,-10 2,-13 7,-4 13,-3 21,-5 -1,6 -10,14 -15,16 -2,1 -6,2 -9,2zm-935 -19c10,2 17,0 25,8 12,12 -6,15 -18,2 -5,-5 -5,-5 -7,-10zm31 9c0,-10 4,-12 10,-18 1,-1 1,-1 2,-2 0,0 1,-1 1,-1l1 -1c1,7 3,16 -4,25 -5,5 -10,4 -10,-3zm882 -13c0,-4 1,-6 1,-9 1,1 1,1 2,2 1,1 1,1 2,2 2,2 7,5 8,9 2,4 3,16 -2,15 -6,0 -11,-10 -11,-19zm17 2c4,0 3,0 5,-1 1,2 1,2 3,4 -2,0 -3,2 -5,3 -1,1 0,0 -1,1 0,-3 -1,-5 -2,-7zm-852 -2l11 5c6,4 11,10 10,17 -4,1 -5,0 -8,-2 -6,-3 -12,-14 -12,-21zm-30 12c2,-7 2,-3 2,-16 5,2 5,2 4,9 0,3 -4,6 -7,7zm862 -16c0,3 0,6 0,9 0,3 1,5 2,7l-4 -3c-3,-3 -3,-3 -3,-7 0,-3 1,-3 5,-5zm-882 12l-2 -2c-1,-1 -2,-1 -3,-2 1,-2 2,-2 3,-4 2,1 2,1 5,1 -1,2 -2,4 -2,7zm836 14c-1,0 -1,0 -2,0 -1,-6 3,-12 7,-15 4,-3 10,-5 14,-8 -1,6 -2,10 -6,15 -2,3 -7,8 -13,8zm-786 -23l0 0zm881 -1l0 0zm-958 0l1 0 -1 0zm900 -6c2,-1 2,-1 4,-2 2,1 0,2 3,2l0 1c-2,0 -3,1 -4,2 -1,-1 -1,-2 -2,-4zm-845 4c-1,-1 -2,-2 -4,-2 1,-2 2,-1 2,-3 2,0 1,0 2,1 1,0 2,1 2,1 -1,2 -1,2 -2,4zm5 13c-6,0 -5,-10 1,-16 5,-5 12,-6 17,-9 0,4 0,6 -1,9 -2,7 -7,15 -16,15zm820 -24c2,1 4,2 7,3 5,2 9,4 12,8 6,9 1,17 -10,10 -6,-4 -9,-13 -9,-22zm-22 8l-1 0c-1,-4 -2,-3 -3,-5 2,-1 3,-1 4,-3 1,1 2,1 3,1 -1,2 -3,4 -3,7zm-762 -7c1,0 2,-1 3,-1 1,2 2,2 4,3 -1,2 -2,3 -3,5 -1,-1 -1,-2 -2,-3 -1,-1 -1,-2 -2,-3zm847 15c-3,0 -3,0 -5,-1 0,-4 0,-4 3,-7 2,-2 3,-3 6,-4 4,-2 11,-2 16,-3 -1,6 -11,16 -19,16zm-949 -16c7,2 19,1 24,10 5,9 -10,7 -16,0 -5,-5 -5,-5 -7,-11zm112 17c-2,0 -2,-1 -3,-1 0,-9 4,-13 12,-15 2,-1 4,-2 6,-2 0,7 -6,19 -15,19zm729 -19c2,0 2,1 4,1 6,2 11,3 14,11 2,5 0,5 -1,7 -6,0 -9,-2 -12,-6 -2,-3 -4,-8 -4,-13zm-815 9c-2,-1 -2,-2 -3,-4 -1,-1 -3,-2 -4,-3 2,0 3,-2 4,-2 1,0 3,0 5,0 -1,3 -1,4 -1,8zm914 -8c3,0 3,0 5,-1 1,1 1,2 3,2 -1,1 -1,1 -4,3 -2,1 -2,2 -3,3 0,-2 -1,-6 -1,-8zm-70 19l-4 0c-3,-14 13,-18 19,-22 0,7 -3,13 -6,17 -2,2 -6,5 -9,5zm-836 -5c-5,0 -6,-11 3,-19 1,-1 1,-1 2,-2 2,-1 3,-3 4,-4 1,6 1,14 -2,19 -1,3 -5,6 -8,6zm49 -18c7,5 14,4 18,13 1,3 2,6 1,8 -4,1 -6,1 -10,-2 -1,-1 -1,-1 -2,-2 -4,-4 -6,-10 -6,-17zm841 0c0,-2 1,-5 1,-7l8 7c4,4 5,6 5,12 0,9 -11,6 -13,-7 0,-1 -1,-5 -1,-6zm42 1l0 0zm-964 0l0 0zm919 -1l0 5c0,2 1,2 1,4 -1,0 -1,1 -2,-1 0,-1 -1,-2 -1,-3 -3,1 -2,2 -4,5 -2,-1 -2,-1 -3,-2 0,-7 5,-14 9,-16 0,3 0,4 0,7zm-874 -7c4,3 12,13 8,17l-2 1c-1,-1 -1,-2 -1,-3 -1,-2 -1,-2 -2,-2 0,1 -2,5 -3,3 0,0 1,-5 1,-8l0 -9zm860 0c3,0 4,-1 6,-2 1,1 1,1 2,2 0,2 -2,3 -3,5 -1,2 0,0 -1,2 -1,-3 -1,-3 -3,-7zm-849 7l-1 0c0,-1 -1,-2 -2,-3 -1,-2 -1,-2 -3,-3l0 -1c1,0 3,-1 3,-1 2,0 1,0 2,1 1,0 1,0 3,0 -1,2 -3,5 -3,7zm-20 -7l0 0zm889 -3c1,0 2,-1 2,-1 0,2 1,3 1,4l-3 -3zm-889 3c0,-1 1,-3 1,-4 1,1 0,1 2,1l-3 3zm22 12c0,-13 11,-16 17,-20 1,-1 2,-1 3,-2 0,6 0,7 -1,12 -4,15 -20,19 -20,10zm51 0c-8,0 -3,-11 2,-13 4,-2 8,-2 11,-4 0,7 -5,18 -13,18zm-114 -16c8,0 14,0 19,5 3,3 3,4 3,7 -9,5 -19,-4 -22,-11 0,0 0,-1 0,-1zm957 14c-4,0 -3,0 -6,-2 0,-12 15,-12 23,-12 -3,6 -9,14 -17,14zm-67 -19c6,4 14,6 18,13 5,8 4,19 -9,11 -1,-1 -2,-2 -3,-3 -5,-5 -6,-13 -6,-21zm-43 4c9,4 18,2 18,16 -2,2 -1,1 -4,1 -4,0 -8,-3 -9,-6 -4,-5 -3,-11 -4,-12zm25 16c-6,0 -4,-10 3,-15 3,-2 7,-3 11,-5 0,6 -1,10 -3,13 -2,3 -5,7 -10,7zm-782 -20c2,1 3,2 5,3 5,2 12,6 12,12l0 4c-4,2 -5,2 -9,-1 -2,-1 -3,-2 -4,-4 -2,-3 -3,-9 -3,-13zm-61 18l-1 0c-2,-3 -2,-2 -2,-7 0,-4 3,-7 5,-9 2,-1 7,-6 7,-7 2,1 1,0 1,2 2,8 -2,21 -10,21zm907 -23c2,1 9,8 10,10 2,3 3,7 2,11 -2,8 -17,-2 -12,-20zm-43 2l0 0zm-29 10c-5,0 -5,-9 -5,-12 0,-3 3,-8 4,-10l6 -8c3,6 4,17 1,24 -1,2 -3,6 -6,6zm-762 -16c0,-9 2,-10 3,-13 1,1 1,1 2,2 4,6 12,13 8,24 -3,7 -7,3 -10,-2 -1,-3 -2,-6 -2,-10zm812 -2c3,0 4,-2 7,-2 0,2 0,1 2,2 -1,2 -1,1 -3,3 -2,2 -1,2 -3,3 0,-2 -2,-4 -3,-5zm-860 -3c2,1 3,3 6,3 -1,3 -3,3 -3,6 -1,-1 -2,-2 -2,-3 -1,-1 -2,-2 -3,-2 1,-2 1,-1 2,-3zm10 20c-1,0 -2,0 -3,-1 -3,-4 0,-13 6,-18 3,-2 8,-4 14,-8 0,10 -2,17 -9,23 -2,1 -5,3 -8,3zm830 -27c9,6 21,7 21,23 0,7 -12,4 -17,-5 -3,-5 -4,-10 -4,-18zm-886 -2c2,0 4,2 6,3l5 5c4,5 7,13 4,20l-2 0c-3,0 -9,-7 -10,-10 -2,-6 -3,-9 -3,-17zm932 17c-2,-1 -2,-4 -4,-5 0,2 -1,2 -1,3 -1,3 -2,7 -2,11l-5 2c-8,3 -8,1 -8,-3 0,-8 9,-15 17,-17 3,-1 6,-2 8,-4 0,2 -1,5 -2,7 -1,2 -1,4 -3,6zm-909 -12c7,4 18,4 24,16 5,9 0,10 -7,8l-5 -2c0,-6 -1,-10 -3,-14 -2,1 -2,3 -5,5 0,-2 -2,-4 -2,-6l-2 -7zm924 23l-1 0c-2,-3 -2,-2 -2,-6 0,-9 9,-21 17,-21 0,9 -3,21 -10,26 -1,1 -2,2 -4,2zm-4 -36l0 1 0 -1zm-33 -2c3,0 3,-1 5,-2 1,1 1,2 3,2 0,2 -1,2 -2,3 -1,1 -1,2 -2,3l-3 -5c0,0 0,-1 0,-1zm-864 6l-1 0c0,-2 -3,-5 -4,-5 1,-1 2,-1 3,-3 2,1 2,2 5,2 -1,2 -3,3 -3,6zm844 -14l10 5c12,7 13,21 7,21 -6,0 -11,-5 -13,-9 -3,-5 -4,-9 -4,-17zm-871 2c3,2 10,3 15,6 11,6 13,21 0,17 -5,-2 -7,-4 -10,-7 -1,-1 -1,-2 -2,-3 -1,-1 -1,-2 -2,-3 -1,-3 -2,-5 -2,-9zm900 23c-8,0 -4,-13 4,-17l16 -6c0,1 -4,23 -20,23zm-866 0l-3 0c-1,-2 -3,-3 -2,-9 2,-6 6,-10 12,-13l7 -4c1,0 0,0 1,0 0,2 -1,7 -1,9 -1,5 -4,10 -8,13 -1,1 -5,3 -7,3zm886 16l-4 -4c1,-5 6,-19 9,-23 6,-10 10,-9 16,-16l0 -1c0,7 -7,17 -12,21 -6,6 -10,11 -10,22zm13 -41l0 0zm-955 -2l13 11c1,1 1,1 2,2 4,5 10,20 11,26 -1,1 -3,4 -4,4 0,-18 -9,-18 -17,-32 -2,-3 -4,-8 -4,-12zm943 -1l0 0zm-47 0l0 0zm-8 40c-3,-2 -3,-3 -5,-4l-1 4c0,-1 0,-1 0,-3l-1 0c-1,4 -9,7 -12,8 1,-3 3,-6 3,-9 1,-18 -7,-17 -2,-22l3 -4c1,-1 0,-1 2,-1 0,2 1,5 2,7 4,14 0,18 0,24 3,-2 5,-13 5,-17 0,-7 -1,-13 -3,-19l2 -2c2,-2 10,-12 13,-12 0,2 1,4 2,6 1,2 2,3 3,5 -2,0 -5,-3 -7,-4 0,8 0,13 2,21 1,2 2,4 2,6 -5,-3 -7,-5 -9,-7 0,2 -1,4 0,7 0,8 3,14 4,19zm-820 -40c4,-6 3,-8 5,-11l13 13c1,1 -1,5 -1,7 -2,8 -2,19 2,27 1,1 1,2 2,3 -2,-4 -3,-10 -2,-15 1,-8 3,-13 3,-15 2,0 1,0 2,1 1,1 1,1 2,2 5,6 3,2 0,12 -2,7 -2,15 1,22 -2,0 0,0 -2,-1 -8,-3 -9,-7 -11,-7l-1 3c0,-2 0,-1 0,-3 -2,0 -2,1 -3,2 -1,1 -1,2 -3,2 4,-8 5,-15 5,-24 0,-3 -3,2 -10,5 0,-1 1,-1 1,-3 3,-6 3,-13 3,-20 0,-1 0,-2 0,-4 -2,1 -5,4 -7,4zm846 -11c2,0 4,-1 5,-1l5 2c-1,2 -4,4 -5,7l-1 0c-1,-3 -3,-5 -4,-8zm-868 8l-6 -8c6,-1 1,-3 7,-1 1,0 2,0 3,1 -1,2 -4,6 -4,8zm8 10c-3,0 -6,0 -6,-5 0,-5 5,-11 8,-14l4 -3c1,-1 4,-2 6,-2 5,1 2,7 1,10 -1,2 -2,4 -3,6 -2,3 -6,8 -10,8zm841 -21l3 -2c4,-1 18,8 18,20 0,5 -8,7 -15,-4 -3,-4 -5,-8 -6,-14zm31 21c-4,0 -7,-1 -4,-8 1,-2 3,-6 5,-8 4,-3 8,-5 13,-6 2,-1 3,-2 5,-2 0,9 -9,24 -19,24zm-906 -24l8 3c5,2 10,5 13,9 2,3 4,7 2,11 -14,3 -23,-15 -23,-23zm924 -4l0 0zm-923 0l0 0zm883 0c1,-1 1,-2 3,-3l8 -7c1,1 2,3 3,4 1,3 4,12 -1,12 -4,0 -5,0 -8,-2 -2,-1 -3,-2 -4,-4zm-852 6l-5 0c-2,-7 1,-10 4,-16 1,1 2,2 3,2l8 8c-1,2 -2,3 -4,4 -1,1 -4,2 -6,2zm894 28c0,-2 2,-9 3,-13 0,-1 1,-3 1,-4 -1,1 -2,2 -3,2 -1,1 -2,2 -3,2 0,-2 1,-2 3,-5 4,-8 3,-15 4,-19 -3,0 -2,2 -6,3l9 -10c1,-1 1,-1 2,-3l6 -8c0,14 0,18 -4,30 -3,8 -4,11 -8,18 -1,3 -2,4 -3,6zm-925 -34c-3,-1 -3,-2 -5,-3 0,7 1,16 5,22 1,1 1,1 2,3l-7 -5 3 13c0,2 1,3 1,4 -1,-1 -1,-1 -2,-3l-6 -12c-3,-7 -4,-9 -6,-16 -1,-2 -1,-5 -2,-7 -1,-6 -1,-10 -1,-17 2,0 2,2 4,5 3,4 11,13 13,15zm929 -12l0 0zm-935 0l0 0zm905 8c-2,-5 0,-2 -4,-7 1,-1 4,-3 5,-4 1,2 3,3 6,3 -1,2 -3,2 -5,6 -1,1 -1,1 -2,2zm-883 -8c7,0 4,-5 9,-1 1,1 1,1 2,1 0,2 -1,2 -2,4 -1,2 -1,3 -2,4 -1,-4 -6,-7 -7,-8zm890 19c-5,0 -7,-1 -5,-8 1,-2 4,-6 6,-7 4,-3 8,-4 13,-6 2,-1 3,-1 5,-2 0,6 -6,16 -12,20 -2,1 -5,3 -8,3zm-910 -23c3,2 10,3 16,6 10,6 14,21 -1,16l-2 -1c-2,-1 -5,-4 -7,-6 -2,-2 -3,-4 -4,-7 -1,-2 -2,-6 -2,-8zm827 -16c0,0 0,0 0,0l0 0zm-725 0l0 0zm0 -1c0,2 0,1 0,1 0,-2 0,-1 0,-1zm808 18c-2,0 -3,-1 -4,-2 2,0 4,-3 7,-4 1,-1 2,-1 3,-2l16 -11c0,2 -2,5 -3,7 -3,5 -11,13 -18,13zm-913 -20l6 4c2,2 17,13 19,14 -2,2 -4,3 -7,2l-11 -7c-3,-3 -6,-6 -7,-11 0,-1 -1,-2 -1,-2zm831 -1c1,1 1,1 2,2 2,2 4,3 6,7l-5 4c0,-6 -1,-7 -3,-12 0,-1 0,-1 -1,-2zm-728 0c-1,4 -3,6 -3,13l-4 -4c0,-1 2,-4 4,-5l4 -4zm0 0l0 0zm728 -5c2,-1 14,0 18,1 1,0 2,1 3,1 -1,1 -1,2 -2,2 -2,1 -6,5 -8,7l-8 -9c-3,-3 -1,-1 -2,-3zm-738 12l-8 -7c-1,-1 -2,-1 -3,-2 11,-3 5,-3 19,-3 4,0 -2,5 -3,6 -2,2 -5,4 -6,6zm-18 -16c3,0 3,0 5,0 1,2 2,2 5,3l-6 2 -4 -4zm781 4c-2,0 -3,-1 -6,-1 2,-1 3,-1 5,-3 3,1 3,1 6,0 -2,2 -3,2 -5,5zm-781 -4l-1 0 1 0zm39 38c-1,-5 -4,4 1,-15l4 -13c-2,1 -5,6 -6,9 -1,2 -1,3 -2,5 -1,2 -2,4 -2,6l-4 -4c2,-7 10,-20 17,-25 2,-1 2,-3 6,-4 -1,3 -4,9 -6,21 -1,4 -2,7 -2,11 -1,3 -2,9 -4,9zm694 -41c1,0 2,1 4,2 6,6 10,10 15,18 3,6 6,8 3,11 -1,1 -1,1 -2,2 0,-2 -1,-4 -2,-6 -1,-2 -1,-4 -2,-5 -2,-3 -3,-7 -6,-9l4 12c1,2 2,11 4,13 0,1 -1,1 -1,2 -1,1 0,1 -2,2 -1,-1 -2,-3 -2,-4 -1,-2 -1,-3 -1,-5 -1,-4 -2,-7 -2,-11 -1,-4 -3,-12 -4,-16 -1,-1 -1,-3 -2,-5zm-744 -7l0 0zm865 3l7 -6c1,-1 1,-1 2,-2 -1,7 -4,8 -9,8zm-931 -9c1,0 9,8 9,9 -4,0 -8,0 -9,-9zm93 16c-2,0 -4,0 -6,-1 -7,-3 0,-14 18,-14 3,0 8,0 10,-1 -1,4 -5,8 -8,11 -4,3 -7,6 -13,6zm841 -16l0 0zm-110 0c8,2 17,0 26,5 4,3 9,11 -4,11 -5,0 -10,-2 -14,-5 -1,-1 -3,-3 -5,-5 -2,-2 -3,-4 -4,-6zm-819 0l0 0zm62 -4c0,-7 0,-5 1,-11 2,0 8,8 10,9 11,13 3,27 -7,13 -2,-3 -4,-7 -4,-11zm787 9c-2,-2 -4,-4 -8,-4l0 -1c2,0 2,-1 2,-4 3,1 3,1 7,1 -1,4 -1,1 -1,8zm-770 -8c4,0 4,0 7,-1 1,4 2,2 2,5 -4,0 -5,2 -7,4 0,-2 -1,-6 -2,-8zm798 4l0 -12c3,0 6,4 6,6 0,1 -5,5 -6,6zm-829 -6c0,-2 1,-2 2,-4l2 -1c1,-1 1,-1 2,-1l0 11 -6 -5zm809 18c-7,0 -5,-12 -1,-17l11 -11c0,4 5,14 -3,24 -1,2 -4,4 -7,4zm-40 -18l0 0zm-703 0l0 0zm801 14c1,-2 2,-10 3,-13 1,-3 2,-1 6,-2 2,0 4,-2 6,-3 -1,6 -1,7 -4,12 -2,2 -7,6 -10,6zm-913 -18c6,3 1,3 12,3 0,5 2,11 3,15 -3,0 -6,-2 -8,-4 0,0 -1,-1 -1,-1l-1 -1c-1,-1 -2,-3 -3,-5l-2 -7zm918 -3l0 1 0 -1zm-34 -4l5 -1c0,6 0,5 -2,7 -1,1 -1,2 -3,2 0,-4 -4,-6 -6,-7 -2,-1 -1,-3 1,-3 2,0 4,1 5,1zm-795 12c0,-5 3,-9 8,-10 6,-2 9,-1 15,-1 2,0 1,0 3,0 0,1 -1,3 -2,3 -4,5 -9,9 -16,10 -4,1 -6,0 -8,-2zm-44 -3c-1,-1 -1,-1 -1,-1 -6,-6 -4,-3 -4,-9 2,0 2,0 4,0 3,0 4,-1 7,-1 0,4 0,2 -4,5 -2,1 -3,3 -3,6zm769 -9c2,0 1,0 2,0 10,0 13,-2 20,3 1,1 2,2 3,3 7,10 -16,12 -25,-6zm-744 0l0 0zm778 8l-2 0c-4,-6 -2,-13 3,-18l7 -7c2,7 3,14 -1,20 -1,2 -4,5 -7,5zm-7 -5c-2,-1 -3,-4 -8,-5l0 -1c2,0 2,-1 3,-2 4,2 4,1 6,1 -1,3 0,4 0,7zm-753 -7c3,1 4,0 6,-1 1,2 2,1 3,3 -4,0 -7,4 -9,5 0,-2 0,-6 0,-7zm-16 -2c0,-4 0,-9 2,-11 0,2 2,3 3,4 6,6 11,13 6,21 -4,0 -6,-1 -8,-5 -1,-2 -3,-5 -3,-9zm819 7c0,-7 1,-3 2,-8 3,2 3,1 5,0 -1,2 -3,4 -5,5 -1,1 -1,1 -2,2zm-861 -7c2,0 2,1 5,-1 0,1 0,1 1,2 2,3 2,0 2,6l-7 -7zm39 6c-4,-2 -4,-6 -4,-10 2,3 4,7 4,10zm797 -10c2,1 3,3 6,5 1,1 2,1 3,2 -2,4 -1,15 -1,21 -1,0 -2,1 -3,2 -1,1 -1,1 -3,2 0,-2 1,-3 2,-5 4,-12 -4,-21 -4,-27zm-6 10c1,-5 2,-6 4,-10 1,-1 0,0 1,-1 0,5 -2,9 -5,11zm-799 22c-2,-1 -2,-1 -5,-4 0,-2 0,-3 0,-5 0,-6 -1,-14 -1,-16 2,0 4,-2 5,-3l4 -3c0,1 -1,2 -1,4 -2,6 -7,15 -3,24 1,2 1,2 2,4zm847 6c2,0 3,0 8,0 3,0 6,0 9,0 3,0 5,1 8,0 3,0 6,0 9,0l-12 9c-11,8 -19,14 -29,21l-28 25c-6,5 -8,7 -13,13l-5 5c-8,9 -14,16 -19,27l-4 10c0,1 -1,2 -1,3l-1 2c0,0 0,0 0,0 -3,-14 -22,-46 -13,-64l5 -8c4,-4 13,-14 17,-17l68 -63c7,-7 8,-12 9,-14 0,6 -1,9 -1,13l-7 37zm-102 -46c6,1 13,-2 20,2 3,2 11,10 -3,10 -5,0 -12,-4 -14,-8 -3,-4 -1,-2 -3,-5zm-701 12c-16,0 -5,-12 6,-12 4,0 7,1 11,0 -1,6 -10,12 -17,12zm-36 -5c-2,0 -1,0 -1,-4 0,-2 0,-3 1,-4l1 -4c0,1 1,2 1,4 0,4 -2,5 -2,9zm-57 -12c1,2 3,7 8,12l3 4c1,1 1,1 2,2 3,4 8,9 12,12 1,1 2,2 4,3l7 6c1,1 2,2 4,3l15 13c3,3 9,8 14,13l27 27c3,3 3,4 6,8 8,13 -3,40 -9,52 -1,2 -4,10 -4,13l-1 0c0,-3 -4,-12 -6,-15l-5 -9c-1,-1 -1,-1 -1,-2 -3,-4 -8,-11 -11,-14 -1,-1 -1,-1 -2,-2 -4,-6 -11,-12 -16,-17l-15 -13c-1,-1 -1,-1 -2,-2 -1,-1 -1,-1 -2,-2l-36 -28c-1,-1 -1,-1 -2,-1 -1,-1 -1,-1 -2,-2 -2,-2 -12,-8 -12,-9 3,0 6,0 9,0 5,0 6,0 9,0l13 0c2,0 2,0 4,0 0,-7 -8,-37 -8,-51zm845 4c0,-1 1,-3 1,-4 0,0 0,0 0,0 0,0 0,0 0,0l1 3c1,3 2,6 1,9l-1 1c0,-2 -1,-3 -1,-5 0,-1 -1,-4 -1,-4zm-19 12c-4,0 -6,-7 -3,-13 1,-2 7,-10 9,-12 0,2 1,3 2,5 1,5 1,10 -2,15 -1,2 -5,6 -6,6zm-756 -25l1 0c0,2 2,3 3,4 3,4 7,8 7,14 0,5 -4,11 -11,1 -2,-4 -3,-9 -1,-14 0,-2 1,-3 2,-5zm779 9c8,2 17,0 24,6 5,5 6,11 -1,11 -9,0 -15,-4 -19,-11l-2 -5c0,0 -1,-2 -1,-2zm-57 0l0 0zm-682 0l0 0zm-77 17c-6,0 -4,0 -8,-2 0,-4 1,-5 3,-8 7,-8 17,-5 24,-7 -2,8 -10,18 -20,18zm843 -12c-2,-2 -3,-4 -7,-5 1,-1 2,-1 3,-3 3,1 3,1 5,0 0,2 -1,3 -1,8zm-852 -8c5,1 3,-1 6,0 0,0 3,2 3,2 -1,1 -2,1 -4,2 -2,1 -2,2 -3,3 0,-3 0,-5 -1,-8zm859 16c-4,0 -5,-2 -5,-7 0,-8 6,-13 12,-17l5 -5c0,5 3,13 -3,21 -1,2 -6,7 -10,7zm-879 -20c0,-3 0,-7 1,-9l4 4c3,3 5,4 8,7 4,4 6,11 2,17 -6,0 -9,-2 -12,-7 -2,-4 -4,-8 -4,-13zm900 32c0,-3 1,-7 1,-10l2 -10c1,-4 5,-14 10,-13 1,0 0,2 0,4 -2,12 1,28 -10,30 3,-5 5,-11 5,-17l-1 2c-1,4 -4,11 -7,14zm-922 -32c4,0 4,1 7,4 5,8 5,18 7,28 -2,-2 -6,-11 -7,-14 -1,-2 0,-1 -1,-2l2 9c1,3 2,5 3,8 -5,-1 -7,-5 -8,-9 -2,-8 -1,-21 -3,-25zm96 3c-2,-1 -5,-5 -6,-7 -1,-1 -1,-1 0,-2 0,-2 2,-7 3,-8 1,4 6,5 10,5 -1,2 -6,5 -6,12zm738 -12c8,0 7,-4 10,-5 1,7 5,5 -1,13 -1,1 -2,2 -3,3 -3,-6 2,1 -6,-11zm-730 19c-4,0 -5,-4 -4,-7 1,-4 4,-8 8,-11 1,-1 2,-2 3,-3 2,-1 5,-4 8,-5 0,9 -4,19 -11,24 -1,1 -2,1 -4,1zm713 -25c3,0 8,4 11,7 3,3 9,9 9,13 0,8 -13,8 -19,-11 -1,-3 -1,-5 -1,-9zm41 1c1,0 3,0 4,1 2,0 3,0 5,0 19,1 24,19 10,17 -6,-1 -11,-4 -14,-8 -5,-7 -3,-5 -6,-10zm-808 15c0,-5 5,-10 9,-12 6,-2 12,-2 18,-3 -4,18 -27,22 -27,15zm-20 -18c0,-8 1,-6 1,-10l12 10c6,6 7,15 3,18 -1,0 -2,1 -2,1 -6,0 -14,-10 -14,-18zm855 9c-1,-1 -1,-2 -3,-3 -1,-1 -3,-1 -4,-3 3,0 2,-1 4,-2 3,2 2,1 5,0 -1,2 -2,4 -2,7zm-836 -7c6,1 1,1 6,0 0,1 0,1 1,1 1,1 0,0 2,1l0 1c-3,0 -4,3 -6,4l-1 1c0,-4 -1,-5 -2,-8zm839 10c0,-9 8,-15 14,-20l2 -2c0,0 0,0 0,0 0,0 0,0 0,0 2,8 2,15 -3,22 -5,7 -14,11 -14,0zm-26 5c0,2 -1,2 -1,5 0,0 0,0 -1,-1 0,-1 0,0 0,-1l-1 0c0,3 -2,6 -4,8 0,-2 0,-2 0,-3 0,-6 -3,-12 -3,-19l-1 0c0,2 -1,2 -2,3 0,-3 -1,-5 -1,-8 6,-1 4,-2 8,-4 1,1 1,1 2,2 1,0 1,0 1,1l1 1c0,0 0,0 0,0 -2,0 -3,-1 -5,-1 0,5 2,10 4,14l3 4zm-64 -20c3,2 9,7 15,7 0,3 2,9 3,12 1,3 3,7 5,10 -10,0 -17,-10 -21,-18 -1,-3 -3,-6 -3,-10zm-721 3l4 -3c1,1 2,2 3,3 2,1 2,1 4,2 0,3 -1,5 -1,8 -1,-1 -2,-2 -2,-3l-1 0c0,7 -3,14 -3,19 0,1 0,2 0,3 -2,-1 -4,-5 -4,-8 -1,1 -1,0 -1,2l-1 0c0,-2 -1,-3 -1,-4 0,0 0,0 0,0l1 -1c1,-1 1,-1 1,-2 3,-4 5,-9 5,-14 -2,0 -3,1 -5,1zm38 25c4,-5 9,-14 9,-21 6,0 12,-5 15,-7 -1,9 -10,29 -24,29zm683 -28l0 0zm-695 7c-9,0 -11,-5 -5,-11 6,-6 19,-5 27,-5 0,2 -2,5 -3,6l-2 3c-1,1 -6,5 -8,6 -1,1 -6,2 -8,2zm708 -16c9,0 20,-1 26,4 3,3 7,8 1,10 -7,3 -15,0 -21,-5l-1 -1c0,0 0,0 0,0 -4,-4 -3,-3 -6,-9zm29 -5c0,3 -1,2 -1,6 -4,-3 -7,-2 -8,-4 2,0 2,-1 3,-2l5 0zm-745 0l5 0c1,1 1,2 3,2 -1,1 -2,1 -4,2 -2,1 -2,1 -4,2 0,-3 0,-3 -1,-6zm-38 16c0,-4 0,-6 3,-9 2,-2 3,-3 6,-4 3,-1 5,-1 9,-2l9 -1c-1,5 -6,11 -10,14 -2,2 -5,3 -8,4 -2,0 -3,1 -5,0 -3,-1 -2,-1 -4,-2zm-23 -16l0 0c0,0 0,0 0,0zm817 0c1,0 4,1 5,1 2,0 3,0 5,0 4,1 6,1 9,2 3,1 4,3 6,5 2,2 3,6 1,8 -5,4 -16,-1 -20,-6 -5,-7 -3,-5 -6,-11zm-11 0l0 0zm-745 0l0 0zm783 5c-1,-1 -1,-1 -3,-3 -1,-1 -2,-1 -4,-2 1,-2 3,-1 3,-4 2,1 2,2 5,2l-1 3c0,1 -1,2 -1,4zm-823 -7c4,0 3,0 5,-2 1,4 1,2 3,4 -2,0 -3,1 -5,3 -1,1 0,0 -1,1 -1,-1 -1,-2 -1,-3 0,-1 -1,-2 -1,-3zm829 16c-4,0 -4,-4 -4,-7 0,-5 3,-9 6,-12 2,-2 9,-6 9,-9l1 0c0,5 3,12 -3,21 -2,2 -6,7 -10,7zm-78 -17l0 0zm-678 0l0 0zm-91 -3c0,-2 1,-7 1,-8l6 6c2,2 4,4 6,6 2,3 3,4 3,8 2,10 -7,10 -13,1 -2,-3 -4,-8 -4,-13zm815 14c0,1 -1,3 -2,3 -6,6 -12,-4 -6,-16 1,-1 2,-4 3,-5 1,1 1,2 2,3l3 2c-2,0 -3,-1 -5,-1 0,10 4,11 4,13zm-770 -12c1,-2 4,-3 5,-5 3,1 7,11 7,14 0,2 0,3 -1,5 -1,2 -1,2 -2,4 -5,0 -7,-3 -7,-5 0,-1 4,-3 4,-13 -2,0 -3,1 -5,1zm8 -12c0,-3 0,-14 4,-15 1,2 3,5 5,7 3,4 4,10 2,15 -4,8 -11,-3 -11,-8zm712 0c6,2 15,-2 22,2 7,4 10,12 -3,12 -7,0 -14,-5 -18,-11l-1 -3zm-689 14c-15,0 -7,-11 1,-13 8,-2 15,1 19,-1 -1,6 -10,14 -19,14zm725 -4c-4,0 -8,-9 -1,-19l5 -8c1,4 7,11 1,22 -1,2 -4,4 -5,4zm-768 2c-11,0 -6,-10 2,-13 5,-2 13,-1 16,-3 0,6 -9,16 -19,16zm796 -16c2,0 1,-1 2,-2 1,1 2,2 4,2 0,2 -1,3 -1,5 -2,-1 -3,-3 -5,-3l0 -1zm-19 0c2,1 5,1 8,1 6,1 12,1 16,8 5,9 -6,8 -11,6 -1,0 -2,-1 -3,-1 -7,-4 -8,-10 -10,-13zm-784 0c3,0 3,-1 4,-2 0,2 0,2 2,2l0 1c-2,1 -3,2 -5,3 0,-1 -1,-4 -1,-5zm-18 -2c0,-4 0,-8 2,-11 2,1 10,10 11,13 2,4 2,11 -1,14 -3,2 -12,-4 -12,-15zm786 9c-3,-1 -4,-3 -8,-4l2 -5c3,1 2,1 6,1 -1,3 -2,5 -1,8zm-727 -8c6,0 4,-1 7,-1 0,3 1,2 2,5 -3,0 -5,2 -7,4 0,-3 0,-6 -1,-8zm32 0l-1 1 1 -1zm744 15c-3,0 -9,-9 3,-22 3,-3 4,-5 6,-6 0,3 5,15 -3,23 -1,1 -4,4 -6,4zm-759 -13c-9,0 -9,-7 -3,-10 4,-2 11,-3 15,-4 3,0 5,-1 8,-2 0,1 -1,2 -2,3 -4,6 -10,13 -18,13zm722 -17c7,0 19,2 22,9 1,4 -3,9 -12,2 -1,-1 -1,-1 -2,-2 -2,-1 -1,0 -2,-2 -4,-5 -2,-2 -5,-7zm-14 11c-3,0 -8,-9 -2,-18l5 -7c0,0 0,0 0,0 2,3 4,10 4,15 -1,4 -3,11 -7,11zm-36 -11c4,1 5,2 10,2 4,1 16,2 17,9 1,5 -15,11 -27,-11zm-720 14c-3,0 -4,-2 -4,-5 0,-2 2,-3 3,-5 2,-2 3,-2 5,-3 4,-2 8,-2 13,-2 -1,3 -5,7 -7,9 -2,2 -7,6 -11,6zm23 -16c0,-7 3,-11 4,-14l2 4c3,4 6,8 6,14 0,8 -5,12 -10,4 -1,-2 -2,-6 -2,-8zm724 7c-3,-2 -1,-2 -6,-4 -2,-1 -1,0 -2,-1 2,-1 2,-1 3,-3 2,1 3,1 6,1 -1,2 0,4 0,7zm-709 -7c3,0 4,0 6,-1 1,2 0,2 3,3 -1,2 -3,1 -6,4l-2 2c0,-2 1,-5 0,-7zm756 8c0,-4 2,-8 4,-10l6 -5c1,-1 1,-1 2,-2 0,5 3,12 -4,19 -5,6 -9,2 -9,-2zm-815 -18c4,5 12,8 12,18 0,6 -4,6 -8,3 -1,-1 -2,-2 -3,-3 -3,-4 -4,-12 -1,-17zm742 8l0 0zm-658 0l0 0c0,0 0,0 0,0zm658 0l-1 0 1 0zm-656 0l0 0zm-13 2c-10,0 -7,-12 10,-12 3,0 4,0 7,0 0,4 -11,12 -18,12zm664 -12c5,0 9,-2 17,1 12,4 5,17 -10,6 -1,-1 -3,-2 -4,-3 -1,-1 -1,-1 -2,-2 -1,-2 -1,-2 -1,-3zm30 9c-6,0 -7,-8 -1,-16l1 -1c2,-2 5,-4 7,-5 2,7 0,21 -7,21zm-37 -12c2,0 1,0 1,0 -3,0 -1,0 -1,0zm-634 0c-1,0 1,0 -1,0 1,0 -1,0 1,0zm-44 -3c0,-5 0,-3 0,-6 2,0 3,1 4,2 5,4 8,6 8,14 0,7 -12,8 -12,-10zm-3 2l0 0zm-35 15c0,-7 0,-9 6,-16 1,-2 3,-3 4,-5 2,-1 4,-3 6,-3 4,8 -4,29 -12,26 -2,-1 -2,-1 -3,-2zm782 -19c0,-7 2,-8 7,-2 16,16 9,28 0,20 -4,-3 -7,-12 -7,-18zm-707 -8l0 0zm684 0l0 0zm29 -1c0,-12 3,-13 4,-17l1 2c3,9 12,20 14,28 0,2 1,4 1,6 0,1 -4,5 -5,5 0,-11 -8,-19 -14,-24l0 -1zm-792 25c-1,-1 -2,-3 -4,-4 0,-16 9,-21 14,-34 0,0 0,-1 0,-1 1,-3 -1,2 0,-1 0,0 0,0 0,0 0,0 0,0 0,0 3,4 4,11 4,17 -8,5 -14,14 -14,24zm39 -11c0,0 0,0 -1,-1 -1,-2 -1,-3 -1,-6 -2,1 -4,7 -4,9 -1,3 -3,8 -3,12 -4,-1 -8,0 -11,0 2,-3 3,-2 5,-8 0,-1 0,-1 1,-2 0,-2 0,-1 1,-2 2,-1 1,0 4,-3 4,-4 6,-6 9,-11l2 -4c0,0 0,0 0,0 0,3 -1,5 -1,8 0,3 0,5 0,8zm727 -16c3,4 5,12 15,17 2,1 2,1 3,4 1,2 1,3 2,5 2,3 1,2 3,4 -4,0 -7,-1 -11,0 0,-5 -5,-20 -7,-21 0,2 0,4 -1,6 0,0 0,0 0,0l-1 1c0,-10 -1,-13 -1,-16zm-3 4c0,-2 1,-2 1,-4 0,-1 1,-3 1,-4 0,0 0,0 1,1l0 2c-1,2 -2,3 -3,4zm-722 -4l2 -5c0,4 0,6 2,9 -2,0 -3,-2 -3,-4l-1 0zm21 17c-7,0 -4,-10 -2,-14 1,-3 3,-4 5,-6 2,-2 10,-7 13,-9 0,4 0,7 -1,10 -1,2 -2,6 -3,8 -2,4 -6,10 -12,10zm668 -29c3,2 13,8 15,11 11,13 1,24 -8,12 -6,-7 -7,-12 -7,-23zm-1 16l-4 -3c-4,-3 -10,-6 -16,-7 1,3 9,10 12,12 11,7 9,2 14,9 -4,0 -10,-2 -12,-3 -3,-1 -7,-4 -10,-6l-4 -4c-1,-1 -1,-1 -2,-2 -1,-1 -1,-1 -2,-2 -1,-1 -1,-1 -2,-2 -2,-2 -4,-5 -7,-5 1,-1 0,-1 4,-1 9,-1 16,2 24,6 2,1 1,1 2,4 0,2 1,3 1,5zm-649 0l2 -7c1,-2 2,-2 5,-3 9,-4 15,-5 25,-3l-2 1c-1,1 -1,1 -2,2l-8 8c-1,1 -1,1 -2,2l-6 5c-2,1 -3,2 -5,3 -3,1 -9,3 -13,3 1,-1 1,-1 1,-2 2,-3 0,-2 5,-4 5,-2 10,-6 15,-9 1,-1 2,-2 3,-3 1,-2 2,-2 2,-4 -1,1 -4,1 -5,2 -7,3 -9,5 -14,8zm-54 9c0,-3 0,-6 0,-8 -2,-10 -3,-10 4,-24l3 -7c1,-2 2,-5 3,-8 0,0 0,0 0,0 0,0 0,0 0,0 1,1 0,0 1,1 0,0 0,1 1,2 1,1 1,2 1,4 3,10 2,20 -3,29 -1,2 -3,4 -4,6 -2,2 -3,4 -6,5zm743 -29c0,-4 0,-6 1,-11 1,-3 2,-6 3,-7 2,1 0,0 2,6 1,2 1,3 2,5 12,25 6,16 6,36 -1,-1 -2,-1 -3,-2l0 0c0,0 -1,-1 -1,-1l-6 -8c-2,-5 -4,-12 -4,-17zm-14 26l-6 -14c-5,-10 -5,-21 -2,-32 0,-1 1,-2 1,-4l1 2c2,6 4,11 6,16 2,3 3,6 4,9 2,5 4,12 0,17 0,-5 -2,-8 -4,-12 -1,-3 -4,-9 -4,-12l0 0c0,16 3,15 3,30zm-705 -7c-1,0 -1,0 -2,-2 -4,-8 6,-24 9,-32 1,-2 3,-6 3,-9 1,1 2,5 2,6 2,10 1,19 -3,29 -1,3 -5,10 -5,14l-1 0c0,-11 4,-18 4,-29 -2,1 -1,1 -2,6 -2,6 -6,13 -6,18zm635 -60l0 0zm0 0l0 0 0 0zm-39 -4c11,0 19,2 28,4 4,1 8,3 11,5 6,3 6,3 9,7 5,6 10,11 15,17l9 8c2,1 3,2 4,4 2,1 3,2 5,3l0 5c-10,-7 -15,-7 -27,-7 -7,-13 -18,-24 -30,-33 -5,-4 -17,-10 -22,-12 0,0 -1,0 -1,0l-1 -1c0,0 0,0 0,0zm-538 46c-8,0 -13,0 -21,3 -2,1 -3,2 -5,3l0 -5 17 -14c6,-6 10,-9 16,-17l4 -5c4,-3 12,-6 16,-8 8,-3 17,-5 28,-5l-8 4c-2,1 -3,1 -4,2 -6,4 -8,4 -15,9 -6,4 -12,10 -16,16 -3,4 -8,10 -10,15zm-42 7c3,-13 10,-27 18,-38l14 -18c1,-1 1,-2 2,-3 3,-3 6,-6 9,-9 1,-1 1,-1 2,-2 1,-1 2,-1 3,-2 3,-3 12,-12 15,-13 0,7 -3,16 -5,22 -4,10 -11,21 -18,29 -4,5 -9,10 -13,14 -1,1 -1,1 -3,2 -1,1 -1,1 -2,2 -2,1 -3,3 -5,4 -3,3 -14,11 -17,12zm613 -85c2,0 1,1 3,2l8 7c3,2 19,18 21,20 10,12 20,24 26,39 1,1 1,2 2,3 1,3 4,11 4,15 -2,0 -10,-6 -11,-7l-18 -15c0,0 0,0 0,0l-4 -4c-6,-6 -14,-17 -18,-24 -6,-11 -10,-21 -12,-35zm-739 241c-4,-2 -8,-11 -12,-11 0,2 1,3 2,5 1,3 2,9 3,11 1,3 1,2 3,4l-22 0 18 15c3,2 2,5 5,11 3,5 6,7 7,9 -6,-1 -9,-7 -10,-8 0,3 1,8 2,11 0,1 1,2 1,4 -2,-1 -2,-2 -4,-4 -1,-1 -2,-3 -3,-4 -5,-8 -2,-9 -4,-11 0,3 -3,8 -3,14 0,12 0,19 4,30 1,2 1,4 2,6 1,2 1,4 3,6 -3,-1 -9,-7 -11,-12 -1,-2 -2,-4 -2,-6l0 9c1,5 3,14 5,18l2 3c-3,-1 -6,-4 -10,-5 2,3 3,3 4,8 2,10 0,15 7,24 1,1 2,2 3,4 -1,0 -4,0 -6,-1 -5,-1 -11,-3 -15,-6 1,3 4,9 5,12 3,6 6,7 7,10 -3,0 -4,-1 -6,-2 -1,0 -1,-1 -2,-1 -1,-1 -1,-1 -2,-1 1,5 7,15 11,19 1,1 1,1 2,2 -1,0 -2,-1 -3,-1l-3 -3c0,0 0,0 0,0 0,0 0,0 0,0 -1,-2 -1,-2 -3,-3 1,2 1,4 2,5 1,3 2,3 3,6 -3,1 -5,6 -6,8 -5,14 -1,34 2,49 2,9 5,18 12,23 1,1 1,1 2,2l2 1c0,0 0,0 0,0 -1,0 -7,-2 -12,-3 -6,-1 -9,1 -13,1 1,2 0,1 4,4l19 20c3,4 7,6 8,8 -4,-1 -7,-3 -13,-3 -5,0 -11,0 -16,1 1,1 2,2 4,3 4,3 7,7 11,11 3,3 10,12 15,14l0 1c-5,0 -10,4 -13,7 -4,4 -5,8 -5,16 0,7 4,18 7,24l4 7c1,2 2,4 4,6 4,6 9,12 13,17 3,4 11,11 16,15 2,2 4,3 7,3l-18 -39c1,1 1,1 2,2 1,1 1,1 2,2 1,1 1,1 2,2 1,1 1,1 2,2 10,10 17,6 19,10 3,3 5,5 9,8 1,0 1,0 1,1l2 1c-9,0 -6,-1 -10,-2 2,6 13,15 20,15l0 0c-6,0 -8,-2 -11,-2 0,2 0,1 2,2l7 6c-2,0 -4,-1 -7,-1 -4,-1 -10,1 -14,2 -2,1 -4,2 -6,3 1,1 0,0 4,2 2,1 3,1 4,2 10,6 10,7 16,12 1,1 2,2 4,3 0,5 1,7 2,10 4,11 13,19 21,27l6 6c2,2 4,4 7,5l7 5c-2,0 -6,-1 -9,-1 -14,0 -39,0 -50,-5 -1,-1 -2,-1 -4,-2 -3,-1 -4,-3 -6,-4 1,3 8,11 10,14 2,2 8,8 11,10 17,13 33,15 54,15 3,0 5,0 8,0 3,0 5,0 8,0l0 0c-9,0 -37,12 -56,7 -1,0 -2,-1 -4,-1 2,3 10,10 12,12 5,4 10,6 17,8 18,6 41,-4 42,-3 2,1 3,2 5,2 2,0 4,-1 6,-2 0,3 3,7 8,7 2,0 4,-1 5,-3 1,-1 2,-3 2,-5 2,1 4,3 6,3 5,0 8,-7 8,-11 1,-4 1,-4 5,-4 6,-1 12,-1 16,1 2,1 3,3 5,5 2,2 2,4 4,6 -4,0 -5,-2 -12,-2 -11,1 -19,10 -33,10l0 1c11,0 22,9 36,6 2,0 3,-1 5,-1 -4,8 -14,10 -16,12 5,0 10,-3 18,-2 2,0 4,0 6,0 -1,2 -4,2 -6,3l-5 4c0,0 0,0 0,0 1,0 2,0 3,-1 13,-4 16,-2 22,-3 2,0 2,-1 4,-1 -1,1 0,0 -1,1l-3 2c-2,1 -3,2 -4,3 4,-1 7,-2 14,-4l15 -2c-2,2 -8,3 -11,6l30 -5c-3,2 -7,3 -9,6 6,0 13,-5 29,-5 2,0 2,0 5,0 -2,3 -12,10 -15,12 -3,2 -6,0 -10,-1 -22,-5 -44,3 -65,6 -26,4 -48,-2 -71,-13 -1,-1 -3,-1 -4,-2 -1,-1 -3,-2 -5,-2 0,9 8,26 13,33 8,10 18,19 31,22 2,1 4,0 5,2l-15 3c-3,0 -6,0 -8,1 -6,1 -27,-2 -33,-3 -2,-1 -6,-2 -8,-2 5,10 2,7 10,17 3,4 7,6 11,9 10,7 23,11 35,12 10,1 21,3 31,2l31 -3c15,-2 34,-5 49,-2 15,3 47,12 64,17 13,3 33,8 46,6 8,-1 13,-5 16,-11 3,-6 4,-16 1,-22 -1,-2 -1,-3 -2,-4 -4,-6 -8,-8 -10,-10 13,3 19,6 34,9 27,4 61,4 88,-2 3,-1 6,-1 9,-2 3,-1 6,-2 8,-2 2,-1 2,-1 4,-1 2,0 3,-1 4,-1 -11,5 -18,24 -11,37 8,14 27,12 40,9 15,-2 29,-6 43,-10 14,-4 29,-8 43,-11 23,-5 45,2 67,4 11,1 23,2 35,1 17,-2 34,-6 48,-16 1,-1 2,-2 4,-3 4,-3 7,-7 9,-11 1,-2 4,-7 4,-9 -3,0 -11,3 -15,3 -5,1 -21,3 -25,2 -2,0 -6,0 -8,-1 -3,0 -5,-1 -8,-1 -3,0 -5,-1 -8,-1 1,-2 2,-1 5,-2 2,-1 3,-1 5,-2 7,-3 15,-7 20,-13 1,-1 2,-2 3,-3 7,-7 16,-27 16,-37 -18,10 -38,19 -61,19 -9,0 -16,0 -25,-2 -15,-3 -29,-7 -47,-6 -2,0 -4,0 -6,1l-11 2c-5,1 -4,0 -11,-4l-6 -4c-1,-1 -3,-2 -4,-3 2,0 2,0 4,0 2,0 3,0 5,0 8,0 21,5 25,5 -2,-2 -5,-3 -8,-5 0,0 0,0 -1,0l-1 0c2,0 6,0 8,1 6,1 12,1 18,3 1,0 2,1 4,1 -2,-3 -7,-4 -10,-5l-1 0c-1,-1 0,0 -1,-1 6,0 16,2 22,4 3,1 4,1 7,2 -2,-3 -6,-4 -8,-6 3,0 4,1 7,1 4,0 10,1 14,2 2,0 5,2 7,2 -3,-4 -9,-5 -12,-8 8,1 6,0 13,0 4,0 8,2 12,2 -2,-2 -6,-4 -9,-5 -3,-2 -6,-4 -7,-7 2,0 3,1 5,1 16,3 23,-6 36,-6l0 -1c-14,0 -21,-10 -32,-10 -6,0 -8,1 -12,2 2,-9 10,-14 19,-13 3,0 6,1 10,1 0,5 4,15 10,14 2,0 4,-2 5,-3 0,2 1,3 3,5 3,3 7,4 10,1 1,-1 2,-3 2,-5 2,1 2,2 4,2 1,0 2,0 3,0 4,-1 2,-3 8,-1 22,7 43,5 59,-11 2,-2 5,-4 7,-7 -2,0 -2,0 -4,1 -14,4 -28,-1 -42,-4 -5,-1 -10,-3 -15,-3l0 0c3,0 4,0 8,0 8,0 17,0 24,-1 4,0 9,-1 14,-3 8,-2 15,-6 22,-10l7 -6c7,-5 12,-13 17,-20 -2,0 -5,5 -13,7 -9,2 -18,3 -27,3 -9,0 -19,1 -29,1l1 -1c5,-3 10,-7 14,-10l14 -13c14,-15 14,-28 15,-29 1,-2 8,-7 10,-8 6,-5 11,-7 17,-10 -1,-1 -1,-1 -2,-2 -13,-7 -15,-4 -24,-3 3,-2 6,-5 9,-8 -2,0 -3,1 -5,1 -2,0 -4,1 -6,1l0 0c8,0 19,-11 20,-16 -4,2 -5,2 -11,2 0,0 0,0 0,0l2 -1c1,0 1,-1 2,-1 4,-2 6,-4 9,-8 15,0 23,-15 25,-16l-4 10c-3,5 -5,12 -9,19 -1,2 -4,7 -4,10 2,-1 5,-2 7,-3l11 -9 14 -17c8,-11 18,-28 18,-43 0,-8 0,-15 -10,-20 -2,-1 -5,-3 -8,-3l0 -1c2,0 3,-1 4,-3l12 -13c1,-1 1,-1 1,-2l7 -7c1,-1 2,-2 4,-3l0 -1c-15,-4 -24,2 -28,2 1,-1 1,-1 2,-2l9 -10c3,-4 11,-12 15,-16 2,-1 3,-2 4,-4 -1,0 -1,0 -3,-1 -11,-3 -18,2 -22,2 1,-1 0,0 1,-1 3,-2 3,-2 7,-6 1,-1 2,-3 3,-4 5,-7 6,-18 8,-27 2,-13 6,-30 -2,-42 -1,-2 -2,-2 -3,-4l4 -7c0,-1 1,-2 1,-3 -2,1 -4,6 -10,7 1,-2 3,-3 4,-5l4 -5c1,-2 5,-10 6,-12 -3,2 -6,5 -10,5 1,-2 3,-3 4,-5 2,-3 9,-14 9,-17 -10,7 -19,6 -20,7 0,-2 2,-2 3,-3 8,-10 4,-22 8,-29 1,-1 2,-2 3,-4 -3,1 -6,3 -9,5 1,-2 4,-5 6,-13 1,-6 2,-11 2,-18 -1,1 -1,1 -1,2 -1,3 -2,6 -4,8 -1,2 -2,3 -4,4 -2,1 -3,2 -4,4 1,-3 6,-10 8,-26 1,-8 1,-21 -2,-28l-1 -1c-1,5 -1,7 -4,11 -2,2 -5,6 -7,8 1,-5 3,-8 3,-15 -2,1 -4,6 -10,8 2,-3 6,-5 10,-14 2,-6 0,-4 7,-10 2,-1 3,-2 5,-4l8 -6c1,-1 1,0 1,-1l-21 0c0,-2 0,-1 1,-2 2,-3 3,-11 7,-18 -2,0 -2,1 -4,2 -2,2 -7,8 -9,10 1,-2 2,-4 3,-6 2,-8 1,-9 7,-17 1,-1 1,-2 2,-3 -3,0 -4,2 -6,4 1,-7 1,-15 2,-22 0,-3 1,-4 2,-6 -4,0 -8,2 -11,3 -2,1 -3,2 -4,3l-2 3c0,0 0,1 0,1l0 -12c-3,2 -3,9 -7,11 0,-3 1,-4 0,-8 -1,-3 -1,-5 -2,-7 -1,-4 -1,-8 0,-12l0 -3c0,-1 0,-1 -1,-1 -2,2 -3,4 -4,6 0,0 0,1 0,1l-1 1c0,-6 -1,-10 -2,-14 -1,-7 0,-9 0,-15 -4,1 -5,10 -7,13 1,-15 -1,-11 -3,-25 -1,-4 0,-5 0,-9 -2,1 -4,10 -4,13l0 0c0,-2 0,-2 0,-4 0,-6 -4,-11 -4,-17 0,-3 0,-6 0,-9 -3,1 -3,6 -5,9 0,-5 -2,-7 -3,-11 -1,-6 1,-8 1,-13 -3,2 -5,7 -5,11l-1 -2c-1,-4 -3,-8 -6,-12 0,-1 -1,-1 -1,-2 -9,-16 -7,-20 -9,-23 -2,1 -5,6 -6,9 -2,3 -3,8 -3,12l0 0c0,-12 -14,-28 -15,-40 -4,2 -6,8 -8,12 -2,5 -2,10 -2,18l-1 -2c-4,-11 -12,-22 -12,-35 -2,0 -3,3 -4,4 -3,6 -6,11 -6,19 0,0 0,0 0,0 0,0 0,0 0,0l-3 -5c-1,-2 -2,-4 -3,-6 -3,-5 -6,-10 -9,-14 -1,-1 -1,-2 -2,-3 -1,-2 -3,-3 -4,-5l-12 -13c-1,-1 -1,-1 -1,-1 -2,-1 -3,-3 -5,-5 -1,-1 -1,-1 -2,-2 -1,-1 -1,-1 -2,-2 -6,-6 -13,-11 -20,-17 -2,-2 -3,-4 -5,-5l1 14c0,10 3,19 7,27l1 3c0,1 1,2 1,2 1,1 1,1 2,3 -2,0 -1,0 -3,-1 -8,-5 -19,-6 -28,-7 -4,0 -19,1 -22,2 1,0 0,0 1,1l8 4c2,1 3,2 5,2l9 5c2,1 3,2 4,3 10,7 15,10 23,19 3,3 12,13 12,17 -2,0 -4,1 -5,1l-4 1c-1,1 -1,0 -1,1 5,1 8,2 11,5 4,3 7,6 10,10 1,1 1,1 2,2 1,1 1,1 2,2 3,3 7,6 11,7 0,0 1,0 1,0l1 1 -4 0 15 13c-4,0 -1,-1 -11,-1 1,2 0,1 2,2 1,1 2,1 2,2 3,4 5,9 9,13 1,1 2,1 3,2 -4,-1 -6,-2 -10,-2 1,2 4,2 9,9 1,2 2,4 4,6 3,5 3,3 5,5 -2,0 -3,-1 -5,-2 -3,-1 -3,-1 -6,-1 2,3 6,3 13,15 1,2 2,4 4,6 -9,-1 -17,-11 -19,-11 0,9 1,14 4,22 1,3 6,10 8,12l3 3c0,0 0,0 0,0 -4,0 -9,-4 -12,-6 0,3 8,14 11,17 4,4 6,4 8,6 -6,0 -9,-4 -12,-6 1,4 7,13 11,16l5 4c-2,0 -4,-1 -5,-1l-5 -2c1,3 11,16 13,17l11 8c-7,0 -12,-10 -20,-10l5 5c4,4 12,14 12,20l-5 -8c-4,-5 -9,-10 -14,-14 -3,-2 -6,-4 -11,-4 1,2 2,3 3,6 5,10 6,25 9,35 1,5 3,8 6,12 0,2 -1,3 -1,4 -6,14 0,34 6,47l9 20c-5,0 -8,-5 -10,-7 0,6 5,18 7,21 -2,0 -4,-2 -5,-3 -3,-3 -2,-2 -4,-4 0,7 3,18 7,24 1,1 1,2 2,3 -5,0 -8,-6 -10,-7 1,8 4,20 8,27 1,1 1,0 1,2 -3,-1 -6,-5 -8,-7l-4 -7c-1,-2 0,-1 -2,-2l2 14c1,7 4,11 4,12 -2,-1 -3,-2 -4,-3 -1,-1 -1,-1 -2,-1 -4,-3 -8,-4 -14,-4l3 6c1,3 2,4 3,7 2,5 4,10 5,15 1,6 -1,6 -4,10l-15 25c-1,1 -1,2 -2,3 -5,9 -9,19 -11,29 -1,4 0,8 1,13 1,2 1,2 2,4 -3,-2 -2,-3 -4,-3 0,2 -1,4 -1,6 -1,4 -1,10 -1,14 0,2 1,4 1,6 -5,-1 -7,-10 -7,-11 -1,-2 1,-1 -1,-2l-3 14c0,2 -1,5 -1,7 0,3 1,5 1,8 -6,-7 -6,-13 -7,-15 -1,4 -4,16 -4,21 0,2 1,6 1,8 -2,-1 -2,-4 -3,-6 -1,-3 -1,-4 -1,-9 -3,2 -2,14 -2,17l0 0c0,-2 -1,-5 -2,-8 -3,-16 1,-21 1,-25 -2,0 -2,1 -3,2l-6 6c-1,1 -1,1 -1,1l-4 5c-3,4 -4,6 -7,11 -6,13 -5,26 -2,40 -7,-3 -17,0 -24,2 -2,1 -5,2 -7,3 -9,4 -27,13 -36,18 -10,6 -20,12 -19,26 0,3 1,6 2,8 0,2 -2,4 -2,7l-1 -2c-2,1 -7,8 -9,10 -2,2 -2,4 -3,6 -1,3 -1,4 -1,8 -2,-1 -3,-5 -3,-7l7 -10c9,-13 9,-24 9,-40 -1,0 -2,3 -4,5l-6 8c-1,1 -1,1 -2,3 -2,2 -3,3 -5,5 -6,4 -10,8 -17,10 -2,1 -5,2 -8,2l4 -7c3,-5 7,-13 7,-20 0,-9 1,-3 0,-14 0,-3 -1,-5 -1,-7 -1,1 -3,4 -5,7 -5,7 -16,13 -24,19 -6,5 -8,6 -12,12 -6,6 -16,24 -16,31 -2,-1 -1,0 -1,-3 0,-1 -1,-2 -1,-3 -6,-11 -22,-16 -34,-14 -3,0 -4,1 -7,2 -5,-9 -25,-14 -37,-8 -2,1 -3,2 -4,3 -1,-2 -6,-4 -9,-5 -8,-2 -17,-1 -24,3 -3,2 -6,4 -8,7 -2,-1 -3,-1 -6,-2 -10,-2 -23,1 -31,9 -3,3 -5,7 -6,11 -1,-1 -1,-2 -2,-5 -1,-2 -1,-3 -2,-6 -2,-4 -3,-7 -5,-11 -3,-5 -6,-9 -10,-13 -1,-1 -3,-3 -4,-4 -1,-1 -1,-1 -2,-2 -7,-5 -16,-11 -20,-15 -1,-1 -1,-1 -2,-2 -1,-1 -1,-1 -2,-2 -2,-2 -6,-7 -6,-9l-1 0c0,6 -3,16 0,28 1,4 3,7 4,11 2,3 5,8 6,9 -2,0 -6,-1 -7,-2 -2,-1 -4,-2 -6,-3 -6,-3 -9,-5 -13,-9l-4 -5c-2,-3 -9,-10 -10,-14 -1,1 -1,1 -1,4 0,6 0,8 1,13 2,10 5,19 11,27l4 5c1,1 0,2 0,4l-2 3c0,-2 -1,-6 -2,-8 -1,-3 -3,-6 -5,-9 -1,-2 -5,-6 -7,-7l0 2c-2,-8 -4,-2 -2,-10 2,-9 1,-15 -4,-21 -1,-1 -1,-1 -1,-1 -1,-1 -1,-1 -3,-2 -7,-6 -11,-7 -19,-11 -5,-3 -26,-13 -30,-15 0,0 0,0 0,0 -5,-2 -11,-5 -18,-5 -4,0 -6,1 -9,1l2 -10c2,-12 0,-19 -4,-30 -3,-8 -17,-24 -21,-25 0,4 4,12 1,26l-2 7c0,-3 1,-15 -2,-17 0,3 0,5 -1,8l-1 2c-1,2 -1,3 -2,4 0,-10 1,-10 -2,-22 -1,-3 -1,-5 -2,-6 0,5 -3,13 -6,15 1,-7 2,-6 0,-15l-2 -10c0,0 0,-1 0,-1 0,0 0,-1 0,-1 0,-1 0,0 -1,-1 -1,5 -3,10 -8,13 2,-8 3,-11 1,-20 0,-2 -1,-5 -1,-7 -2,1 -2,2 -4,3 0,-2 1,-2 1,-3 6,-16 -9,-43 -17,-55l-11 -18c-1,-2 -3,-3 -2,-7 1,-6 4,-14 6,-19 1,-1 1,-2 2,-4l4 -6c-6,0 -11,3 -16,6 -2,1 -3,3 -5,3 0,-1 0,-1 1,-3 1,-1 1,-2 1,-3 2,-6 4,-15 4,-21 -1,1 -8,15 -14,17 3,-4 5,-8 7,-13 1,-4 3,-13 3,-17 -1,1 -5,7 -10,7 6,-10 7,-17 9,-27 -3,2 -4,7 -9,8 3,-5 7,-15 7,-21 -3,2 -5,6 -10,7 1,-1 1,-3 2,-4l4 -8c8,-16 15,-38 9,-55 -1,-2 -1,-3 -2,-4 1,-2 2,-3 3,-5 3,-9 3,-12 5,-21 4,-22 8,-22 9,-27 -10,0 -23,14 -28,22 -1,1 0,0 -1,1l-1 1c1,-9 17,-23 17,-24 -7,0 -13,10 -20,10 1,-1 4,-2 7,-5 6,-5 7,-6 12,-13 1,-2 4,-6 5,-8 -1,1 -3,1 -5,2 -1,1 -4,1 -5,1 1,-1 1,-1 2,-2 5,-4 13,-13 13,-18 -2,1 -3,3 -5,4 -2,1 -5,2 -7,2l6 -4c4,-3 12,-15 13,-18 -1,0 -2,1 -3,2 -1,1 -2,1 -3,1 -2,1 -4,2 -6,2l4 -3c7,-6 11,-19 12,-28l1 -6c-2,0 -7,5 -9,7 -2,2 -7,5 -11,5 4,-6 8,-12 12,-16l5 -4c0,0 0,0 0,0 -3,0 -4,0 -6,1 -1,0 -2,0 -3,1 -1,0 -1,1 -3,1l2 -2c4,-3 6,-10 10,-13 2,-2 4,-2 5,-4 -6,0 -7,1 -10,1 2,-3 3,-2 7,-10 6,-10 9,-8 7,-9 -4,-1 -7,1 -10,1l6 -5c2,-2 0,-1 5,-5l4 -3 -4 0c0,0 0,0 0,0l10 -6c9,-7 10,-17 27,-21 -2,-2 -8,-3 -10,-3 0,-2 1,-3 2,-4 1,-2 2,-3 3,-4 1,-1 1,-1 1,-2l3 -4c3,-3 2,-3 7,-7l10 -8c10,-8 22,-14 33,-19l2 -1c-4,-1 -9,-1 -14,-2 -10,-1 -25,1 -34,6 -2,1 -4,2 -5,3 6,-10 11,-23 12,-35 0,-5 1,-10 1,-15 -2,0 -3,3 -5,4 -1,1 -3,3 -5,4 -1,1 -1,1 -2,2l-17 15c-3,2 -11,11 -14,14 -1,1 -1,1 -2,3l-8 10c-4,6 -9,14 -12,20 -1,1 -1,2 -1,3 -1,1 -1,2 -2,3 0,-7 -3,-13 -6,-19 -1,-2 -2,-4 -4,-5 0,10 -8,25 -13,36l-1 1c0,-8 0,-11 -2,-18 -1,-4 -5,-11 -8,-13 0,5 -3,11 -5,15 -4,8 -10,16 -10,25l0 0c0,-6 -5,-18 -10,-21 0,4 -2,8 -3,11 -2,7 -7,13 -10,19l-4 10c0,-6 -2,-10 -5,-12 0,4 2,8 1,12 -1,4 -3,7 -3,11l0 0c0,-3 -2,-8 -4,-9 0,24 -4,12 -4,29l0 0c0,-3 -2,-11 -4,-12 0,3 1,5 0,9 -1,8 -4,12 -4,20 0,2 0,2 0,4 -2,-3 -3,-7 -5,-11 -1,-1 -1,-2 -3,-3 3,12 -1,18 -1,29 -2,-3 -2,-8 -6,-10 0,7 2,8 0,16 -1,3 -2,7 -2,11 0,2 0,2 0,4l-3 -6c-1,-2 -2,-4 -3,-6l0 10c0,1 0,2 0,3 -3,-3 -2,-5 -6,-8 -2,-2 -8,-3 -11,-3 2,4 3,12 3,17 0,2 0,2 0,4 0,1 0,2 0,4 0,2 0,2 0,4 -2,-1 -3,-4 -6,-4 0,1 1,1 2,3 6,8 5,13 8,21 1,1 1,2 1,3z"/>
      <path class="fil3" d="M1096 1076c0,-2 1,-5 3,-5l396 0c7,0 11,7 8,7l-403 0c-2,0 -4,0 -4,-2zm10 -15l382 0c2,0 4,4 5,6l-391 0c0,-3 1,-6 4,-6zm299 -32l49 0c1,0 5,5 6,6 2,2 4,4 5,7l11 14 -90 0 7 -10c1,-1 1,-2 2,-3 2,-2 3,-4 5,-7 1,-2 4,-7 5,-7zm-269 -1l48 0c1,0 4,4 5,6l15 22 -88 0c0,-2 14,-21 16,-25 1,-1 2,-3 3,-3zm191 11c12,0 24,0 37,0 5,0 4,0 7,2l5 5c2,2 3,3 5,4l4 5 -42 0c-1,-3 -12,-14 -14,-17zm-67 0l62 0c2,3 5,6 8,9 1,2 2,3 4,4 1,2 3,3 4,5l-63 0c-3,-5 -7,-9 -10,-13 -1,-2 -2,-3 -3,-5zm-63 0l58 0 14 18 -60 0c0,-2 -10,-15 -12,-18zm-8 -12l0 -4 21 0c1,0 3,4 5,6 1,2 4,5 4,7l-24 0c-2,-3 -6,-7 -6,-9zm217 -30l50 0 0 28 -50 0 0 -28zm-269 -1l48 0 0 29 -48 0 0 -29zm203 27l32 0c-2,4 -8,12 -9,14l-12 0c0,-2 -9,-12 -11,-14zm-60 0l55 0c3,4 8,9 10,12l-52 0c-2,0 -2,-1 -3,-2l-9 -10zm-64 0l56 0c3,0 2,0 4,1l10 11 -63 0c-2,-4 -5,-8 -7,-12zm-27 -14l39 0c1,0 4,4 5,5 2,2 3,3 4,6l-48 0 0 -10zm150 -6l29 0 0 16 -29 0 0 -16zm-41 6c7,0 15,0 21,0 3,0 3,1 6,4 2,2 4,4 5,6 -7,0 -14,0 -21,0 -5,0 -4,-1 -9,-7 -1,-1 -2,-2 -2,-3zm-63 0l58 0c2,4 6,6 8,10l-58 0c-2,-3 -6,-7 -8,-10zm-46 -13l3 0c2,0 3,3 3,4 1,2 2,3 3,5l-9 0 0 -9zm66 0l53 0c2,0 8,7 9,9l-55 0c-2,-3 -6,-7 -7,-9zm-58 0l50 0c2,0 8,7 9,9l-54 0c-2,-3 -3,-6 -5,-9zm204 -7c0,-2 0,-5 3,-5l52 0c5,0 4,8 1,8l-54 0c-2,0 -2,-2 -2,-3zm-42 -6c1,1 2,1 3,2l5 5c2,2 13,11 13,13 0,11 1,9 -3,13 -3,3 -2,3 -6,3 0,-22 2,-15 -8,-24 -1,-1 -3,-3 -4,-4 -1,-1 -1,-1 -1,-3 0,-1 0,-3 0,-4zm-32 -10l27 0c1,0 1,0 1,1l0 15 -28 0 0 -16zm-144 19l-48 0c-4,0 -3,-5 -2,-8 1,-1 2,-1 4,-1l47 0c7,0 7,9 0,9zm183 -9c8,0 10,-1 13,2 1,2 1,1 1,7 -6,0 -5,0 -12,-7l-2 -2zm-93 0c7,0 13,0 20,0 4,0 3,1 6,4 2,2 4,3 5,5 -7,0 -13,0 -20,0 -5,0 -4,-1 -6,-4 -2,-2 -3,-3 -5,-5zm-31 0l26 0c1,2 7,7 7,9 -7,0 -14,0 -21,0 -5,0 -5,0 -7,-3 -2,-2 -4,-4 -5,-6zm-29 0c7,0 13,0 20,0 4,0 3,0 6,4 1,2 3,4 5,5l-25 0c0,-2 -5,-7 -6,-9zm-23 0l18 0 6 9 -23 0c2,-4 1,-6 -1,-9zm211 -7c0,-2 1,-4 3,-4l50 0c5,0 7,8 -2,8l-45 0c-4,0 -6,-1 -6,-4zm-219 4l-47 0c-5,0 -5,-8 0,-8l48 0c5,0 6,8 -1,8zm194 -1l-17 0c-2,-3 -1,0 -1,-7l17 0c2,0 3,2 3,3 -1,1 -2,2 -2,4zm-186 -7l34 0c3,0 4,2 6,6l-40 0c0,-2 0,-4 0,-6zm41 0l48 0c4,0 4,-1 6,2 1,1 1,1 2,2 1,1 1,1 2,2l-48 0c-6,0 -5,1 -8,-4 -1,-1 -1,-1 -2,-3zm58 -50c2,1 2,1 3,3 1,1 3,2 3,3 1,2 0,9 0,12 4,2 8,6 12,8l0 16c4,2 8,7 12,9l0 16c0,4 5,6 8,9l4 4c1,1 1,0 1,2l0 10c0,2 -1,2 -1,3 -2,0 -1,-1 -2,-2l-39 -43c-2,-3 -2,-2 -2,-6l0 -44zm115 -36l50 0 0 82 -50 0 0 -82zm-191 -12l61 0 0 94 -61 0 0 -94zm-79 12l50 0 0 82 -50 0 0 -82zm179 74l0 -13 29 0 0 14 -27 0c-1,0 -1,0 -1,-1zm-12 -32l28 0 0 9 -28 0 0 -9zm-8 -28l15 0 0 13 -15 0 0 -13zm22 13l-4 0 0 -15 5 0 0 13c0,1 0,1 -1,1zm-30 -1l0 -13 5 0 0 15 -4 0c-1,0 -1,0 -1,-1zm24 -18l0 0zm-26 0l0 0c0,0 0,0 0,0zm26 0l1 0c0,-1 0,1 0,-1 -1,-2 0,2 0,-1 3,0 7,-1 10,0 0,3 -2,2 -8,2l-3 -1zm-25 -2c4,0 8,-1 10,1 -1,2 -1,1 -7,1 -1,0 -1,0 -2,0l0 -1zm-1 0l0 0c0,0 0,0 0,0zm-297 -5c0,-11 1,-18 6,-27 2,-3 9,-14 12,-16l3 6c5,12 14,30 21,40l14 21c12,18 12,41 -4,56 -6,6 -7,7 -13,12l-10 6 1 -4c1,-2 1,-3 1,-5 4,-22 -5,-34 -16,-50 -8,-12 -16,-24 -16,-40zm568 100c-8,-4 -17,-14 -22,-20 -7,-9 -13,-19 -13,-32 0,-12 8,-19 14,-29l7 -10c5,-8 11,-18 16,-27 4,-7 8,-16 10,-24 3,1 10,10 12,13 4,7 7,15 8,23 2,11 -1,26 -8,35 -6,9 -11,13 -16,21 -2,3 -3,5 -4,8 -5,10 -8,25 -5,36 0,2 1,3 1,5zm-245 -101l0 3c-1,-1 0,1 0,-1 0,-3 0,0 0,-1zm-25 3l0 0 0 0zm0 -3l0 2c-1,-1 0,0 0,-1 0,-2 0,-1 0,-1zm26 3c2,0 2,0 4,0 -1,-2 -2,-1 -2,-5l7 0c1,1 1,2 1,4 -3,2 -7,2 -9,1 -2,-1 0,0 -1,-1zm-25 0l3 0c-1,-2 -2,-2 -2,-5 2,0 5,0 6,0 2,1 3,3 2,4 -2,1 -3,0 -5,0 -1,0 -2,0 -2,0l-2 -1zm26 -3l0 0 0 0zm-26 0l0 -1 0 1zm27 -1l0 0 0 0zm0 0l0 0zm-26 0c0,0 0,0 0,0l0 0zm30 -4c0,1 0,1 1,2l-2 0c0,-2 0,-1 1,-2zm-26 0c1,1 1,1 1,2l-3 0 2 -2zm-104 1l-52 0c-6,0 -5,-11 -1,-11l55 0c4,0 5,11 -1,11zm270 0l-53 0c-5,0 -5,-11 0,-11l53 0c2,0 2,0 3,2 3,5 -1,10 -3,10zm-242 -11l61 0 0 0 -61 0 0 0zm-10 -24c1,1 1,1 2,6 1,5 4,16 4,19l0 96 -20 0 0 -78c0,-8 1,-3 4,-8 1,-3 2,-9 0,-12 -1,-1 -2,-2 -3,-2 2,-3 13,-19 14,-21zm190 4l73 0c0,2 -6,10 -8,12 -1,1 -2,4 -3,4l-50 0c-1,0 -1,-1 -2,-2l-4 -6c-2,-3 -4,-6 -5,-8zm-118 15l-62 0c0,-4 -3,-10 -3,-15 5,0 2,0 8,4 13,10 23,-4 26,-4 7,0 5,0 8,2 2,3 7,5 11,5 5,0 12,-4 13,-8l4 0 -4 15zm-152 -15l73 0 -7 11c0,0 0,0 0,0 -1,2 -3,4 -3,6l-52 0 -10 -17zm301 -56l11 0 0 52 -11 0 0 -52zm-269 0l11 0 0 52 -11 0 0 -52zm139 -9c22,0 48,13 64,29 10,10 17,17 24,32l-13 0c0,3 9,16 11,19 -2,1 -2,0 -3,2 -3,4 0,11 2,14 1,1 2,1 2,3l0 80c0,1 -2,3 -3,5 -6,0 -12,0 -18,0 -5,0 -4,1 -7,-2l-5 -4 0 -17c-2,-1 -4,-3 -6,-5 -2,-2 -4,-3 -6,-4l0 -11c-2,-1 -12,-9 -14,-10l0 -18c0,-5 1,-3 1,-5 1,-2 -1,0 1,-4 2,-5 -6,-6 -7,-11l-5 6c-1,1 -1,0 -1,1 -3,2 -1,5 0,5l0 1c0,1 -1,0 0,3 1,2 1,1 1,4l-15 0c0,-1 0,-1 0,-2 1,-2 2,-1 2,-4 0,-2 0,0 0,-1 -1,-2 3,-3 0,-6 0,0 -1,-1 -1,-1 -2,-2 0,-1 -3,-3l-2 -2c-1,2 -2,3 -3,4 -1,1 -7,5 -2,8 -1,2 -1,1 -1,4 1,0 1,0 1,1l0 71 -4 0 0 -96 5 -19c1,-2 2,-5 2,-6l-10 0c-1,0 -1,0 -3,3 -14,15 -22,-3 -24,-3l-6 0c-2,0 -12,15 -25,6 -2,-2 -4,-3 -5,-6l-23 0c1,-2 3,-4 4,-6 2,-2 3,-4 4,-6 4,-6 9,-11 14,-16 1,-1 2,-2 3,-3l14 -11c15,-10 35,-15 54,-17 3,0 7,-1 10,-1zm229 130c0,-2 0,-1 0,-5 0,-7 -3,-15 -6,-20 -2,-4 -8,-13 -12,-14 0,-2 3,-10 4,-12l22 -55c1,-2 1,-4 2,-6l10 -25c3,1 13,13 15,17 12,17 9,36 2,55 -6,15 -10,21 -17,34l-7 11c-2,4 -5,7 -7,10l-7 10zm-518 -93c0,-15 5,-26 15,-37 2,-2 6,-7 8,-8l17 43c1,2 2,4 3,7l20 49c-4,3 -10,11 -12,16 -3,6 -5,15 -5,23l-7 -10c-2,-3 -5,-7 -7,-10 -8,-13 -12,-20 -19,-33 -6,-11 -12,-27 -12,-40zm413 -42l0 66 -10 0 0 -75 45 0 0 75 -10 0 0 -66c0,-1 0,-1 -1,-1l-23 0c-1,0 -1,0 -1,1zm-270 66l-12 0 0 -75 47 0 0 75 -10 0 0 -68 -25 0 0 68zm40 -10l0 -65 217 0 0 71 -1 -1c-9,-17 -18,-29 -33,-40 -8,-6 -11,-8 -20,-13 -5,-3 -10,-4 -16,-6 -25,-8 -51,-7 -75,-1 -15,4 -30,12 -43,21 -11,8 -21,19 -27,31 -1,1 -1,1 -1,2l-1 2zm268 -68l-319 0 0 -5 322 0 0 2c0,1 -2,3 -3,3zm-334 -17c1,0 1,0 2,0l342 0c4,0 -2,10 -6,10l-325 0c-5,0 -13,-4 -13,-9zm355 -10c0,3 -3,6 -6,6l-355 0c-1,0 -6,-5 -3,-6l363 0zm-19 205c0,-5 0,-12 0,-17l11 -40c4,-14 12,-39 15,-53l28 -99c0,-2 2,-5 2,-7 2,0 3,1 6,1 0,4 -19,66 -22,76l-16 57c-3,9 -5,18 -8,27l-15 50c0,2 0,2 -1,3zm-349 -214l375 0c2,0 0,0 1,0 -1,3 -4,4 -8,4l-365 0c-5,0 -7,-4 -4,-4zm-58 -1c3,0 5,-1 7,-2 1,4 2,8 4,13l11 39c4,15 11,37 14,51 4,14 10,36 15,51 3,9 9,29 11,39 1,4 0,12 0,16 -1,-1 -1,0 -1,-3 0,-2 0,-2 -1,-3l-14 -45c-5,-17 -11,-35 -15,-52l-27 -90c-1,-2 -1,-4 -2,-7 -1,-2 -2,-4 -2,-7zm232 -28l14 0c5,0 9,0 14,0l21 1c2,0 5,0 7,1 7,1 7,0 13,3l41 20 -209 0c2,-2 8,-4 10,-5l11 -5c4,-2 21,-11 24,-11 3,-1 19,-1 25,-2 7,-1 24,-2 30,-2zm129 -58l6 0 0 81 -6 0 0 -81zm-249 0l6 0 0 81 -6 0 0 -81zm-11 0l6 0 0 81 -6 0 0 -81zm-10 0l7 0 0 81 -7 0 0 -81zm296 81l-5 0 0 -81 7 0 0 80c0,1 0,1 -1,1zm-16 -1l0 -80 7 0 0 81 -5 0c-1,0 -1,0 -1,-1zm-375 3c-8,0 -8,-8 -4,-10 0,6 0,8 6,8 5,0 8,-2 11,-4 0,3 -1,3 -5,5 -2,1 -5,2 -8,2zm467 -9c0,8 11,7 16,7 -1,1 -1,1 -1,2 -3,0 -3,0 -5,0 -5,0 -13,-3 -13,-8 0,-1 0,-5 3,-5 2,0 0,1 0,3zm-286 -19l0 -3c3,0 5,0 7,0l14 -1c3,0 5,0 7,0l42 -1 44 3c4,0 6,-1 6,2 0,2 -3,1 -6,1 -9,0 -29,-2 -37,-2 -3,0 -5,0 -8,0 -15,0 -29,1 -43,1l-13 1c-5,0 -9,0 -14,0zm0 -6c1,-2 0,-1 5,-2 2,0 5,0 7,-1 24,-2 48,-3 72,-1l31 2c1,0 5,0 6,1 0,0 1,0 0,1 0,1 1,1 -4,0l-25 -2c-2,0 -5,0 -7,0 -14,-1 -24,0 -38,0 -3,0 -4,0 -7,0 -2,0 -5,0 -7,0 -8,1 -20,1 -27,2 -1,0 -3,0 -4,0 -2,0 -2,0 -3,0zm0 -4l0 -1c2,0 5,0 8,-1l58 -3c8,0 37,1 47,3 2,0 5,1 7,1l0 1c-6,0 -23,-2 -31,-2 -2,0 -5,0 -7,0 -2,0 -3,-1 -6,0l-19 0c-10,0 -19,1 -29,1l-14 1c-5,0 -9,1 -14,1zm-18 -39c0,-26 19,-38 40,-46 6,-3 11,-5 16,-9l5 -4c2,-1 3,-3 4,-4 1,-1 3,-3 4,-5 4,0 14,-1 18,0 1,0 1,1 1,2 1,1 1,2 2,2 13,14 38,19 50,30 10,10 17,18 17,34 0,13 -6,24 -15,32 -3,2 -3,2 -5,2l-18 -2c-6,-1 -13,-1 -19,-1l-39 -1c-3,0 -4,1 -7,0 -4,0 -9,1 -13,1 -4,0 -9,1 -12,1 -2,0 -4,1 -6,1 -2,0 -4,1 -6,1 -2,-3 -7,-6 -11,-15 -3,-6 -6,-13 -6,-21zm-79 -17c0,-3 3,-6 6,-6l34 0c2,0 3,1 4,1 4,3 3,10 -5,10l-32 0c-4,0 -7,-2 -7,-6zm308 6l-31 0c-7,0 -7,-3 -7,-7 0,-3 3,-5 6,-5l34 0c6,0 10,11 -2,11zm-32 -15c1,-1 0,-1 1,-1l30 0c1,0 1,0 1,1 -1,1 0,1 -1,1l-30 0c-1,0 -1,0 -1,-1zm-270 0c3,-1 28,0 33,0 0,1 0,2 -1,2l-29 0c-3,0 -2,-1 -2,-1zm-7 -13c0,-5 1,-7 4,-10 1,-1 5,-5 7,-5l25 0c5,0 16,12 9,21 -1,1 -4,3 -6,3l-31 0c-4,0 -8,-5 -8,-10zm281 -15l26 0c2,0 10,6 10,14 0,5 -4,10 -9,10l-30 0c-8,0 -12,-12 -4,-20 1,-1 4,-4 7,-4zm3 -6l19 0c2,0 2,2 3,3l-26 0c0,-2 2,-3 4,-3zm-270 0l19 0c2,0 3,1 3,3l-26 0c0,-2 1,-3 3,-3zm279 -11c1,1 3,3 4,4 2,2 2,1 4,4l-15 0c3,-5 4,-3 7,-8zm-270 0l1 0c1,4 6,4 7,8l-14 0c1,-3 6,-4 7,-8zm122 -4c0,-2 1,-4 3,-4l20 0c3,0 3,8 0,8l-20 0c-2,0 -3,-2 -3,-4zm22 -8l-19 0c-2,0 -5,-4 -5,-10 0,-4 4,-8 6,-11 2,-3 7,-6 7,-10 2,1 3,3 4,5 2,2 7,7 9,9 6,9 -1,16 -3,16zm-29 -9c0,7 4,8 5,12 -5,1 -3,11 0,12 0,2 0,1 -1,3 -1,1 -1,1 -2,2 -7,7 -17,12 -26,16 -4,2 -8,3 -12,5 -7,3 -15,9 -19,15 -12,16 -12,37 -2,54 3,5 6,8 10,12 2,2 0,0 1,2 1,2 1,1 1,3 -2,1 -2,3 0,4 -1,2 -1,1 -1,4 0,2 1,2 2,4 -3,1 -9,4 -12,6 -5,2 -34,18 -37,18l-2 0 0 -83c3,-1 4,-1 5,-3 6,-10 -4,-16 -4,-16 6,-2 8,-15 5,-22 -2,-4 -5,-6 -9,-8 -2,-1 -1,-3 -3,-6 -5,-8 -15,-7 -15,-21 -2,3 0,8 -8,14l-6 5c0,0 -2,2 -2,3 -1,1 -1,3 -1,5 -10,0 -16,19 -7,28 1,1 2,1 3,3 -9,2 -7,18 0,19l0 83c-9,0 -17,0 -27,0 -9,0 -18,0 -28,0 0,3 2,6 4,8 2,2 4,4 7,5 -2,5 3,10 8,10 0,6 5,10 10,12 1,0 2,0 2,2l0 81 -8 0c2,3 12,18 12,21 -2,0 -2,1 -3,3 -2,3 -2,12 2,13l0 27c0,0 0,0 0,0l-10 -34c-1,-4 -2,-7 -3,-11 -1,-4 -2,-7 -3,-11l-10 -35c-6,-21 -12,-42 -18,-63 -1,-2 -1,-4 -2,-6 -1,-4 -2,-8 -3,-12 -1,-3 -2,-8 -3,-11 4,-2 7,-4 7,-9 0,-15 -26,-12 -31,-1 -2,4 -1,8 1,11 2,4 5,4 10,4 0,5 6,12 -5,26 -5,6 -11,12 -17,18 -5,5 -10,10 -14,16l-5 8c-4,8 -6,15 -6,25 0,6 2,11 3,16 -2,2 -6,6 -7,8 -9,12 -14,21 -14,39 0,14 9,31 15,40 10,15 17,20 17,40 0,10 -3,22 -3,27 19,-10 41,-25 45,-48 1,-5 1,-9 0,-14 0,-4 -1,-9 -1,-14 0,-20 8,-29 21,-42 2,-2 3,-3 5,-5l5 -6c2,3 3,8 4,12l4 12c1,4 2,8 4,12 1,4 2,8 4,12l9 30c1,5 4,10 4,15 0,2 0,2 1,4 -6,4 -3,9 0,13 -2,3 -4,5 -4,10 0,3 4,6 4,8l0 29c0,0 -15,26 -16,27 0,0 0,0 0,0l-3 0c-3,1 -7,4 -7,7l0 3c-4,0 -7,2 -7,6 0,5 9,12 13,15 5,4 2,3 11,3l393 -1c2,0 5,0 7,0 2,0 4,-1 4,-3 0,-5 -3,-8 -7,-10 -3,-1 -4,0 -5,-3 -1,-2 -2,-4 -3,-5 -3,-2 -5,-2 -9,-2 0,-1 -1,-2 -2,-3l-19 -24c-1,-1 -2,-2 -2,-3 -2,-2 -1,-27 -1,-31 5,-1 7,-13 1,-16 2,-4 4,-7 1,-11l-3 -2c1,-3 25,-83 26,-88 1,-3 4,-10 4,-13l1 0c1,6 14,14 19,19 9,11 13,23 10,38 -1,6 -1,7 -1,14 0,11 5,20 11,28 6,8 12,14 19,20 3,3 12,9 17,10 0,-3 -4,-15 -4,-28 0,-17 10,-28 17,-38 9,-14 16,-23 16,-44 0,-15 -7,-27 -15,-37 -3,-3 -6,-6 -8,-9 2,-10 3,-12 3,-22 0,-18 -14,-32 -25,-43 -3,-3 -5,-5 -8,-8 -5,-5 -12,-13 -14,-21 -1,-8 1,-8 2,-14 11,0 14,-16 5,-20 -3,-1 -7,-2 -11,-3 -4,0 -8,-1 -11,2 -5,4 -7,12 -2,17 1,1 1,1 2,1 0,4 -5,19 -6,23l-6 23c-1,4 -2,8 -3,12l-29 104c-1,3 -5,21 -7,23 0,-2 0,-26 2,-29 0,0 1,-1 1,-1 2,-3 3,-8 1,-12 -1,-2 -1,-2 -2,-3 1,-2 13,-20 13,-23l-14 0 0 -74c0,-1 4,-2 4,-10 6,0 9,-7 9,-12 5,0 9,-5 9,-10 4,0 6,-2 8,-5 1,-1 5,-9 2,-9l-47 0 0 -83c0,-2 3,-2 4,-4 4,-5 2,-16 -5,-17 3,-4 7,-3 7,-16 0,-7 -6,-12 -11,-14 0,-11 -16,-12 -16,-27l0 0c0,13 -9,13 -13,21 -3,5 1,4 -5,8 -11,7 -11,20 -1,28 -8,1 -10,14 -3,19 2,1 -1,-1 1,0 1,1 1,-1 1,1l0 83c-3,0 -4,-2 -7,-3l-12 -6c-6,-3 -28,-14 -31,-15 0,-2 1,-2 1,-4 0,-2 -1,-3 -1,-4 3,-1 1,-3 1,-4 0,-2 1,-1 0,-4 9,-6 19,-23 19,-35 0,-13 -2,-20 -10,-30 -7,-10 -19,-16 -30,-21l-10 -5c-6,-3 -12,-6 -17,-11 -2,-2 -2,-2 -4,-5 5,-4 5,-11 1,-12 4,-8 12,-16 -4,-28 -4,-3 -9,-8 -10,-14 -1,1 -2,5 -7,11 -5,5 -12,10 -12,18z"/>
      <path class="fil3" d="M1287 430l0 27 -4 0c0,-5 -1,-10 -1,-14 0,-3 1,-3 -2,-4 -2,1 -1,6 0,8 0,3 1,6 1,9 -2,0 -1,0 -3,0l-4 -20c0,-2 0,-6 -3,-6 -3,0 -1,4 -1,5 1,4 4,17 4,21 -1,0 -3,0 -4,1 0,-2 -4,-14 -5,-17 -3,1 -1,4 0,8 1,3 2,7 3,9l-3 1 -5 -12c-1,-4 -4,-8 -5,-12 -5,0 -3,2 -2,5l6 13c1,2 3,5 3,7 -2,0 -3,1 -4,1 -1,-2 -6,-14 -8,-15 -2,-1 0,0 -1,0 -1,0 -2,0 0,4 2,3 6,9 6,13 -2,0 -2,1 -4,1l-14 -19c-1,-1 -1,-2 -3,-2 -3,2 -2,1 6,13 2,3 7,8 7,11 -1,0 -2,1 -3,2 -4,-3 -8,-12 -12,-13 -1,2 -1,2 1,3 1,1 2,2 3,4 2,2 5,5 6,7 -1,1 -2,2 -3,2 -2,0 -9,-7 -11,-9 -2,-2 -8,-8 -11,-9 -1,1 -1,1 -2,2 2,3 13,13 17,16 2,2 4,4 6,6l5 -4c18,-13 41,-18 63,-14 9,2 17,5 25,10 2,1 3,2 5,4 2,1 3,3 5,4 3,-2 10,-10 14,-13 1,-1 2,-2 3,-3 2,-2 5,-4 5,-6 -1,-1 -1,-1 -2,-1 -1,0 -13,12 -15,13 -2,1 -4,4 -5,5 -1,-1 -3,-2 -3,-3 1,-1 2,-3 3,-3l6 -7c1,-1 3,-3 1,-4 -2,-1 -5,5 -6,6 -2,2 -4,5 -6,7 -2,-1 -2,-1 -4,-2 2,-4 8,-11 11,-16 1,-1 4,-4 4,-6 0,-2 0,-1 -1,-1l-1 0c-2,1 -3,3 -4,5 -2,2 -11,15 -12,17 -2,0 -3,-1 -4,-2 1,-3 3,-5 4,-8 1,-2 1,-3 2,-4 1,-2 2,-2 0,-4 -2,1 -3,5 -5,7 -5,8 -2,8 -8,7 0,-4 6,-15 8,-19 1,-2 4,-6 -1,-6 -2,0 -3,4 -3,5l-5 12c-1,2 -2,4 -3,6 -1,0 -3,-1 -4,-1 1,-4 5,-12 5,-16 0,-2 0,0 0,-1 -2,0 -2,1 -2,3 -5,15 -3,13 -8,12 0,-2 1,-4 1,-7l3 -14c1,-3 2,-6 -1,-6 -2,0 -3,10 -4,12 -1,4 -3,9 -3,13 -1,0 -1,0 -3,0 0,-5 2,-14 1,-18l-2 0c-1,5 -1,12 -1,17l-4 0 0 -27c-2,0 -2,-1 -3,0z"/>
      <path class="fil3" d="M1222 915c0,-1 0,-1 1,-2 1,0 2,1 2,2l0 43c7,0 14,0 21,0l16 0c2,0 2,-1 2,-4l0 -38c0,-3 0,-3 1,-4 1,0 2,0 2,2l0 46 -46 0 0 -46zm42 -6c1,-1 1,-1 2,-2l2 2 -2 2 -3 -2zm-40 -2l2 2 -2 2 -2 -2 2 -2zm2 -1c1,-1 2,-1 3,-1 0,-12 4,-12 10,-15 2,-1 4,-2 5,-3 11,7 16,3 16,18 1,1 2,2 4,2 -1,1 -2,2 -4,3l2 2c-1,1 -2,2 -2,3l0 42 -33 0 0 -42c0,-2 -1,-1 -2,-3 1,-1 2,-2 3,-2 -1,-2 -2,-2 -3,-3zm0 -3c-1,0 -2,1 -2,1 -1,-1 -1,-1 -1,-2l0 -20 46 0 0 20c0,1 -1,3 -3,2 -2,-2 3,-10 -13,-16 -3,-1 -5,-3 -8,-4 -2,1 -4,2 -6,4 -9,4 -13,6 -13,16zm-7 0c0,1 2,3 3,4 -2,1 -2,1 -3,3l2 3c-1,1 -2,2 -2,3l0 48c0,1 0,1 1,1l51 0 0 -50c0,-1 -1,-2 -2,-3 1,-2 1,-1 2,-3 -2,-1 -1,-1 -3,-2 1,-3 3,-1 3,-4l0 -24c0,-1 0,-1 -1,-1l-51 0 0 25z"/>
      <path class="fil3" d="M1193 1283c0,5 1,7 7,9 8,2 8,-1 11,-2 0,3 1,4 3,5 10,6 42,10 49,7 1,3 3,3 6,3 3,0 4,-1 6,-2 2,1 9,8 11,0 1,2 2,3 5,4 4,1 12,1 14,-2 5,-5 2,-17 -4,-19 0,2 -1,4 -1,6 0,1 4,3 4,7 -2,0 -12,2 -15,0 -2,-2 -1,-3 -2,-5 -2,1 -1,0 -2,3 -1,2 -1,2 -2,3 -2,-1 -4,-1 -6,-2 0,-2 1,-3 0,-4 -2,1 -2,3 -4,4 -3,2 -4,1 -7,1 1,-2 1,-2 1,-5 -5,1 0,4 -13,4 -11,0 -25,-2 -34,-6 -10,-3 -8,-4 -7,-9 -5,0 0,4 -9,4 -2,0 -7,-2 -8,-3 -2,-2 -1,-6 -1,-8 1,-6 3,-12 3,-18 0,-2 1,-4 0,-3 0,0 -3,2 -3,3 -1,1 -1,7 -1,9 -1,5 -3,14 -3,18z"/>
      <path class="fil3" d="M1391 1265c2,0 1,0 2,0 0,2 0,1 -1,2 -3,2 -4,-2 -1,-2zm2 9c3,0 4,-3 4,-5 7,5 -8,11 -14,13 -2,1 -3,1 -5,2l-10 3c-3,1 -3,0 -5,0 0,0 4,-10 -4,-10 -7,0 -11,3 -11,10 0,4 2,-2 8,1 -4,5 -26,9 -31,8 -5,-1 -5,-6 -6,-13 -1,-3 -1,-5 -2,-8 -1,-3 -2,-5 -2,-8 -2,1 -1,0 -2,2 -1,4 0,5 2,12 3,12 2,23 13,23 12,0 28,-5 32,-11 2,1 3,2 7,2 5,0 18,-5 22,-7 2,-1 3,-2 5,-2 3,-1 6,-4 9,-6l1 -2c4,-11 -15,-28 -17,-17 0,2 0,3 0,6 1,4 3,7 7,7z"/>
      <path class="fil3" d="M1276 589c0,0 0,0 0,0 0,0 0,0 0,0l-2 3c-5,9 -16,14 -25,19l-11 6c-5,3 -9,6 -12,10 -10,13 -9,32 2,46 1,2 7,8 9,9 1,0 8,-1 10,-1 -1,-2 -3,-3 -5,-5 -5,-5 -9,-10 -11,-18 -3,-15 0,-24 8,-33 0,0 0,0 0,0l2 -2c9,-7 19,-9 28,-21 2,-3 6,-9 6,-13z"/>
      <path class="fil3" d="M1254 395c1,2 1,2 2,3 -2,0 -3,-1 -5,-1 1,-2 1,-2 3,-2zm37 -20c2,1 2,2 3,4 -3,0 -3,-1 -5,-1 0,-2 1,-2 2,-2zm-22 17c7,0 9,1 14,1 0,0 0,0 0,0l-7 2c-4,1 -13,2 -17,0 -2,-1 -4,-4 -6,-4 -2,0 -4,4 -6,6 -3,2 -7,2 -9,1 -5,-2 -6,-12 -9,-14 -2,3 2,9 3,12 -1,1 -2,2 -4,3 -8,3 -10,-1 -10,2 0,3 1,5 3,5 5,0 11,-3 11,-7 3,2 2,5 9,5 3,0 5,-1 6,-3 1,1 1,1 3,2 2,1 3,1 6,1 1,0 1,-1 2,-2 7,2 17,0 23,-3 9,-4 7,-3 16,-3 1,0 3,-3 3,-4l-19 -2c-5,-1 -4,0 -6,-2 2,0 4,-1 5,-2 2,-1 3,-2 4,-4 5,1 10,7 10,-3 0,-2 -4,-10 -8,-5 -4,5 -2,8 -15,13 -3,1 -5,3 -5,7z"/>
      <path class="fil3" d="M1355 779c5,0 20,9 25,13 12,9 16,17 18,19l0 -28c0,-5 0,-4 -5,-4 -12,0 -25,0 -38,0l0 1z"/>
      <path class="fil3" d="M1196 811c1,-1 3,-3 4,-5 10,-12 21,-20 36,-26 2,-1 2,0 3,-2l-43 0 0 32z"/>
      <path class="fil3" d="M1245 648c0,14 5,21 12,31 2,-1 6,0 9,0 0,-6 -27,-26 -3,-55 2,-2 6,-6 8,-9 3,-4 4,-6 5,-12 -1,1 -3,4 -4,5 -3,4 -9,8 -12,12 -1,1 -1,2 -2,2 -5,5 -12,15 -12,26z"/>
      <path class="fil3" d="M1300 589c0,1 5,6 6,7l10 9c2,1 4,3 6,4l17 12c1,1 1,1 3,2 4,4 7,6 10,14 4,12 -1,27 -8,38 -1,2 -3,4 -4,6 2,0 3,0 6,0 4,-6 4,-5 7,-12 7,-16 6,-32 -5,-45 -2,-2 -9,-7 -11,-9 -13,-9 -17,-9 -30,-19 -2,-2 -6,-5 -7,-7z"/>
      <path class="fil3" d="M1070 467c0,-2 3,-6 4,-7 1,1 1,2 1,3 -1,2 -3,3 -5,4zm30 -18c-1,2 -4,3 -7,3 -6,0 -11,-10 -16,-13 0,6 1,6 4,9 3,3 6,5 6,8 0,2 -4,11 -10,5 -3,-3 -7,-10 -9,-11 0,4 1,5 2,7 -3,5 -6,9 -3,15 5,0 8,-3 8,-8 2,1 8,7 12,0 2,-2 1,-5 1,-9 9,5 19,-5 8,-14l-7 -6c-2,-1 -3,-4 -5,-4 0,7 4,8 10,13 2,1 3,2 4,4z"/>
      <path class="fil3" d="M1327 394c-3,0 -5,0 -7,0 1,-2 5,-3 8,-3 0,2 0,2 0,3zm8 6c-6,0 -5,-6 -4,-12 0,-2 1,-4 1,-6 -3,1 -3,4 -3,7 -7,0 -20,10 -7,11 3,0 4,-1 6,-3 0,8 4,9 9,9 4,0 5,-4 7,-5 5,9 12,7 15,3 3,-5 -1,-15 -1,-23 -6,2 -1,16 -1,21 -5,1 -10,-3 -10,-7 0,-2 0,-5 0,-8 0,-2 0,-5 0,-8 -4,1 -3,9 -3,12 0,3 1,9 -7,9z"/>
      <path class="fil3" d="M1308 604c0,5 9,15 12,19l5 6c8,11 9,20 4,33 -2,5 -5,9 -9,13 -1,1 -3,3 -3,4l8 0c5,-7 7,-9 10,-19 5,-17 -1,-30 -14,-41 -4,-3 -8,-7 -11,-11 -1,-1 -1,-1 -2,-2l-1 -2z"/>
      <path class="fil3" d="M1153 421c0,-4 2,-2 4,-2l0 1c-1,0 -3,1 -4,1zm32 -19c0,3 0,1 1,3 0,1 1,1 1,2 -3,1 -4,1 -6,0l0 -3c-3,1 0,2 -3,6 -1,2 -3,3 -6,3 0,-2 0,-3 0,-5 -3,1 2,4 -7,8 -1,1 -2,1 -4,2 -2,-1 -3,-4 -7,-4 -3,0 -6,10 0,11 2,1 4,-1 6,-1 0,9 -4,14 -11,17 -2,1 -2,0 -2,2 9,0 15,-4 16,-12 0,-3 -1,-6 -1,-8 2,0 3,-1 5,-2 2,-1 2,-2 4,-3 3,-1 8,-2 9,-6 14,3 8,-10 5,-11 0,1 0,1 0,2z"/>
      <path class="fil3" d="M1157 1270c0,12 21,18 28,4 2,-4 4,-11 4,-17 0,-3 -4,2 -7,3 0,13 4,15 -8,15 -10,0 -17,-10 -8,-17 1,-1 2,-1 2,-2 -2,0 -3,1 -4,2 -3,2 -8,7 -8,11z"/>
      <path class="fil3" d="M1440 424c4,-1 3,-1 7,-1 0,2 0,3 -1,4 -1,0 -4,-1 -5,-1 -1,-1 0,-1 -1,-2zm27 19c-4,0 -14,-6 -17,-8 -3,-2 -2,-5 -1,-9 0,-2 1,-3 1,-5 0,-1 2,-7 -1,-3 -1,1 -1,1 -1,3 -4,0 -6,0 -9,2 -9,6 2,8 2,8 1,0 2,-1 4,-1 0,5 -3,7 7,12 12,7 15,7 21,-7 1,-3 2,-5 3,-7 2,-4 1,-4 5,-6 -1,-2 0,-3 0,-6 -5,1 -4,3 -5,5 -1,2 -2,5 -3,8l-5 11c-1,1 -1,2 -1,4z"/>
      <path class="fil3" d="M1404 412l0 3c-2,0 -2,0 -4,0 0,-2 0,-1 2,-2l3 -1zm-12 -29c0,2 2,4 4,5 3,1 2,0 4,6 2,4 4,14 4,15 -2,1 -4,3 -6,4 -2,1 -5,-1 -5,4 6,0 14,8 14,-6 0,-3 -2,0 2,-5 2,-3 5,-8 6,-11 1,-3 1,-5 4,-5 0,-2 0,-4 0,-7 -2,1 -2,1 -4,2 0,6 -5,19 -9,21 0,-5 -7,-25 -11,-28 -1,1 -3,3 -3,5z"/>
      <path class="fil3" d="M1279 610c0,0 0,0 0,0l-5 13c-5,10 -8,10 -10,23 -2,11 4,21 9,29 3,5 2,4 9,4 -1,-2 -12,-12 -13,-27 0,-6 -1,-8 1,-15 1,-3 2,-6 3,-9 2,-4 5,-14 5,-18z"/>
      <path class="fil3" d="M1505 464c0,2 0,2 0,3 -2,0 -3,-1 -4,-2 1,0 3,-1 5,-1zm0 0l0 0zm-2 -30c0,3 0,5 3,6 0,4 1,14 0,20 -1,2 0,1 -2,2l-6 1c-2,0 0,0 -3,-1 -3,2 -3,2 -3,3 5,1 8,8 12,4 3,-3 2,-6 4,-8 10,-7 5,-3 13,-12 3,-3 3,-1 4,-3l1 -5 -1 0c-1,0 -1,0 -2,0 -3,1 -1,2 -6,8 -2,2 -7,8 -10,9l1 -8c1,-6 1,-17 -1,-22 -2,0 -2,0 -3,2 -1,1 -2,2 -2,3z"/>
      <path class="fil3" d="M1195 724l45 -1c-3,0 -16,-4 -16,-8 0,-4 4,-6 6,-8 -2,0 -3,1 -4,2l-13 6c-3,1 -6,3 -9,4l-7 3c-2,1 -1,0 -2,2z"/>
      <path class="fil3" d="M1311 647c0,11 -4,20 -10,28 -1,1 -2,2 -2,4 6,0 5,0 7,-4 6,-8 9,-16 9,-28 0,-15 -11,-18 -13,-35 0,-1 0,-2 -1,-3 0,19 10,23 10,37z"/>
      <path class="fil3" d="M1269 506c0,4 14,2 19,2 3,0 2,0 3,1 -2,1 -18,1 -22,1 -6,0 -5,-6 -6,-9 -1,-1 0,-1 -1,-1 0,1 -1,3 -1,4 -1,1 -1,1 -3,1 -3,0 -3,3 0,3 -2,7 -9,7 -14,7l0 1c3,0 10,4 14,-4 2,-4 0,-3 4,-7 0,8 7,7 12,7 3,0 14,0 17,-1 4,-1 3,-7 0,-7 -7,0 -15,2 -19,0 3,-5 10,-2 11,-8 -5,1 -13,5 -13,10z"/>
      <path class="fil3" d="M1122 405c1,0 2,1 3,2l14 19c1,1 2,2 2,3 -3,11 -16,15 -19,4 -1,-2 0,-3 -1,-4 0,4 -1,6 2,10 6,11 21,4 21,-8 0,-5 -12,-19 -15,-23 -1,-2 -1,-2 -1,-5 -3,-1 -3,-2 -6,-3l0 5z"/>
      <path class="fil3" d="M1304 1103c2,0 3,3 3,5 -4,0 -4,0 -6,-2 1,-1 1,-3 3,-3zm-7 5c0,5 8,6 11,6 0,3 1,7 3,10 2,2 1,2 2,2 5,-9 -2,-4 -2,-17 0,-10 -6,-16 -11,-7 -1,1 -3,5 -3,7z"/>
      <path class="fil3" d="M1415 908c-1,5 0,29 0,36 0,5 4,3 5,3 1,-5 0,-30 0,-37 0,-3 -3,-2 -5,-1z"/>
      <path class="fil3" d="M1159 910c0,7 -1,32 0,37 1,0 5,2 5,-3 0,-7 1,-31 0,-36 -2,-1 -5,-1 -5,1z"/>
      <path class="fil3" d="M1172 910c0,7 -1,32 0,37 1,0 5,2 5,-3l0 -33c0,-5 -5,-4 -5,-1z"/>
      <path class="fil3" d="M1319 1121l0 3c0,5 9,-6 11,-17l4 10c1,2 4,7 6,8 1,-1 2,-4 2,-5 -5,-7 -5,-6 -9,-16 -1,-2 -1,-5 -3,-6 -1,1 -2,4 -3,6 -2,6 -2,7 -5,12 -1,1 -3,4 -3,5z"/>
      <path class="fil3" d="M1428 910l0 35c0,3 5,3 5,0l0 -35c0,-3 -5,-3 -5,0z"/>
      <path class="fil3" d="M1145 910l0 35c0,3 5,3 5,0l0 -35c0,-3 -5,-3 -5,0z"/>
      <path class="fil3" d="M1441 910l0 35c0,3 5,3 5,0l0 -35c0,-3 -5,-3 -5,0z"/>
      <path class="fil3" d="M1244 1098c1,4 1,-1 3,11 1,4 2,8 2,11 -5,3 -4,3 -10,3 -2,0 -5,-2 -5,-5 0,-3 1,-3 1,-5 -2,0 -1,-1 -2,1 -3,5 -4,14 8,14 4,0 10,-4 10,-8l-2 -16c-1,-4 0,-2 0,-5 -1,-2 -2,-1 -2,-4l-1 0c0,1 -1,2 -2,3z"/>
      <path class="fil3" d="M1285 1125c2,0 1,0 2,-2 2,-5 -1,-13 -1,-16 7,-2 7,-5 7,-9 0,-2 0,0 0,-1 -3,1 -1,4 -7,4 -3,0 -3,-3 -7,-5 -1,3 -3,4 -1,6 3,4 5,9 7,13 0,2 1,6 1,9z"/>
      <path class="fil3" d="M1403 609c0,4 2,5 3,7l14 1c-1,-2 -8,-6 -9,-13 -1,-4 0,-3 0,-7 -4,2 -8,7 -8,12z"/>
      <path class="fil3" d="M1133 609c0,4 1,7 5,7 4,0 7,0 11,0 -1,-2 0,0 -2,-2 -6,-6 -8,-8 -8,-18 -4,2 -8,6 -8,12z"/>
      <path class="fil3" d="M1418 1276c3,-5 -7,-20 -10,-25 -1,-2 -1,-3 -2,-4 -1,-2 -4,-7 -5,-9l-1 0c-2,8 3,12 7,20 2,3 3,6 5,9 1,2 4,8 5,9z"/>
      <path class="fil3" d="M1303 510c1,-1 3,-2 4,-3 0,4 0,3 -4,3zm19 2c-6,0 -6,-3 -6,-12 -2,0 -2,1 -2,3 0,1 0,3 0,4 0,3 0,5 -4,5 -3,0 -3,-7 -2,-10 -3,1 -1,-1 -2,2 -1,2 -2,1 -4,3 -1,1 -6,6 -2,6 3,0 3,0 6,-1 4,8 7,1 9,0 1,3 8,6 8,-1 0,-2 -1,-3 -1,-5 -1,-2 -1,-4 -1,-6 -2,1 -1,3 -1,6 0,2 1,5 2,6z"/>
      <path class="fil3" d="M1203 408c0,6 -5,14 -9,16 -4,2 -5,1 -5,3 19,0 21,-19 11,-27 -2,-2 -2,-1 -4,-2 0,1 0,3 0,4 1,2 7,4 7,6z"/>
      <path class="fil3" d="M1260 1102c4,6 6,8 8,16 0,2 0,6 1,7 2,0 1,-1 2,-3 1,-6 0,-11 -2,-16 -1,-3 -3,-8 -5,-9l-3 5z"/>
      <path class="fil3" d="M1368 409c5,-1 2,-19 2,-22 -1,-5 0,-11 -1,-14 -4,3 -2,9 -2,11 0,8 1,14 1,24z"/>
      <path class="fil3" d="M1299 904l5 0 0 4 -5 0 0 -4zm-3 -1c0,11 -2,9 10,9 2,0 1,-3 1,-9 0,-2 -4,-1 -10,-1 -1,0 -1,0 -1,1z"/>
      <path class="fil3" d="M1113 446c0,-3 -2,-6 -4,-8 -5,-6 -11,-12 -16,-18 -1,-1 0,-1 -2,-1 0,1 1,4 1,5l18 20c2,2 2,3 3,3z"/>
      <path class="fil3" d="M1475 452c5,-1 10,-16 13,-22l3 -8c-6,3 -5,5 -9,14 -1,3 -2,5 -3,8 -1,2 -3,6 -4,8z"/>
      <path class="fil3" d="M1415 423c6,-3 10,-18 13,-26 1,-2 1,-2 2,-4 -5,1 -6,8 -9,14 -1,3 -2,5 -3,8 -1,2 -3,7 -3,8z"/>
      <path class="fil3" d="M1285 545c-1,1 -6,7 -7,8 -3,5 -1,7 1,11l7 0c-2,-3 -5,-4 -5,-9 0,-5 2,-7 3,-10z"/>
      <path class="fil3" d="M1209 1271c0,2 2,3 3,4 3,-1 2,-2 4,-2 0,1 1,3 2,3 2,-1 3,-2 4,-3 0,-1 -2,-4 -3,-5 -2,1 -2,1 -4,2 -1,-1 -1,-2 -2,-4 -2,1 -3,2 -4,3z"/>
      <path class="fil3" d="M1089 412c0,-2 0,-7 2,-4 1,1 -1,4 -2,4zm-1 1c-2,1 -3,0 -3,2 0,2 0,2 0,4l1 0 0 -3c2,0 2,0 3,-1 6,-3 5,-11 1,-11 -3,0 -2,5 -2,9z"/>
      <path class="fil3" d="M1372 368c1,-1 1,-2 2,-2 1,-1 2,0 3,1 -1,2 -2,2 -5,2zm-2 0c-1,0 -2,-1 -2,-1 -2,0 -3,3 -3,5l2 -2c2,1 4,2 7,1 5,-2 5,-5 4,-8 -3,-1 -5,0 -8,5z"/>
      <path class="fil3" d="M1116 388c1,-2 2,-2 2,1 -2,0 -1,0 -2,-1zm-2 0c0,3 1,3 4,3 0,2 -1,3 -2,4 0,1 -1,1 -1,2 -1,2 -1,0 -1,2 3,-1 4,-4 5,-7 1,-1 0,-2 2,-2 0,-3 -1,-1 -2,-4 -1,-3 0,-2 -3,-4 -1,1 -3,1 -3,5z"/>
      <path class="fil3" d="M1415 892c-1,3 0,4 0,9 0,3 5,3 5,0 0,-7 1,-12 -5,-9z"/>
      <path class="fil3" d="M1159 892l0 10c1,0 2,1 3,1 3,-1 2,-4 2,-9 0,-3 -5,-1 -5,-1z"/>
      <path class="fil3" d="M1172 893l0 8c0,3 5,2 5,0l0 -7c0,-3 -5,-3 -5,0z"/>
      <path class="fil3" d="M1171 380c1,1 1,0 2,2 -2,0 -2,0 -3,0l1 -2zm-3 1c0,3 0,4 4,4 -2,4 -5,7 -5,8 2,0 4,-2 5,-4 1,-1 1,-2 2,-3 1,-2 1,0 2,-2 0,-2 -1,-1 -2,-4 -2,-7 -6,-2 -6,0z"/>
      <path class="fil3" d="M1441 893l0 7c0,3 5,3 5,0l0 -7c0,-3 -5,-3 -5,0z"/>
      <path class="fil3" d="M1145 954l0 7c0,3 5,3 5,0 0,-9 1,-10 -3,-10 -1,0 -2,1 -2,2z"/>
      <path class="fil3" d="M1145 893l0 7c0,3 5,3 5,0l0 -7c0,-3 -5,-3 -5,0z"/>
      <path class="fil3" d="M1428 893l0 7c0,3 5,3 5,0l0 -7c0,-3 -5,-3 -5,0z"/>
      <path class="fil3" d="M1159 954l0 8c0,3 5,2 5,0 0,-9 1,-9 -3,-9 -1,0 -2,1 -2,2z"/>
      <path class="fil3" d="M1172 954l0 8c0,3 5,2 5,0 0,-9 1,-9 -3,-9 -1,0 -2,1 -2,2z"/>
      <path class="fil3" d="M1415 955l0 6c0,3 5,3 5,0 0,-9 1,-10 -3,-10 -1,0 -2,1 -2,3z"/>
      <path class="fil3" d="M1291 348c1,1 0,1 0,2 -1,0 -1,0 -2,-1 1,-1 0,-1 2,-1zm-4 2c0,2 1,2 3,2 0,2 0,1 -1,2l-4 3c-2,1 -1,2 0,2 2,0 3,-1 5,-2 1,-1 2,-2 3,-3 2,-1 1,1 2,-1l-1 -8c-4,-1 -6,3 -6,5z"/>
      <path class="fil3" d="M1428 954l0 7c0,3 5,3 5,0 0,-9 1,-9 -3,-9 -1,0 -2,1 -2,2z"/>
      <path class="fil3" d="M1441 954l0 7c0,3 5,3 5,0 0,-9 1,-9 -3,-9 -1,0 -2,1 -2,2z"/>
      <path class="fil3" d="M1327 370c2,0 2,0 2,2 -3,0 -2,-1 -2,-2zm-2 1c0,1 2,2 2,3 -2,1 -5,3 -8,3l0 1c5,0 6,-1 9,-3 2,-1 0,0 3,0 1,-3 0,0 0,-3 0,-3 1,-1 0,-6 -4,-1 -6,2 -6,4z"/>
      <path class="fil3" d="M1408 428c0,1 0,1 0,2 -3,-1 -1,0 -4,0l0 1c10,0 8,4 12,1 -2,-3 -6,-1 -6,-6 2,0 2,0 2,2 3,0 3,-1 2,-4 -2,0 -8,-1 -8,2z"/>
      <path class="fil3" d="M1292 491c0,2 1,0 0,3l2 0c-1,3 1,11 1,19l1 0c2,-11 -1,-13 -1,-20 2,0 2,0 2,-1 -2,-1 -3,1 -4,-1 2,-1 0,1 2,0 2,-1 0,-2 0,-3 -2,0 -3,1 -3,3z"/>
      <path class="fil3" d="M1468 454l0 4c0,0 -3,-1 -4,1 1,1 5,1 7,1 2,1 4,3 5,-1 -3,0 -5,-2 -6,-5 4,0 2,1 3,3 4,-1 3,-5 -1,-5 -2,0 -3,1 -4,1z"/>
      <path class="fil3" d="M1228 363c2,-1 2,-1 2,1 -3,-1 -1,-1 -2,-1zm-2 2c0,2 1,2 3,2 -1,3 -5,4 -5,7 1,-1 1,0 3,-1 1,-1 1,-1 2,-2 4,-4 1,-4 4,-4l0 -2c-2,-1 0,-3 -3,-5 -2,1 -3,2 -3,5z"/>
      <path class="fil3" d="M1220 365c2,-1 2,-1 2,1 -2,-1 -1,0 -2,-1zm1 4c-3,4 -4,4 -6,7 2,0 2,0 3,-1 5,-4 8,-9 3,-13 -2,1 -3,1 -3,4 0,2 1,3 3,3z"/>
      <path class="fil3" d="M1506 426c3,0 1,-1 3,0 1,2 4,5 8,5 2,0 3,-1 4,-2 -3,0 -5,-1 -7,-2 -2,-2 -3,-3 -4,-5 -2,0 -4,1 -5,3z"/>
      <path class="fil3" d="M1291 362c-2,0 -1,-1 -1,-3l-1 0c-1,4 -1,4 -4,4 0,-4 1,-1 0,-3 -2,2 -3,6 0,6 2,0 2,-1 3,-1 2,-1 1,0 3,0 3,0 4,-3 3,-7 -4,1 1,4 -3,4z"/>
      <path class="fil3" d="M1414 377c3,0 2,0 3,-1 3,4 7,0 7,-4 -2,0 -2,1 -2,3l-2 0c0,-3 1,-4 -1,-3 -1,1 -1,2 -3,2 -3,0 -1,-2 0,-4 -4,1 -4,6 -1,6z"/>
      <path class="fil3" d="M1347 368c-3,0 -3,0 -3,-3l-1 0c-1,3 -1,3 -4,3 0,-2 0,-2 0,-3 -4,2 -3,6 0,6 3,0 2,-1 4,-1 0,0 6,3 6,-6 -2,1 -2,1 -2,4z"/>
      <path class="fil3" d="M1195 379c0,1 3,3 -2,3 0,-2 0,-1 -1,-2 -1,2 1,4 -3,5 -1,-1 -1,-1 -1,-3l-1 0c0,3 0,5 2,5 2,0 3,-1 3,-3 7,0 5,-6 3,-8 0,1 0,1 0,2z"/>
      <path class="fil3" d="M1071 430l-1 1c-3,0 -1,-1 -3,-1 0,2 2,4 0,6 -2,0 -1,-1 -2,-2l-1 0c0,7 6,6 6,0 4,0 4,-5 0,-8 0,4 1,2 1,4z"/>
      <path class="fil3" d="M1253 367c0,1 1,2 -1,2 -3,0 0,-2 -3,-2 0,4 -2,4 -4,4l-1 -3c-2,8 4,6 5,3 5,1 6,-1 5,-7l-1 0c0,1 0,1 0,2z"/>
      <path class="fil3" d="M1327 495c0,7 1,11 1,20l1 0c1,-7 1,1 0,-13 0,-3 -1,-6 -1,-9l-1 0c0,1 0,1 0,2z"/>
      <path class="fil3" d="M1403 633c0,6 3,5 7,5 1,0 1,0 1,-1 -4,-1 -5,-4 -4,-8 -2,0 -2,0 -3,1 -1,1 -1,2 -1,3z"/>
      <path class="fil3" d="M1444 407c2,1 9,0 11,0 1,0 3,-2 3,-2 -2,-1 -9,0 -11,0 -1,0 -3,2 -3,2z"/>
      <path class="fil3" d="M1133 633c0,5 6,4 8,4 -1,-2 -4,-2 -4,-6 0,-1 0,0 0,-2 -3,0 -4,2 -4,4z"/>
      <path class="fil3" d="M1347 1270c2,1 4,2 6,2 1,-1 2,-4 2,-5 -2,-1 -3,-2 -6,-2l-2 5z"/>
      <path class="fil3" d="M1179 1248c0,1 1,6 2,6 2,0 4,-1 5,-1 -1,-2 -1,-4 -2,-6 -2,0 -3,1 -5,1z"/>
      <path class="fil3" d="M1298 1275c1,1 1,1 2,2 1,1 2,1 2,2 1,-1 3,-2 4,-4 0,-1 -3,-3 -4,-3 -1,0 -1,1 -2,2 -1,1 -1,1 -2,2z"/>
      <path class="fil3" d="M1379 1252c0,1 5,2 6,2 0,-2 1,-4 1,-6 -2,0 -3,-1 -5,-1 -1,0 -2,4 -2,5z"/>
      <path class="fil3" d="M1186 379c2,0 7,-6 8,-7 1,-2 1,-1 1,-4 -4,3 -3,3 -6,5 -2,2 -4,3 -4,7z"/>
      <path class="fil3" d="M1528 431l0 1c4,0 8,3 11,3 1,0 2,-1 3,-1l0 -1c-4,0 -8,-3 -11,-3 -1,0 -2,1 -3,1z"/>
      <path class="fil3" d="M1061 431c2,-1 2,-3 3,-5 3,-5 3,-4 2,-9l-1 0c-1,6 -7,8 -4,14z"/>
      <path class="fil3" d="M1262 371c2,0 10,-5 11,-5 1,-1 1,-2 2,-3 -2,0 -9,4 -11,5 -1,1 -1,2 -2,3z"/>
      <path class="fil3" d="M1477 406c2,0 6,1 8,1 2,0 6,1 7,-2 -5,0 -11,-2 -13,0 -1,1 -1,0 -1,1z"/>
      <path class="fil3" d="M1413 369c4,0 6,0 9,0 4,0 4,0 6,-3 -3,0 -6,0 -9,0 -4,1 -4,0 -6,3z"/>
      <path class="fil3" d="M1244 365c2,-1 4,-2 7,-4 1,0 3,-2 3,-2 0,0 0,0 0,0 0,0 0,0 0,0l1 -3c-6,3 -11,5 -11,10z"/>
      <path class="fil3" d="M1470 413c-6,0 -1,3 -5,10 -1,1 -2,2 -2,3 1,1 4,-3 5,-4 2,-3 1,-5 1,-9z"/>
      <path class="fil3" d="M1338 363l11 -3c1,-1 2,-2 2,-3l-11 3c-1,1 -2,2 -2,3z"/>
      <path class="fil3" d="M1459 465c3,1 8,2 10,2 2,0 2,-1 3,-1 -1,-1 -3,-1 -5,-2 -5,-1 -6,-3 -9,1z"/>
      <path class="fil3" d="M1400 437l0 1c7,1 11,4 14,0 -4,0 -7,-2 -11,-2 -1,0 -1,0 -2,1z"/>
      <path class="fil3" d="M1254 495c1,0 1,0 1,1 -2,-1 -1,0 -1,-1zm-2 1c0,2 1,1 2,2 -2,1 -4,2 -4,4 2,0 2,-1 4,-2 2,-2 1,-1 4,-1 0,-2 0,-5 -1,-7 -2,0 -3,1 -3,3z"/>
      <path class="fil3" d="M1305 495l1 0 0 1c-3,-1 0,0 -1,-1zm-2 1l2 2c-4,3 -4,2 -4,4 7,-3 3,-4 7,-3 0,-5 -1,-10 -5,-3z"/>
      <path class="fil3" d="M1328 490c0,-2 1,-2 2,-1 -1,2 -1,1 -2,1zm-5 2c5,-1 1,0 4,0 5,0 6,-6 3,-5 -1,0 -1,1 -2,1 0,0 -1,1 -1,1 -3,3 -1,-3 -4,3z"/>
      <path class="fil3" d="M1316 496c0,-2 0,-1 -1,-2 0,1 0,1 0,3l-1 0 0 -2c-3,2 -1,4 0,4l4 -1c1,-3 1,-1 0,-4 -2,2 1,2 -2,3z"/>
      <path class="fil3" d="M1273 492c2,-1 2,-2 4,0 -1,1 -1,1 -2,2 2,0 4,-1 5,-3 -2,-1 -3,-1 -6,-1 -1,2 -1,1 -1,3z"/>
      <path class="fil3" d="M1277 574l0 2c2,1 2,1 4,1 1,0 1,0 1,-1 -4,0 -3,-3 -3,-5 -2,0 -2,1 -2,3z"/>
      <path class="fil3" d="M1310 492c2,0 6,-2 8,-3 1,-1 2,0 2,-2l-5 2c-4,2 -4,1 -5,3z"/>
      <path class="fil3" d="M1289 489c6,-1 12,-6 6,-4 -4,2 -6,1 -6,4z"/>
      <path class="fil3" d="M1258 496c1,0 6,-3 8,-3 1,-1 1,0 2,-2 -2,0 -4,2 -5,2 -3,1 -3,1 -4,3z"/>
      <path class="fil3" d="M1260 517l2 2c2,-1 1,-1 2,-2 -1,-1 -1,-1 -3,-1 -1,1 -1,1 -1,2z"/>
      <path class="fil3" d="M1166 1132c0,-1 0,-1 -1,-1l1 1z"/>
      <polygon class="fil3" points="795,836 795,835 794,836 "/>
      <polygon class="fil3" points="1408,1132 1408,1132 1408,1131 "/>
      <polygon class="fil3" points="958,651 958,651 958,650 "/>
      <polygon class="fil3" points="1285,544 1286,544 1285,544 "/>
      <path class="fil3" d="M1286 543l0 0c0,0 0,0 0,0z"/>
      <polygon class="fil3" points="1300,589 1300,589 "/>
      <polygon class="fil3" points="1285,544 1285,545 "/>
      <polygon class="fil3" points="1276,589 1277,588 "/>
      </g>
 </g>
</svg>
