<svg width="24" height="18" viewBox="0 0 24 18" fill="none" xmlns="http://www.w3.org/2000/svg">
<rect width="24" height="18" fill="white"/>
<path d="M16.464 9.9H19.137C18.795 12.627 16.923 14.8788 14.4102 15.777C15.3327 14.4585 16.2804 12.5055 16.464 9.9ZM7.536 9.9C7.7196 12.5055 8.6682 14.4585 9.5907 15.777C7.077 14.877 5.205 12.627 4.863 9.9H7.536ZM7.536 8.1H4.863C5.03181 6.77948 5.56285 5.53146 6.39729 4.49417C7.23173 3.45687 8.33701 2.6708 9.5907 2.223C8.6682 3.5406 7.7187 5.4936 7.536 8.1V8.1ZM9.3378 8.1C9.5952 4.9554 11.154 2.9718 12 2.1114C12.846 2.9718 14.4048 4.9554 14.664 8.1H9.336H9.3378ZM9.3378 9.9H14.6631C14.4021 13.0446 12.8451 15.03 11.9991 15.8877C11.1531 15.0273 9.5925 13.0437 9.3351 9.9H9.3378ZM16.4478 8.1C16.2615 5.4945 15.3282 3.5343 14.4066 2.223C15.6613 2.6695 16.7677 3.45514 17.6028 4.49263C18.4379 5.53012 18.9689 6.77883 19.137 8.1H16.446H16.4478ZM3 9C3 13.9617 7.0374 18 12 18C16.9626 18 21 13.9617 21 9C21 4.0374 16.9626 0 12 0C7.0374 0 3 4.0374 3 9Z" fill="black"/>
</svg>
